<svg id="icons" height="512" viewBox="0 0 60 60" width="512" xmlns="http://www.w3.org/2000/svg"><path d="m8.752 44.266a.5.5 0 0 1 -.452-.716l.654-1.369-1.807 1.044a.5.5 0 0 1 -.616-.774l1.905-2.051-2.695 1.559a.5.5 0 0 1 -.557-.827l.8-.622a.5.5 0 0 1 -.346-.874l2.982-2.652-1.6.924a.5.5 0 0 1 -.569-.818l2.029-1.68-.825.476a.5.5 0 0 1 -.578-.81l3.023-2.631-1.663.96a.5.5 0 0 1 -.567-.819l1.851-1.516-.67.386a.5.5 0 0 1 -.6-.794l1.812-1.736-.512.3a.5.5 0 0 1 -.625-.764l1.076-1.218a.5.5 0 0 1 -.519-.685l.814-2-.011-.019a.5.5 0 0 1 .183-.683l.3-.171a.5.5 0 0 1 .713.621l-.52 1.275 1.1-.637a.5.5 0 0 1 .625.764l-.988 1.117 1.443-.832a.5.5 0 0 1 .595.794l-1.812 1.738 2.4-1.384a.5.5 0 0 1 .567.819l-1.848 1.514.835-.482a.5.5 0 0 1 .578.81l-3.022 2.631 1.5-.866a.5.5 0 0 1 .568.819l-2.032 1.68.691-.4a.5.5 0 0 1 .582.807l-2.979 2.652 1.435-.826a.5.5 0 0 1 .558.827l-.875.681a.5.5 0 0 1 .355.84l-1.9 2.047.321-.184a.5.5 0 0 1 .7.648l-1 2.089.027.041a.5.5 0 0 1 -.184.684l-.402.227a.5.5 0 0 1 -.248.066z" fill="#e8bc5b"/><path d="m24.823 34.354a.5.5 0 0 1 -.354-.853l1.572-1.579-2.473 1.427a.5.5 0 0 1 -.653-.137.5.5 0 0 1 .065-.665l.98-.9-1.617.934a.5.5 0 0 1 -.588-.8l.871-.8-1.48.854a.5.5 0 0 1 -.623-.766l1.523-1.7-2.523 1.456a.5.5 0 0 1 -.6-.785l1.077-1.093-1.81 1.047a.5.5 0 0 1 -.607-.782l1.027-1.052-1.746 1.008a.5.5 0 0 1 -.623-.766l1.172-1.313-2.013 1.163a.5.5 0 0 1 -.593-.8l.42-.4-.9.521a.5.5 0 0 1 -.654-.726l1.233-1.7-2.327 1.353a.5.5 0 0 1 -.67-.7l1.158-1.8-1.727 1a.5.5 0 0 1 -.644-.741l.56-.714a.5.5 0 0 1 -.18-.928l1.74-1a.5.5 0 0 1 .644.741l-.383.489 1.289-.744a.5.5 0 0 1 .67.7l-1.158 1.788 2.559-1.478a.5.5 0 0 1 .621.1.5.5 0 0 1 .033.629l-1.235 1.7 2.54-1.465a.5.5 0 0 1 .593.8l-.42.4 1.038-.6a.5.5 0 0 1 .623.766l-1.17 1.312 2.2-1.269a.5.5 0 0 1 .607.782l-1.028 1.053 1.912-1.1a.5.5 0 0 1 .605.785l-1.086 1.094 1.981-1.144a.5.5 0 0 1 .623.766l-1.522 1.7 2.725-1.573a.5.5 0 0 1 .588.8l-.87.8 1.628-.94a.5.5 0 0 1 .588.8l-.979.895 1.77-1.021a.5.5 0 0 1 .6.785l-1.571 1.572 2.661-1.54a.5.5 0 0 1 .722.6l-.5 1.419 1.79-1.033a.5.5 0 1 1 .5.865l-2.96 1.709a.5.5 0 0 1 -.722-.6l.5-1.42-4.749 2.741a.49.49 0 0 1 -.25.073z" fill="#cea34d"/><path d="m45.474 49.5a.5.5 0 0 1 -.25-.933l9.5-5.482a.5.5 0 0 1 .556.828l-1.25.968.694-.4a.5.5 0 0 1 .587.8l-1.04.946.453-.261a.5.5 0 0 1 .649.734l-.617.816a.5.5 0 0 1 .182.927l-1.655.956a.5.5 0 0 1 -.649-.734l.455-.6-2.334 1.347a.5.5 0 0 1 -.587-.8l1.039-.945-3.045 1.758a.5.5 0 0 1 -.556-.828l1.251-.969-3.129 1.806a.494.494 0 0 1 -.254.066z" fill="#cea34d"/><path d="m39.437 50.494a.5.5 0 0 1 -.286-.91l5.919-4.127-6.79 3.92a.5.5 0 0 1 -.539-.841l7.435-5.269-6.9 3.98a.5.5 0 0 1 -.551-.832l6.46-4.869-5.905 3.411a.5.5 0 0 1 -.544-.837l2.646-1.926-2.1 1.213a.5.5 0 0 1 -.575-.812l2.847-2.443-2.274 1.312a.5.5 0 0 1 -.582-.806l.842-.75-.26.15a.5.5 0 0 1 -.741-.528l.335-1.737a.5.5 0 0 1 -.094-.908l.5-.288a.5.5 0 0 1 .741.528l-.292 1.52 3.545-2.045a.5.5 0 0 1 .582.8l-.841.75 2.7-1.555a.5.5 0 0 1 .575.812l-2.848 2.443 5.634-3.25a.5.5 0 0 1 .544.837l-2.646 1.926 4.787-2.763a.5.5 0 0 1 .667.156.5.5 0 0 1 -.116.676l-6.46 4.868 9.125-5.268a.5.5 0 0 1 .539.841l-7.432 5.267 7.636-4.409a.5.5 0 0 1 .536.843l-5.919 4.126 5.383-3.107a.5.5 0 0 1 .539.841l-3.81 2.7 3.271-1.888a.5.5 0 0 1 .533.845l-9.82 6.753a.508.508 0 0 1 -.194.2l-.632.364a.5.5 0 0 1 -.533-.845l.161-.112-1.671.965a.5.5 0 0 1 -.539-.841l3.81-2.695-6.148 3.549a.494.494 0 0 1 -.25.065z" fill="#cea34d"/><path d="m38.251 50.47a.494.494 0 0 1 -.317-.114.5.5 0 0 1 -.157-.547l.318-.935-2.643 1.526a.5.5 0 0 1 -.594-.8l.711-.673-2.54 1.473a.5.5 0 0 1 -.57-.816l1.747-1.458-3.935 2.274a.5.5 0 0 1 -.561-.825l3.677-2.921-6.482 3.742a.5.5 0 0 1 -.541-.839l3.963-2.834-5.207 3.001a.5.5 0 0 1 -.54-.84l5.579-3.975-5.366 3.1a.5.5 0 0 1 -.536-.843l4.735-3.3-4.433 2.56a.5.5 0 0 1 -.528-.849l1.891-1.262-1.5.867a.5.5 0 0 1 -.541-.839l6.53-4.681-6.116 3.531a.5.5 0 0 1 -.527-.848l1.6-1.067-1.076.621a.5.5 0 0 1 -.549-.833l5.816-4.336-5.111 2.951a.5.5 0 0 1 -.552-.83l3.25-2.478-2.346 1.356a.5.5 0 0 1 -.558-.827l1.079-.841-.048.028a.5.5 0 0 1 -.639-.747l1.513-1.869a.492.492 0 0 1 -.289-.229.5.5 0 0 1 .182-.682l1.66-.962a.5.5 0 0 1 .639.747l-1.239 1.529 3.949-2.276a.5.5 0 0 1 .557.827l-1.082.843 2.895-1.67a.5.5 0 0 1 .553.83l-3.249 2.47 5.728-3.3a.5.5 0 0 1 .549.833l-5.813 4.334 7.258-4.191a.5.5 0 0 1 .528.849l-1.609 1.07 1.357-.782a.5.5 0 0 1 .541.839l-6.528 4.678 5.991-3.458a.5.5 0 0 1 .527.848l-1.9 1.27 1.376-.794a.5.5 0 0 1 .671.164.5.5 0 0 1 -.135.679l-4.732 3.292 4.2-2.422a.5.5 0 0 1 .541.839l-5.58 3.975 5.043-2.911a.5.5 0 0 1 .541.839l-3.967 2.833 3.426-1.978a.5.5 0 0 1 .561.824l-3.673 2.918 3.116-1.8a.5.5 0 0 1 .571.816l-1.752 1.462 1.184-.684a.5.5 0 0 1 .594.8l-.709.672.118-.068a.5.5 0 0 1 .567.046.5.5 0 0 1 .157.548l-.377 1.108a.5.5 0 0 1 .156.924l-.749.428a.5.5 0 0 1 -.249.07z" fill="#e8bc5b"/><path d="m38.008 20.224a.5.5 0 0 1 -.292-.907l4.284-3.071-5.433 3.137a.5.5 0 0 1 -.53-.847l1.913-1.3-2.938 1.7a.5.5 0 0 1 -.531-.846l3.054-2.078-4.462 2.575a.5.5 0 0 1 -.544-.837l7.1-5.162-10.1 5.83a.5.5 0 0 1 -.533-.845l6.574-4.52-10.26 5.924a.5.5 0 0 1 -.529-.848l7.514-5.043-11.762 6.79a.5.5 0 0 1 -.517-.855l3.067-1.945-3.8 2.194a.5.5 0 0 1 -.52-.853l5.661-3.637-6.872 3.967a.5.5 0 0 1 -.517-.855l2.46-1.554-3.7 2.135a.5.5 0 0 1 -.522-.853l7.511-4.867-9.92 5.727a.5.5 0 0 1 -.525-.849l10.4-6.856-15.358 8.869a.5.5 0 0 1 -.524-.852l12.084-7.892-11.561 6.675a.5.5 0 0 1 -.523-.851l8.864-5.765-7.951 4.591a.5.5 0 0 1 -.525-.851l7.054-4.64-5.745 3.316a.5.5 0 0 1 -.54-.84l7.393-5.268-4.837 2.792a.5.5 0 0 1 -.544-.837l3.218-2.339a.5.5 0 0 1 -.009-.871l5.9-3.4a.5.5 0 0 1 .544.837l-1.353.984 5.643-3.258a.5.5 0 0 1 .54.84l-7.399 5.265 11.534-6.658a.5.5 0 0 1 .524.851l-7.053 4.64 9.448-5.455a.5.5 0 0 1 .523.852l-8.87 5.768 10.984-6.341a.5.5 0 0 1 .524.851l-12.08 7.889 14.216-8.207a.5.5 0 0 1 .526.849l-10.393 6.852 12.157-7.02a.5.5 0 0 1 .522.849l-7.522 4.878 8.75-5.053a.5.5 0 0 1 .517.856l-2.445 1.545 3.169-1.826a.5.5 0 0 1 .52.854l-5.661 3.636 6.5-3.757a.5.5 0 0 1 .517.854l-3.063 1.946 3.662-2.115a.5.5 0 0 1 .529.848l-7.513 5.043 8.427-4.865a.5.5 0 0 1 .533.844l-6.578 4.524 7.358-4.248a.5.5 0 0 1 .544.837l-7.1 5.161 7.938-4.583a.5.5 0 0 1 .531.846l-3.052 2.075 3.337-1.925a.5.5 0 0 1 .531.847l-1.912 1.294 2.057-1.188a.5.5 0 0 1 .542.839l-4.281 3.072 4.512-2.6a.5.5 0 0 1 .577.81l-2.948 2.551 3.1-1.787a.5.5 0 0 1 .631.757l-1.964 2.3 1.937-1.117a.5.5 0 0 1 .65.733l-.869 1.162.492-.284a.5.5 0 0 1 .717.613l-.4 1.035a.5.5 0 0 1 .284.933l-.981.565a.5.5 0 0 1 -.717-.613l.372-.959-1.375.793a.5.5 0 0 1 -.651-.733l.869-1.161-2.343 1.352a.5.5 0 0 1 -.63-.757l1.963-2.3-5.119 2.955a.5.5 0 0 1 -.577-.81l2.946-2.553-8.723 5.036a.493.493 0 0 1 -.252.064z" fill="#818cff"/><path d="m21.186 20.453a.5.5 0 0 1 -.279-.916l3.732-2.5-3.355 1.937a.5.5 0 0 1 -.539-.841l7.017-4.97-6.4 3.693a.5.5 0 0 1 -.545-.837l7.3-5.326-6.51 3.758a.5.5 0 0 1 -.536-.843l4.266-2.974-3.415 1.97a.5.5 0 0 1 -.537-.841l3.5-2.462-2.527 1.458a.5.5 0 0 1 -.553-.83l4.624-3.519-3.249 1.883a.5.5 0 0 1 -.547-.835l1.582-1.165-.155.089a.5.5 0 0 1 -.589-.8l2.414-2.228a.5.5 0 0 1 -.114-.914l3-1.736a.5.5 0 0 1 .589.8l-1.906 1.764 4.034-2.33a.5.5 0 0 1 .547.835l-1.584 1.167 2.3-1.325a.5.5 0 0 1 .553.83l-4.624 3.517 5.42-3.129a.5.5 0 0 1 .537.842l-3.508 2.467 3.84-2.217a.5.5 0 0 1 .536.843l-4.261 2.971 4.493-2.593a.5.5 0 0 1 .545.836l-7.3 5.329 7.618-4.401a.5.5 0 0 1 .539.841l-7.018 4.971 7.123-4.113a.5.5 0 0 1 .528.849l-3.722 2.49 3.579-2.066a.5.5 0 0 1 .562.823l-4.514 3.614 4.4-2.542a.5.5 0 0 1 .557.828l-1.655 1.283 1.337-.772a.5.5 0 0 1 .593.8l-1.878 1.765 1.5-.866a.5.5 0 0 1 .648.128.5.5 0 0 1 -.046.66l-.686.678.2-.112a.5.5 0 0 1 .708.63l-.655 1.532.025-.014a.5.5 0 0 1 .5.866l-1.329.767a.5.5 0 0 1 -.709-.63l.66-1.535-2.253 1.3a.5.5 0 0 1 -.6-.788l.687-.679-1.881 1.082a.5.5 0 0 1 -.593-.8l1.878-1.765-3.962 2.287a.5.5 0 0 1 -.557-.828l1.653-1.281-3.75 2.167a.5.5 0 0 1 -.563-.823l4.515-3.614-10.985 6.343a.5.5 0 0 1 -.25.067z" fill="#5e71d3"/><path d="m29.683 59.47a.5.5 0 0 1 -.275-.918l.788-.519-2.372 1.367a.5.5 0 0 1 -.539-.84l5.208-3.686-7.841 4.526a.5.5 0 0 1 -.53-.846l3.046-2.054-4.868 2.805a.5.5 0 0 1 -.532-.846l3.492-2.385-4.547 2.626a.5.5 0 0 1 -.55-.832l5.669-4.257-6.561 3.789a.5.5 0 0 1 -.532-.845l.611-.416-.618.355a.5.5 0 0 1 -.554-.829l3.167-2.439-3.033 1.751a.5.5 0 0 1 -.546-.836l.406-.3a.5.5 0 0 1 -.463-.83l1.7-1.835a.5.5 0 0 1 -.358-.921l2.682-1.549a.5.5 0 0 1 .617.773l-1.65 1.778 4.61-2.657a.5.5 0 0 1 .545.836l-.207.152 1.712-.988a.5.5 0 0 1 .555.829l-3.168 2.439 5.663-3.268a.5.5 0 0 1 .531.845l-.608.415 2.185-1.26a.5.5 0 0 1 .549.832l-5.667 4.254 8.813-5.086a.5.5 0 0 1 .532.845l-3.491 2.384 5.595-3.229a.5.5 0 0 1 .53.846l-3.049 2.061 5.039-2.907a.5.5 0 0 1 .539.84l-5.208 3.684 7.841-4.524a.5.5 0 0 1 .524.85l-.791.521 1.968-1.136a.5.5 0 0 1 .544.838l-5.586 4.047 6.785-3.92a.5.5 0 0 1 .535.843l-2.509 1.735 2.825-1.631a.5.5 0 0 1 .533.845l-.964.664.949-.548a.5.5 0 0 1 .553.831l-2.685 2.041 2.478-1.426a.5.5 0 0 1 .551.832l-.637.481.023-.013a.5.5 0 0 1 .584.8l-1.143 1.026a.514.514 0 0 1 .469.249.5.5 0 0 1 -.183.683l-3.749 2.165a.5.5 0 0 1 -.584-.8l.964-.866-2.933 1.689a.5.5 0 0 1 -.551-.832l.638-.481-2.276 1.313a.5.5 0 0 1 -.553-.831l2.688-2.042-4.978 2.873a.5.5 0 0 1 -.533-.844l.962-.662-2.611 1.506a.5.5 0 0 1 -.535-.843l2.5-1.732-4.456 2.575a.5.5 0 0 1 -.544-.838l5.587-4.049-8.467 4.887a.5.5 0 0 1 -.25.07z" fill="#626a8e"/><path d="m9.48 53.436a.5.5 0 0 1 -.326-.879l1.406-1.208-2.6 1.5a.5.5 0 0 1 -.561-.825l1.951-1.549-2.6 1.5a.5.5 0 0 1 -.579-.81l1.317-1.149-1.548.893a.5.5 0 0 1 -.626-.762l2-2.291-2.001 1.16a.5.5 0 0 1 -.646-.128.5.5 0 0 1 .042-.658l1.336-1.344-.765.441a.5.5 0 0 1 -.627-.761l1.888-2.166-1.261.728a.5.5 0 0 1 -.589-.8l.309-.291a.5.5 0 0 1 -.366-.808l.6-.763a.5.5 0 0 1 -.132-.919l1.643-.947a.5.5 0 0 1 .644.741l-.371.473 1.1-.634a.5.5 0 0 1 .589.8l-.044.041a.5.5 0 0 1 .6.775l-1.889 2.168 1.421-.82a.5.5 0 0 1 .6.785l-1.332 1.344 1.371-.791a.5.5 0 0 1 .626.762l-2 2.291 3.39-1.957a.5.5 0 0 1 .579.81l-1.319 1.148 4.01-2.315a.5.5 0 0 1 .56.824l-1.954 1.555 1.369-.79a.5.5 0 0 1 .576.811l-1.409 1.211.309-.178a.5.5 0 1 1 .5.866l-4.941 2.848a.493.493 0 0 1 -.25.068z" fill="#626a8e"/><path d="m24.979 45.493a.5.5 0 0 1 -.317-.887l2.247-1.84-2.56 1.477a.5.5 0 0 1 -.569-.818l3.253-2.686-2.751 1.588a.5.5 0 0 1 -.577-.81l3.978-3.447-3.265 1.885a.5.5 0 0 1 -.577-.81l3.828-3.312-2.807 1.619a.5.5 0 0 1 -.587-.8l2.078-1.893-.731.421a.5.5 0 0 1 -.612-.778l.967-1.015a.519.519 0 0 1 -.121-.141.5.5 0 0 1 .183-.682l1.666-.962a.5.5 0 0 1 .612.777l-.19.2 1.726-1a.5.5 0 0 1 .586.8l-2.079 1.899 3.36-1.938a.5.5 0 0 1 .577.81l-3.825 3.31 3.248-1.875a.5.5 0 0 1 .577.811l-3.978 3.446 3.4-1.963a.5.5 0 0 1 .568.818l-3.255 2.688 2.687-1.551a.5.5 0 0 1 .566.819l-2.247 1.841 1.681-.97a.5.5 0 0 1 .579.809l-.756.667.178-.1a.5.5 0 0 1 .652.729l-.654.889a.5.5 0 0 1 .215.931l-1.659.957a.5.5 0 0 1 -.652-.729l.527-.717-2.53 1.461a.5.5 0 0 1 -.579-.809l.758-.664-2.569 1.484a.5.5 0 0 1 -.25.061z" fill="#f2e7d6"/><path d="m22.231 59.4a.5.5 0 0 1 -.321-.882l1.335-1.12-2.389 1.382a.5.5 0 0 1 -.577-.81l3.051-2.636-3.912 2.259a.5.5 0 0 1 -.564-.822l2.676-2.152-2.885 1.666a.5.5 0 0 1 -.581-.807l3.256-2.87-3.036 1.753a.5.5 0 0 1 -.561-.824l.754-.6a.5.5 0 0 1 -.608-.163.5.5 0 0 1 .069-.666l1.106-.994a.487.487 0 0 1 -.172-.177.5.5 0 0 1 .183-.682l2.682-1.55a.5.5 0 0 1 .585.8l-.176.157 1.656-.955a.5.5 0 0 1 .561.824l-.74.588 1.545-.892a.5.5 0 0 1 .58.808l-3.255 2.867 4.167-2.402a.5.5 0 0 1 .564.822l-2.678 2.154 2.854-1.648a.5.5 0 0 1 .577.811l-3.05 2.634 2.783-1.606a.5.5 0 0 1 .571.815l-1.333 1.118.437-.252a.5.5 0 0 1 .5.865l-5.4 3.119a.491.491 0 0 1 -.254.068z" fill="#464f6d"/><path d="m45.46 59.443a.5.5 0 0 1 -.36-.843l2.084-2.182-4.209 2.431a.5.5 0 0 1 -.574-.814l2.79-2.37-3.626 2.093a.5.5 0 0 1 -.544-.836l.492-.36-.575.331a.5.5 0 0 1 -.577-.812l3.373-2.91-3.4 1.962a.5.5 0 0 1 -.55-.833l.405-.3a.5.5 0 0 1 -.5-.816l1.829-2.035a.5.5 0 0 1 -.643-.2.5.5 0 0 1 .183-.682l2.682-1.55a.5.5 0 0 1 .622.767l-1.827 2.033 4.265-2.473a.5.5 0 0 1 .55.833l-.3.222.763-.441a.5.5 0 0 1 .578.812l-3.372 2.909 4.014-2.317a.5.5 0 0 1 .545.835l-.5.364.39-.225a.5.5 0 0 1 .573.814l-2.786 2.366 2.445-1.411a.5.5 0 0 1 .611.778l-2.084 2.182.564-.326a.5.5 0 0 1 .5.866l-3.581 2.071a.489.489 0 0 1 -.25.067z" fill="#464f6d"/><g fill="#262626"><path d="m14.377 21.852c-1.582-.776-3.847.143-3.948 2.025-1.882 6.071-3.879 12.123-5.705 18.205-.691 4.178-.931 11.16 4.922 11.418 4.1.123 5.867-3.52 5.906-7.041a.884.884 0 0 0 -.812-.963c-1.208.119-1.947 1.155-3.335.77-1.518-.5-1.659-1.572-1.767-2.68q2.792-7.556 5.585-15.111l9.555 5.96c-1.434 2.79-1.531 7.021-1.117 10.507a.333.333 0 0 0 .048.386 26.64 26.64 0 0 0 .549 2.958c-.5.069-1.039.052-1.517.167-7.117 1.112-6.253 9.767 0 11 7.3.578 14.929.058 22.315.137 5.1-.274 7.479-7.263 3.066-10.089 4.815.006 7.976.869 7.439-5.358 0-1.982.9-6.355-1.419-7.434-1.853-.861-5.067-.208-7.01-.208h-7.51c.417-5.023-1.5-5.332-5.723-5.08l-3.442-1.687v-11.193c2.942.087 5.315 1.54 8.178 1.764a.783.783 0 0 0 .758-.044c3-.331 5.576-2.265 9.075-1.485 7.526 3.517 5.5-2.892 3.3-7.091-8.536-16.38-43.251-14.396-45.29 5.683-.052 3.337 1.207 2.484 3.791 1.663 4.03-1.281 6.569.263 10.246 1.176a.688.688 0 0 0 .727.126c2.838-.113 5.277-1.647 8.305-1.79v10.745zm33.143-13.841a15.643 15.643 0 0 1 4.58 7.932c.61 2.9.4 2.85-1.906 2.256-3.69-1.059-6.966-.26-10.63.4-.164-4.87-1.277-13.545-5.527-16.791a24.238 24.238 0 0 1 13.483 6.203zm-27.22 10.895c-3.886-1.066-7.461-1.994-11.419-.327-1.907-.125-.921.9-1.134-1.238.462-9.062 10.406-14.667 18.563-15.6-4.758 3.209-5.774 12.033-5.885 17.181-.045-.004-.088-.007-.125-.016zm1.3.126c-.21-23.1 16.3-23.242 16.8-.4-2.655-.057-5.063-1.007-8.049-1.073a.376.376 0 0 0 -.549 0c-2.683.096-5.579 1.472-8.202 1.473zm-9.831 28.468c.181.006 2.477-.428 2.675-.762.8 4.972-5.45 8.04-8.267 3.448-1.066-1.856-.73-5.091-.621-7.12q-.014-1.389 2.615-.808c.529 2.403.329 5.055 3.598 5.242zm-2.5-5.676a2.42 2.42 0 0 0 -2.944-1.163q2.355-7.479 4.714-14.961a22.905 22.905 0 0 0 3.354 2.258q-2.562 6.933-5.125 13.867zm5.974-14.483a.484.484 0 0 0 -.274-.171c-1.259-.983-4.008-1.669-3.221-3.748a1.526 1.526 0 0 1 1.976-.835l15.861 7.776a.326.326 0 0 0 .438.215l1.7.834c-2.369-.136-5.18.024-6.45 2.185zm9.715 10.089a10.266 10.266 0 0 1 1.142-3.042c.848-1.6 3.135-1.88 5.311-1.859v8.833c0 1.782-.378 3.187-2.521 3.187h-4.3a21.341 21.341 0 0 1 .367-7.118zm-3.143 12.48c6.427-1.774 8.071 7.939 1.292 8.471-4.395-.747-6.922-6.637-1.292-8.471zm4.477 8.542a5.817 5.817 0 0 0 -.528-9.181c5.66-.014 10.732.473 16.179.276-3.1 1.8-3.333 6.939-.282 8.857-5.126-.03-10.24.038-15.369.048zm18.691-.052c-5.164-.2-5.943-8.1-.564-8.837 5.921.327 6.458 8.037.564 8.837zm6.217-20.9c2.686 0 3.241 1.61 3.241 4.057 0 1.474.894 6.441-1.381 6.943-4.546.045-8.986 0-13.551-.268.12-3.588.01-7.145.046-10.732zm-14.413-4.928c1.732.552 1.918 2.39 1.854 4.15-.553 3.653-.017 7.688-.2 11.464a111.736 111.736 0 0 0 -13.133-.005 21.861 21.861 0 0 1 -.593-2.712c2.826.13 7.435.888 7.877-2.628.422-3.349.045-7 .008-10.4.349-.028.7-.055 1.056-.076a.718.718 0 0 0 .669-.028 7.711 7.711 0 0 1 2.462.235z"/><path d="m36.077 53.513h-4c-.627 0-.935.974-.154.974h4c.627 0 .935-.974.154-.974z"/><path d="m42.827 41.539c.839-.157 2.22.436 2.665-.509.111-1.069-1.654-.388-2.319-.569-.553-.061-1.046.959-.346 1.078z"/><path d="m45.013 44.409h-2c-.568 0-.672 1.182-.026 1.182h2c.568 0 .672-1.182.026-1.182z"/><path d="m48.808 41.494c.855-.153 2.184.409 2.72-.448.082-1.031-1.678-.359-2.336-.54-.563-.099-1.141.861-.384.988z"/><path d="m49.1 45.451c.724-.178 2.3.468 2.489-.492-.056-.306-.429-.41-.689-.41-.724.178-2.3-.468-2.489.492.056.306.429.41.689.41z"/><path d="m23.928 54.457c.268 0 .618-.155.663-.452-.242-.919-1.785-.283-2.519-.462-.268 0-.618.155-.663.452.242.919 1.785.283 2.519.462z"/><path d="m46.052 53.411h-2c-.572 0-.748 1.178-.1 1.178h2c.568 0 .748-1.178.1-1.178z"/></g></svg>