<?xml version="1.0" encoding="UTF-8"?>
<svg xmlns="http://www.w3.org/2000/svg" id="icons" viewBox="0 0 60 60" width="512" height="512"><path d="M29.462,59.391a.5.5,0,0,1-.279-.915l9.559-6.425-11.088,6.4a.5.5,0,0,1-.527-.848l12.144-8.117L25.423,57.482a.5.5,0,0,1-.522-.852l10.957-7.088L23.529,56.659a.5.5,0,0,1-.52-.852l12.377-7.973L21.572,55.809a.5.5,0,0,1-.522-.853L36.536,44.91l-17.2,9.928a.5.5,0,0,1-.518-.855L32.2,45.506l-14.638,8.45a.5.5,0,0,1-.518-.854L33.162,42.844,15.812,52.861A.5.5,0,0,1,15.3,52l3.253-1.988-3.7,2.135a.5.5,0,0,1-.518-.854L33.417,39.137,13.279,50.763a.5.5,0,0,1-.51-.86l6.093-3.726-6.424,3.709a.5.5,0,0,1-.513-.858l14.145-8.78L11.442,48.693a.5.5,0,0,1-.512-.858l12.607-7.778L10.6,47.525a.5.5,0,0,1-.512-.858l10.593-6.5L9.9,46.392a.5.5,0,0,1-.516-.856L31,31.906,9,44.607a.5.5,0,0,1-.515-.856l19.575-12.22L8.346,42.916a.5.5,0,0,1-.515-.857L27.014,30.122,7.839,41.192a.5.5,0,0,1-.51-.86l5.908-3.584L7.59,40.009a.5.5,0,0,1-.511-.86l12.835-7.862L7.389,38.519a.5.5,0,0,1-.515-.858L27.079,25.086,7.28,36.517a.5.5,0,0,1-.509-.861l7.365-4.472L7.28,35.142a.5.5,0,0,1-.515-.857L29.012,20.331,7.28,32.878a.5.5,0,0,1-.513-.857L23.137,21.87,7.28,31.024a.5.5,0,0,1-.512-.858l11.82-7.29L7.28,29.4a.5.5,0,0,1-.511-.858l9.092-5.6L7.28,27.9a.5.5,0,0,1-.519-.853L24.238,15.867,7.28,25.658a.5.5,0,0,1-.521-.852L23.243,14.139,7.28,23.354a.5.5,0,0,1-.522-.851L20.944,13.3,7.28,21.186a.5.5,0,0,1-.522-.852l12.225-7.962L7.28,19.129a.5.5,0,0,1-.523-.852l10.221-6.663-9.7,5.6a.5.5,0,0,1-.523-.852l8.581-5.6L7.28,15.409a.5.5,0,0,1-.517-.854l.865-.55-.348.2a.5.5,0,0,1-.669-.159.5.5,0,0,1,.123-.677l6.414-4.71L7.28,12.047a.5.5,0,0,1-.55-.833L9.555,9.1,7.28,10.409a.5.5,0,0,1-.6-.787L8.724,7.589,7.28,8.422a.5.5,0,0,1-.634-.751l.508-.615a.5.5,0,0,1-.092-.908L8.756,5.17a.5.5,0,0,1,.635.751l-.2.244L11.553,4.8a.5.5,0,0,1,.6.787L10.108,7.622l6.168-3.56a.5.5,0,0,1,.55.833L14,7.011l6.523-3.766a.5.5,0,0,1,.546.836l-6.414,4.71,13-7.507a.5.5,0,0,1,.518.855l-.873.554L30.6.794a.5.5,0,0,1,.523.852l-8.575,5.6,9.93-5.732A.5.5,0,0,1,33,2.364L22.78,9.025,34.634,2.182a.5.5,0,0,1,.522.851L22.928,11,37.094,2.818a.5.5,0,0,1,.522.852L23.429,12.877,39.811,3.419a.5.5,0,0,1,.521.852L23.849,14.938,42.812,3.989a.5.5,0,0,1,.52.854L25.847,16.026,45.83,4.489a.5.5,0,0,1,.512.859l-9.071,5.587L47.905,4.8a.5.5,0,0,1,.513.858L36.591,12.947,50.183,5.1a.5.5,0,0,1,.513.857l-16.37,10.15L52.177,5.8a.5.5,0,0,1,.515.856L30.445,20.613,52.72,7.753a.5.5,0,0,1,.509.86l-7.365,4.473L52.72,9.128a.5.5,0,0,1,.514.857L33.018,22.567l19.7-11.374a.5.5,0,0,1,.51.86L40.414,19.9,52.72,12.8a.5.5,0,0,1,.509.86l-5.93,3.6,5.421-3.13a.5.5,0,0,1,.514.857L34.061,26.915,52.72,16.143a.5.5,0,0,1,.514.856L33.661,29.218l19.059-11a.5.5,0,0,1,.516.855L31.614,32.7,52.72,20.519a.5.5,0,0,1,.511.858L42.664,27.859,52.72,22.054a.5.5,0,0,1,.512.858L40.609,30.7,52.72,23.708a.5.5,0,0,1,.513.857L39.086,33.347,52.72,25.476a.5.5,0,0,1,.51.859L47.139,30.06l5.581-3.222a.5.5,0,0,1,.518.854L34.168,39.844,52.72,29.133a.5.5,0,0,1,.51.859L49.946,32l2.774-1.6a.5.5,0,0,1,.518.855L37.118,41.512l15.6-9.007a.5.5,0,0,1,.517.854L39.86,41.836l12.86-7.424a.5.5,0,0,1,.522.853L37.758,45.31l14.93-8.621a.5.5,0,0,1,.521.853L40.828,45.518,52.461,38.8a.5.5,0,0,1,.521.852L42.03,46.739,51.98,41a.5.5,0,0,1,.528.849L40.359,49.963l10.586-6.111a.5.5,0,0,1,.53.847l-9.563,6.426L49.231,46.9a.5.5,0,0,1,.527.85l-2.092,1.384a.5.5,0,0,1,.236.932L35,57.518a.5.5,0,0,1-.526-.85l1.088-.72-5.847,3.375A.5.5,0,0,1,29.462,59.391Z" fill="#e1efff"/><path d="M28.835,54.779a.5.5,0,0,1-.285-.91l9.71-6.759L26.808,53.722a.5.5,0,0,1-.519-.855l2.895-1.845L25.5,53.151a.5.5,0,0,1-.524-.85l9.137-6L23.639,52.345a.5.5,0,0,1-.521-.854l7.967-5.121-9.1,5.255a.5.5,0,0,1-.523-.852L33.2,43.119,20.012,50.734a.5.5,0,0,1-.519-.854L29.3,43.636,18.515,49.861A.5.5,0,0,1,18,49.007l11.665-7.442L17.1,48.819a.5.5,0,0,1-.52-.853l13.47-8.611L15.768,47.6a.5.5,0,0,1-.521-.854l15.9-10.227L14.508,46.126a.5.5,0,0,1-.521-.854l17.23-11.084L13.411,44.468a.5.5,0,0,1-.511-.86l1.442-.88-1.421.82a.5.5,0,0,1-.514-.858l10.234-6.361L12.362,42.263a.5.5,0,0,1-.515-.857l13.34-8.356-13.33,7.7a.5.5,0,0,1-.513-.857l11.21-6.967L11.531,39.284a.5.5,0,0,1-.513-.857l10.832-6.72L11.337,37.776a.5.5,0,0,1-.515-.856l13.121-8.189L11.28,36.043a.5.5,0,0,1-.511-.858l5.718-3.507L11.28,34.684a.5.5,0,0,1-.511-.859l6.857-4.214L11.28,33.274a.5.5,0,0,1-.515-.856L25.51,23.152,11.28,31.368a.5.5,0,0,1-.519-.853L26.771,20.27,11.28,29.213a.5.5,0,0,1-.522-.852l15.383-9.988L11.28,26.952a.5.5,0,0,1-.524-.85l13.779-9.036L11.28,24.719a.5.5,0,0,1-.524-.851l11.552-7.6L11.28,22.635a.5.5,0,0,1-.527-.849l10.46-6.974L11.28,20.546a.5.5,0,0,1-.532-.845l10.105-6.924L11.28,18.3a.5.5,0,0,1-.521-.853l2.969-1.923L11.28,16.94a.5.5,0,0,1-.551-.832l5.836-4.4L11.28,14.762a.5.5,0,0,1-.539-.841l.415-.293a.5.5,0,0,1-.429-.881l.342-.264a.5.5,0,0,1-.492-.712l.646-1.362a.5.5,0,0,1-.391-.913L12.1,8.765a.5.5,0,0,1,.7.646l-.635,1.341,4.74-2.736a.5.5,0,0,1,.554.829l-.047.036,2.449-1.413a.5.5,0,0,1,.539.841l-.252.177,3-1.728a.5.5,0,0,1,.55.832l-5.836,4.4L30.113,4.913a.5.5,0,0,1,.522.853L27.669,7.687l3.912-2.258a.5.5,0,0,1,.532.844L22.011,13.2l12.129-7a.5.5,0,0,1,.527.849L24.206,14.018,36.66,6.827a.5.5,0,0,1,.525.851l-11.555,7.6L39.284,7.4a.5.5,0,0,1,.525.851l-13.78,9.035L42.2,7.946a.5.5,0,0,1,.523.852L27.335,18.79,45.246,8.449a.5.5,0,0,1,.52.854l-16,10.239L48.162,8.92a.5.5,0,0,1,.516.856L33.925,19.047l14.8-8.542a.5.5,0,0,1,.511.858l-6.857,4.214,6.346-3.663a.5.5,0,0,1,.511.858l-5.695,3.493,5.184-2.993a.5.5,0,0,1,.514.857L36.1,22.321,48.72,15.039a.5.5,0,0,1,.513.857L38.4,22.617,48.72,16.659a.5.5,0,0,1,.513.858L38.021,24.485l10.7-6.176a.5.5,0,0,1,.515.856l-13.346,8.36L48.72,20.118a.5.5,0,0,1,.513.858L39.02,27.325l9.7-5.6a.5.5,0,0,1,.51.859l-1.446.884.936-.54a.5.5,0,0,1,.52.853L32.006,34.869,48.72,25.22a.5.5,0,0,1,.52.853L33.334,36.3,48.72,27.42a.5.5,0,0,1,.519.853l-13.468,8.61L48.72,29.407a.5.5,0,0,1,.518.855L37.572,37.7,48.72,31.269a.5.5,0,0,1,.518.854l-9.8,6.243,9.285-5.36a.5.5,0,0,1,.523.851L37.5,41.512l11.22-6.478a.5.5,0,0,1,.52.854l-7.964,5.119,7.4-4.275a.5.5,0,0,1,.524.851l-9.142,6,8.347-4.818a.5.5,0,0,1,.519.854l-2.9,1.847,1.977-1.141a.5.5,0,0,1,.535.843l-9.71,6.759,7.878-4.548a.5.5,0,0,1,.535.844l-3.963,2.746,1.545-.892a.5.5,0,1,1,.5.865L33.281,53.9a.5.5,0,0,1-.535-.843l3.97-2.751-7.631,4.405A.494.494,0,0,1,28.835,54.779Z" fill="#e8bc5b"/><path d="M38.22,27.139a.5.5,0,0,1-.344-.864l.977-.925a.5.5,0,0,1-.374-.793l.881-1.215a.5.5,0,0,1-.564-.68l.407-.988a.5.5,0,0,1-.144-.922l.836-.482a.5.5,0,0,1,.711.623l-.326.793.58-.335a.5.5,0,0,1,.621.1.5.5,0,0,1,.034.629l-.846,1.165,1.092-.63a.5.5,0,0,1,.593.8l-.717.68.762-.44a.5.5,0,0,1,.5.866L38.47,27.071A.49.49,0,0,1,38.22,27.139Z" fill="#cd4c60"/><path d="M28.137,48.38a.5.5,0,0,1-.279-.915l4.05-2.718L26.277,48a.5.5,0,0,1-.53-.847L33.058,42.2l-8.97,5.179a.5.5,0,0,1-.527-.849l8.251-5.5-9.6,5.545a.5.5,0,0,1-.526-.848l9.655-6.416L20.514,45.553a.5.5,0,0,1-.523-.852l8.6-5.6-9.374,5.412a.5.5,0,0,1-.523-.852L27.883,37.7,18.1,43.35a.5.5,0,0,1-.521-.853l8.753-5.645-9.139,5.276a.5.5,0,0,1-.514-.857l1.214-.756-1.226.707a.5.5,0,0,1-.524-.851l7.124-4.686L16.05,39.849a.5.5,0,0,1-.519-.855l2.057-1.307L15.711,38.77a.5.5,0,0,1-.523-.852l5.77-3.751-5.541,3.2a.5.5,0,0,1-.525-.849l7.595-5.025-7.2,4.156a.5.5,0,0,1-.525-.849l7.019-4.642-6.4,3.7a.5.5,0,0,1-.576-.812l2.8-2.414-1.78,1.026a.5.5,0,0,1-.559-.825l.941-.742a.5.5,0,0,1-.434-.852l2.2-2.133-.4.23a.5.5,0,0,1-.622-.766l1.3-1.459a.493.493,0,0,1-.28-.146.5.5,0,0,1-.063-.613l.65-1.032a.474.474,0,0,1-.132-.149.5.5,0,0,1,.182-.683l.85-.49a.5.5,0,0,1,.673.7l-.3.479.388-.224a.5.5,0,0,1,.623.766L19.775,24.9l1.169-.674a.5.5,0,0,1,.6.791l-2.2,2.134,2.185-1.261a.5.5,0,0,1,.56.825l-.775.611.384-.222a.5.5,0,0,1,.576.812l-2.8,2.414L35.57,21.041a.5.5,0,0,1,.526.85l-7.02,4.641,7.149-4.127a.5.5,0,0,1,.525.85l-7.595,5.024,7.671-4.428a.5.5,0,0,1,.523.851l-5.776,3.755,5.719-3.3a.5.5,0,0,1,.519.855l-2.045,1.3,1.855-1.072a.5.5,0,0,1,.525.851l-7.118,4.682L43.02,24.85a.5.5,0,0,1,.514.856l-1.224.764,1.135-.656a.5.5,0,0,1,.521.853L35.2,32.321l8.755-5.053a.5.5,0,0,1,.523.851L35.294,34.08l9.056-5.227a.5.5,0,0,1,.522.851l-8.6,5.6L44.6,30.491a.5.5,0,0,1,.526.849l-9.651,6.414,9.235-5.332a.5.5,0,0,1,.527.849l-8.247,5.5,7.628-4.4a.5.5,0,0,1,.53.847l-7.318,4.958,6.4-3.695a.5.5,0,0,1,.529.847l-4.049,2.718L43.6,38.375a.5.5,0,0,1,.549.833l-5.405,4.053,3.128-1.806a.5.5,0,0,1,.548.834L40.127,44a.49.49,0,0,1,.116.138.5.5,0,0,1-.182.682l-4.674,2.7a.5.5,0,0,1-.548-.834l.058-.044L32.023,48.3a.5.5,0,0,1-.549-.833l5.406-4.054-8.493,4.9A.5.5,0,0,1,28.137,48.38Z" fill="#cd4c60"/><path d="M22.837,27.284a.5.5,0,0,1-.29-.907L25.322,24.4l-1.041.6a.5.5,0,0,1-.549-.834l2.455-1.825-1,.579a.5.5,0,0,1-.551-.832l1.14-.858a.5.5,0,0,1-.556-.824l1.929-1.635-.781.451a.5.5,0,0,1-.6-.791l1.613-1.571L26.8,17.2a.5.5,0,0,1-.623-.765l.9-1.015-.015.008a.5.5,0,0,1-.72-.6l.627-1.75a.5.5,0,0,1-.208-.93l.841-.487a.5.5,0,0,1,.721.6l-.58,1.619L29.271,13a.5.5,0,0,1,.624.766l-.906,1.016,1.36-.785a.5.5,0,0,1,.6.791l-1.614,1.571,2.119-1.222a.5.5,0,0,1,.573.814L30.1,17.58l2.313-1.336a.5.5,0,0,1,.551.832l-1.138.856,1.317-.76a.5.5,0,0,1,.548.834l-2.453,1.825,2.693-1.555a.5.5,0,0,1,.54.84L31.689,21.1l2.954-1.7a.5.5,0,0,1,.5.865l-12.056,6.96A.491.491,0,0,1,22.837,27.284Z" fill="#cd4c60"/><path d="M30.608,48.443a.5.5,0,0,1-.334-.872l3.419-3.066-6.151,3.552a.5.5,0,0,1-.536-.843l.89-.62-1.655.955a.5.5,0,0,1-.534-.844l1.937-1.341-2.52,1.454a.5.5,0,0,1-.543-.838l5.184-3.754-5.749,3.319a.5.5,0,0,1-.543-.838l5.919-4.287-6.015,3.473a.5.5,0,0,1-.533-.845L26.4,40.6l-3.1,1.792a.5.5,0,0,1-.534-.844l3.364-2.327-2.575,1.486A.5.5,0,0,1,23,39.873l5.413-4.031-2.962,1.71a.5.5,0,0,1-.55-.833l3.977-2.983a.5.5,0,0,1-.262-.193.5.5,0,0,1,.1-.672L29.8,31.99a.5.5,0,0,1-.2-.776l1.282-1.6a.5.5,0,0,1-.633-.719l.464-.739a.485.485,0,0,1-.248-.215.5.5,0,0,1,.182-.682l1.092-.63a.5.5,0,0,1,.674.7l-.247.394.52-.3a.5.5,0,0,1,.64.745L32.05,29.761l1.808-1.044a.5.5,0,0,1,.565.821l-.134.108.214-.123a.5.5,0,0,1,.55.833l-2.887,2.165,3.172-1.831a.5.5,0,0,1,.549.834l-5.412,4.031,5.771-3.332a.5.5,0,0,1,.534.843L33.41,35.4l3.406-1.965a.5.5,0,0,1,.534.844L33.8,36.722l3.478-2.008a.5.5,0,0,1,.543.838L31.9,39.841l5.75-3.32a.5.5,0,0,1,.543.838l-5.182,3.753,4.7-2.71a.5.5,0,0,1,.534.844L36.3,40.587l1.287-.743a.5.5,0,0,1,.536.843l-.89.62.12-.07a.5.5,0,0,1,.584.8L34.52,45.107l1.719-.992a.5.5,0,1,1,.5.865l-5.881,3.4A.489.489,0,0,1,30.608,48.443Z" fill="#ffd683"/><path d="M52.616,5.7c-1.722-1.438-5.575-1.1-7.657-1.443C40.124,3.731,35.452,2.025,30.836.715,27.493.222,22.91,2.732,19.61,3.407c-3.937,1.1-8.32.872-12.126,2.159C5.115,7.3,6.408,14.006,6.408,16.388c.615,12.407-3.28,28.054,8.644,36.319a46.34,46.34,0,0,0,8.388,4.124c2.509,1.09,4.706,2.457,7.446,2.457,12.485-4.373,22.856-9.695,22.706-24.634.043-6.024,0-12.051,0-18.076C53.592,14.114,54.9,7.606,52.616,5.7Zm-.208,11.157c-.132,22.627,3.306,33.268-21.795,41.518-4.142-.05-10.13-3.406-13.693-5.584C10.3,48.742,7.631,41.834,7.592,34.4c.09-8.838-.161-17.829,0-26.6,1.049-2.51,5.485-2.29,7.758-2.662C23.841,3.675,29.337.406,38.014,3.841c3.731.857,7.769.966,11.43,1.987,3.069.857,2.663,1.461,2.964,3.684A56.8,56.8,0,0,1,52.408,16.858Z" fill="#262626"/><path d="M49.482,13.616c0-.962.373-2.728-.011-3.633-.82-1.935-2.773-1.533-4.75-1.85-2.346-.377-4.687-.8-7-1.323-8.38-3.559-10.258-1.537-18.411.659C9.194,8.08,9.7,8.753,10.518,18.393c0,11.686-2.828,26.684,9.843,32.89,5.855,2.8,8.853,5.976,15.076,1.736a41,41,0,0,0,6.7-3.226C53.6,41.514,48.505,25.624,49.482,13.616Zm-4.26,32.028C42.814,48.8,35.21,53.168,30.983,53.827c-3.111.484-7.18-2.356-10.1-3.624-11.066-5.42-9.4-16.914-9.4-27.159,0-3.545-.75-8.04,0-11.515.463-2.149,1.47-1.865,3.921-2.258,7.15-1.185,14.093-4.292,21.247-1.5,1.819.428,3.652.792,5.491,1.12,1.317.236,5.507.225,6.377,1.485.976,1.411,0,6.783,0,8.478C48.518,26.992,50.462,38.781,45.222,45.644Z" fill="#262626"/><path d="M45.48,33.351c-.054-3.525-1.26-12.164-5.629-13.25-.236-.058-.464.16-.575.337-.706,1.122-.159.481-.516,1.706.334.716-1.393,6.187-.913,3.7-.832-2.125-1.423-5.337-3.061-7.31-1.27-1.792-5.175-8.139-7.836-6.692-1.183,1.817-.833,5-1.365,7.055a29.028,29.028,0,0,1-2.9,7.2c-1.231,2.14-.249.674-.7-1.042-2.775-7.177-4.521-.347-5.8,3.137a16.838,16.838,0,0,0-1.618,8.326C17.427,54.6,45.064,51.036,45.48,33.351ZM26.294,36.79c1.77-1.734,3.5-3.121,4.4-5.516a16.359,16.359,0,0,1,.555-2.061c1.019-1.55,1.282-.732,2.271.008,6.216,5.22,5.116,19.273-4.723,18.2C23.05,46.425,22.284,40.716,26.294,36.79Zm9.562,9.278c4.232-4.138,3.165-12.181-.729-16.527-.722-.923-2.222-3.345-3.757-2.915-.8.225-.8.495-1.15,1.234-.936,1.991-.739,3.962-2.284,5.85-4.181,3.578-8.5,8.689-3.12,13-9.412-2.694-11.495-12.8-6.668-20.6.523-1.218.391-2.24,1.664-1.791,1.523.538,1.57,2.454,1.7,3.891,1.438,1.986,5.372-9.428,5.352-10.764.379-1.24.316-6.344,2.3-3.589,4.174,3.335,6.81,8.433,8.384,13.48.135.447.7.155.845-.112.6-1.12.993-4.979,2.123-5.31C47.151,29.469,45.254,42.112,35.856,46.068Z" fill="#262626"/></svg>
