<?xml version="1.0" encoding="UTF-8"?>
<svg xmlns="http://www.w3.org/2000/svg" id="icons" viewBox="0 0 60 60" width="512" height="512"><path d="M27.462,55.456a.5.5,0,0,1-.267-.923l3.253-2.05-4.832,2.789a.5.5,0,0,1-.52-.853l10.263-6.588L23.1,54.906a.5.5,0,0,1-.52-.853l12.653-8.087-14.5,8.369a.5.5,0,0,1-.52-.854l16.6-10.671L18.3,53.5a.5.5,0,0,1-.519-.854L35.16,41.584,16.173,52.546a.5.5,0,0,1-.51-.86l1.1-.668-1.663.96a.5.5,0,0,1-.517-.856L32.223,40.03,13.361,50.919a.5.5,0,0,1-.508-.86l1.253-.76-1.678.969a.5.5,0,0,1-.514-.858L28.091,39.358,11.044,49.2a.5.5,0,0,1-.513-.858L24.27,39.877,9.889,48.18a.5.5,0,0,1-.513-.859L24.5,37.988,8.769,47.072a.5.5,0,0,1-.513-.858l15.759-9.723L7.712,45.9a.5.5,0,0,1-.512-.858l14.5-8.91L6.777,44.747a.5.5,0,0,1-.512-.857L24.077,32.866,5.819,43.407a.5.5,0,0,1-.51-.859L15.7,36.214l-10.57,6.1a.5.5,0,0,1-.514-.857l18.67-11.572L4.307,40.842a.5.5,0,0,1-.514-.858L23.2,27.925,3.553,39.27a.5.5,0,0,1-.51-.86l9.447-5.757-9.421,5.44a.5.5,0,0,1-.513-.858l18.613-11.56L2.494,36.456a.5.5,0,0,1-.511-.859l11.3-6.915L2.118,35.127a.5.5,0,0,1-.515-.856L21.434,21.856,1.716,33.24a.5.5,0,0,1-.513-.858l13.518-8.338L1.482,31.687a.5.5,0,0,1-.511-.859L12.7,23.6,1.341,30.162a.5.5,0,0,1-.51-.86l2.5-1.518L1.293,28.96A.5.5,0,0,1,.776,28.1L17.94,17.291,1.327,26.882a.5.5,0,0,1-.518-.855l17.872-11.4L1.568,24.5a.5.5,0,0,1-.519-.854L17.108,13.357l-15.062,8.7a.5.5,0,0,1-.512-.859l2.014-1.239L2.44,20.6a.5.5,0,0,1-.519-.854l11.131-7.127L3.271,18.261a.5.5,0,0,1-.515-.857l3.413-2.139L4.076,16.473a.5.5,0,0,1-.524-.851L12,10.064,5.643,13.733a.5.5,0,0,1-.525-.85L8.738,10.5l-1.259.726a.5.5,0,0,1-.545-.835l4.412-3.237a.5.5,0,0,1-.105-.911l6.342-3.661a.5.5,0,0,1,.546.836L14.892,5.8,23.232.981a.5.5,0,0,1,.525.851L20.138,4.21,26.331.635a.5.5,0,0,1,.524.85L18.4,7.047,29.47.658a.5.5,0,0,1,.515.857L26.6,3.638,31.423.853a.5.5,0,0,1,.519.853L20.8,8.839,33.859,1.3a.5.5,0,0,1,.512.858L32.357,3.4l2.97-1.714a.5.5,0,0,1,.52.853L19.79,12.827,37.686,2.5a.5.5,0,0,1,.518.855L20.327,14.758,39.869,3.476a.5.5,0,0,1,.517.855L23.218,15.147,41.7,4.479a.5.5,0,0,1,.51.861l-2.477,1.5,2.978-1.719a.5.5,0,0,1,.512.858L31.49,13.207l12.466-7.2a.5.5,0,0,1,.513.858L30.937,15.216,45.179,6.993a.5.5,0,0,1,.515.857L25.868,20.26,46.6,8.289a.5.5,0,0,1,.51.859L35.8,16.071,47.567,9.279a.5.5,0,0,1,.514.858L29.476,21.692,48.7,10.592a.5.5,0,0,1,.51.859l-9.456,5.762L49.481,11.6a.5.5,0,0,1,.514.857L30.6,24.51,50.466,13.037a.5.5,0,0,1,.513.858L32.3,25.475,51.334,14.484a.5.5,0,0,1,.511.86L41.454,21.68l10.481-6.051a.5.5,0,0,1,.512.857L34.634,27.51,52.622,17.125a.5.5,0,0,1,.512.858l-14.476,8.9,14.5-8.371a.5.5,0,0,1,.513.858L37.887,29.107,53.64,20.013a.5.5,0,0,1,.512.858L39.047,30.19l14.988-8.653a.5.5,0,0,1,.513.859L40.812,30.858l13.524-7.807a.5.5,0,0,1,.514.857l-16.2,10.065,15.925-9.194a.5.5,0,0,1,.509.861l-1.255.76.834-.481a.5.5,0,0,1,.517.855L37.554,37.858l17.156-9.9a.5.5,0,0,1,.51.86l-1.138.692.587-.339a.5.5,0,0,1,.518.854L37.816,41.079l16.618-9.594a.5.5,0,0,1,.52.854l-16.6,10.67,15.581-8.995a.5.5,0,0,1,.52.853L41.8,42.959,53.25,36.348a.5.5,0,0,1,.521.853L43.505,43.79l8.806-5.083a.5.5,0,0,1,.516.856l-3.25,2.048,1.8-1.041a.5.5,0,0,1,.532.845L42.6,47.79,49.1,44.041a.5.5,0,0,1,.542.839l-4.432,3.188.167-.095a.5.5,0,1,1,.5.865l-8.8,5.079a.5.5,0,0,1-.542-.839l4.429-3.186-9.122,5.265a.5.5,0,0,1-.532-.844l9.3-6.372-12.9,7.448A.494.494,0,0,1,27.462,55.456Z" fill="#818cff"/><path d="M46.808,59.3a.5.5,0,0,1-.3-.9l2.806-2.143-4.6,2.655a.5.5,0,0,1-.546-.836L49.726,54l-6.936,4a.5.5,0,0,1-.523-.852l.419-.273-.923.532a.5.5,0,0,1-.535-.843l7.378-5.132-8.429,4.867a.5.5,0,0,1-.52-.854l.888-.569-1.226.707a.5.5,0,0,1-.53-.847l8.19-5.535-8.921,5.15a.5.5,0,0,1-.527-.849l7.512-4.971-8,4.617a.5.5,0,0,1-.523-.851l6.1-3.958L36.234,52.03a.5.5,0,0,1-.52-.852l5.738-3.7-5.9,3.409a.5.5,0,0,1-.527-.849l10.7-7.132L34.744,49.247a.5.5,0,0,1-.516-.855l2.881-1.818-2.784,1.607a.5.5,0,0,1-.526-.85l11.352-7.52L33.788,46.37a.5.5,0,0,1-.525-.849L44.57,38.047,33.431,44.478a.5.5,0,0,1-.521-.854l6.52-4.188L33.307,42.97a.5.5,0,0,1-.53-.848l9.515-6.41-9.012,5.2a.5.5,0,0,1-.537-.842l9.131-6.393L33.28,38.64a.5.5,0,0,1-.538-.841l6.972-4.915L33.28,36.6a.5.5,0,0,1-.537-.842l4.8-3.371L33.28,34.847a.5.5,0,0,1-.54-.84L35.1,32.323,33.28,33.376a.5.5,0,0,1-.551-.832l.606-.457-.055.031a.5.5,0,0,1-.677-.692l.963-1.587,0,0a.5.5,0,0,1-.5-.865l1.7-.98a.5.5,0,0,1,.678.692l-.965,1.588,5.4-3.12a.5.5,0,0,1,.551.832l-.608.458,3.871-2.234a.5.5,0,0,1,.54.84l-2.366,1.684,4.963-2.864a.5.5,0,0,1,.537.842l-4.8,3.37,6.219-3.59a.5.5,0,0,1,.538.841l-6.971,4.916,8.942-5.163a.5.5,0,0,1,.537.842L42.7,34.324l11.586-6.688a.5.5,0,0,1,.53.847L45.3,34.894l11.84-6.835a.5.5,0,0,1,.52.853L51.137,33.1,58.4,28.91a.5.5,0,0,1,.526.85L47.615,37.232l11.1-6.41a.5.5,0,0,1,.526.85L47.891,39.2,58.72,32.943a.5.5,0,0,1,.516.856l-2.87,1.81,2.354-1.358a.5.5,0,0,1,.527.849l-10.7,7.131L58.72,36.356a.5.5,0,0,1,.52.853l-5.739,3.7L58.72,37.9a.5.5,0,0,1,.522.851l-6.1,3.96,5.578-3.22a.5.5,0,0,1,.526.85l-7.51,4.97,6.984-4.032a.5.5,0,0,1,.53.847l-8.188,5.533L58.605,43.3a.5.5,0,0,1,.52.853l-.89.571.169-.1a.5.5,0,0,1,.535.843L51.561,50.6l6.218-3.59a.5.5,0,0,1,.524.851l-.934.61a.5.5,0,0,1,.37.9l-5.566,4.077,3.348-1.932a.5.5,0,0,1,.554.83L52.653,54.96a.5.5,0,0,1,.192.929l-5.787,3.34A.5.5,0,0,1,46.808,59.3Z" fill="#e1efff"/><path d="M45.437,55.041a.5.5,0,0,1-.3-.9l1.16-.877L44.43,54.343a.5.5,0,0,1-.561-.824l4.8-3.8-5.992,3.46a.5.5,0,0,1-.537-.842l3.081-2.162-3.608,2.082a.5.5,0,0,1-.53-.847l1.83-1.236L40.784,51.4a.5.5,0,0,1-.537-.841L45.461,46.9,39.81,50.161a.5.5,0,0,1-.54-.84l6.922-4.936-7.321,4.226a.5.5,0,0,1-.527-.848l3.346-2.23-3.352,1.936a.5.5,0,0,1-.537-.842l7.638-5.362-7.692,4.44a.5.5,0,0,1-.522-.852l1.252-.812L37.5,44.6a.5.5,0,0,1-.521-.853l.357-.23a.5.5,0,0,1-.522-.852L42.99,38.39l-5.711,3.3a.5.5,0,0,1-.55-.833l6.534-4.893-5.984,3.454a.5.5,0,0,1-.533-.845l1.231-.846-.7.4a.5.5,0,0,1-.547-.835l2.652-1.957-2.1,1.215a.5.5,0,0,1-.58-.808l1.9-1.674-1.322.763a.5.5,0,0,1-.614-.09.5.5,0,0,1-.053-.618l.551-.836a.5.5,0,0,1-.243-.932l1.489-.861a.5.5,0,0,1,.667.708l-.465.7,3.848-2.22a.5.5,0,0,1,.58.807l-1.9,1.674,5.456-3.149a.5.5,0,0,1,.547.835L44.49,32.809l3.939-2.274a.5.5,0,0,1,.533.845l-1.233.848,2.289-1.321a.5.5,0,0,1,.549.833l-6.529,4.89,8.933-5.157a.5.5,0,0,1,.535.843L47.331,36.6l7.274-4.2a.5.5,0,0,1,.521.853l-.376.242a.5.5,0,0,1,.493.869l-1.255.814.733-.423a.5.5,0,0,1,.537.842L47.62,40.955l7.1-4.1a.5.5,0,0,1,.527.849L51.9,39.933l2.818-1.626a.5.5,0,0,1,.54.839l-6.923,4.937L54.721,40.4a.5.5,0,0,1,.537.842L50.043,44.9l4.646-2.682a.5.5,0,0,1,.531.846L53.4,44.3l1.112-.642a.5.5,0,0,1,.537.842L51.967,46.66l2.118-1.222a.5.5,0,0,1,.561.824l-4.8,3.8,2.949-1.7a.5.5,0,0,1,.552.832l-1.957,1.479a.5.5,0,0,1,.154.923l-5.861,3.384A.491.491,0,0,1,45.437,55.041Z" fill="#e8bc5b"/><path d="M57.681,28a10.448,10.448,0,0,0-2.107-.4,26.036,26.036,0,0,0-5.735-16.227.373.373,0,0,0-.36-.42A28.34,28.34,0,0,0,37.124,2.529c-.2-.564-.746-1.119-1.058-.349A29.466,29.466,0,0,0,28.572.887C28.5.393,27.655.471,27.456.877a27.612,27.612,0,0,0-7.618,1.046.5.5,0,0,0-.712.224C1.84,6.988-5.506,30.905,6.2,44.849a.323.323,0,0,0,.142.175A26.958,26.958,0,0,0,20.717,54.38c.168.315.47.541.751.183a28.643,28.643,0,0,0,6.039.737.7.7,0,0,0,.872.01,30.057,30.057,0,0,0,8.574-1.389c9.456,12.894,22.671-1.02,22.54-12.5C59.592,38.192,61.216,29.749,57.681,28ZM45.34,25.584c-.949.327-1.915.653-2.9.9A63.445,63.445,0,0,0,41.091,13.5q3.87-.57,7.692-1.475a25.532,25.532,0,0,1,5.595,15.4C51.362,27.266,48.3,25.337,45.34,25.584Zm-7.531,1.853c-3.065-.05-6.15,0-9.221-.017V14.46a90.982,90.982,0,0,0,11.586-.838A61.718,61.718,0,0,1,41.546,26.7C40.31,27,39.062,27.237,37.809,27.437Zm-5.3,3.035c0,3.544-.322,7.394-.107,11.127q-1.911-.074-3.815-.073V28.58h4.9A2.819,2.819,0,0,0,32.51,30.472Zm-5.1,23.909a27.265,27.265,0,0,1-5.868-.791,34.138,34.138,0,0,1-5.2-10.3,93.27,93.27,0,0,1,11.064-.724ZM16.05,42.327A52.283,52.283,0,0,1,14.045,28.58H27.411V41.53A93.9,93.9,0,0,0,16.05,42.327ZM36.435,3.3a40.205,40.205,0,0,1,3.527,9.4,89.3,89.3,0,0,1-11.374.785V1.747A27.593,27.593,0,0,1,36.435,3.3ZM27.411,27.42H14.041A59.007,59.007,0,0,1,15.7,13.643a90.632,90.632,0,0,0,11.716.821ZM48.136,11.225q-3.6.828-7.249,1.356A42.017,42.017,0,0,0,37.8,3.829,27.652,27.652,0,0,1,48.136,11.225ZM27.411,1.7V13.487a90.019,90.019,0,0,1-11.466-.833,44.17,44.17,0,0,1,3.838-9.839A25.509,25.509,0,0,1,27.411,1.7ZM18.534,3.252a46.263,46.263,0,0,0-3.512,9.277q-3.731-.552-7.414-1.422A25.336,25.336,0,0,1,18.534,3.252ZM6.92,12.014q3.9.928,7.85,1.505a60.053,60.053,0,0,0-1.7,13.9H1.667A26.656,26.656,0,0,1,6.92,12.014ZM5.458,41.78a26.488,26.488,0,0,1-3.795-13.2H13.071a53.758,53.758,0,0,0,1.948,13.9c-2.69.388-5.369.889-8.034,1.527A26.382,26.382,0,0,1,5.458,41.78Zm2.209,3.07q3.8-.881,7.641-1.411a36.71,36.71,0,0,0,4.485,9.637A26.067,26.067,0,0,1,7.667,44.85Zm20.921,9.54V42.562c1.295.005,2.593.03,3.894.085a19.2,19.2,0,0,0,3.881,10.509A27.9,27.9,0,0,1,28.588,54.39Zm29.919-12.9c-.583,10.951-10.673,23.545-20.753,12.115.265-.276-.068-.694-.519-.676-4.322-5.985-3.75-15.492-3.742-22.575.477-1.1,2.392-1.628,3.5-1.693,1.655-.283,3.324-.557,4.957-.97a.39.39,0,0,0,.269-.067A27.793,27.793,0,0,0,45.23,26.7c1.845-.334,4.5,1.016,6.32,1.387s3.668.657,5.515.9C59.945,30.114,58.583,38.951,58.507,41.49Z" fill="#262626"/><path d="M49.513,30.615c-3.617-1.226-8.038-.352-11.5.95-1.958,1.089-1.584,2.628-1.584,4.711,0,7.888.7,14.79,8.619,18.715,1.792.781,4.237-1.336,5.388-2.3a14.67,14.67,0,0,0,5.075-9.714,43.318,43.318,0,0,0,.068-8.89C55.186,30.753,52.463,31.329,49.513,30.615Zm4.653,13.861c-.424,3.278-4.783,9.929-8.377,9.664-5.732-2.839-8.16-7.873-8.215-14.062-.632-6.2-.264-8.173,6.654-8.908,2.421-.292,9.189.257,10.2,2.889.506,1.321,0,3.648,0,5.055A27.449,27.449,0,0,1,54.166,44.476Z" fill="#262626"/><path d="M48.66,38.686l-4.615,5.538-.713-.712c-.448-.449-1.071.57-.664.976q.5.5,1,1c.223.224.52.007.672-.174l5-6C49.781,38.784,49.159,38.088,48.66,38.686Z" fill="#262626"/></svg>
