<?xml version="1.0" encoding="UTF-8"?>
<svg xmlns="http://www.w3.org/2000/svg" id="icons" viewBox="0 0 60 60" width="512" height="512"><path d="M55.53,59.46a.5.5,0,0,1-.382-.822l1.508-1.784L53.733,58.54a.5.5,0,0,1-.571-.816l.558-.466-.815.47a.5.5,0,0,1-.609-.781l2.075-2.14-2.784,1.606a.5.5,0,0,1-.586-.8l1.4-1.264L50.57,55.4a.5.5,0,0,1-.6-.787l1.939-1.931-2.573,1.485a.5.5,0,0,1-.566-.819l.336-.275-.55.317a.5.5,0,0,1-.595-.8l1.717-1.634-2.253,1.3a.5.5,0,0,1-.582-.807l1.245-1.105-1.635.943a.5.5,0,0,1-.575-.813l.924-.791-.137.078a.5.5,0,0,1-.678-.692l.755-1.248a.5.5,0,0,1-.055-.893l1.026-.593a.5.5,0,0,1,.678.691l-.542.9,3.107-1.793a.5.5,0,0,1,.575.812l-.923.792,1.239-.715a.5.5,0,0,1,.582.807l-1.244,1.1,1.631-.942a.5.5,0,0,1,.595.8l-1.717,1.633,2.251-1.3a.5.5,0,0,1,.567.819l-.335.275.547-.316a.5.5,0,0,1,.6.787l-1.941,1.934,2.574-1.485a.5.5,0,0,1,.586.8l-1.4,1.265,1.826-1.053a.5.5,0,0,1,.609.781L55.509,55.07l2.7-1.559a.5.5,0,0,1,.571.816l-.562.47.419-.241a.5.5,0,0,1,.632.755L57.762,57.1l.587-.339a.5.5,0,0,1,.5.865L55.78,59.393A.5.5,0,0,1,55.53,59.46Z" fill="#a87552"/><path d="M45.713,50.855a.5.5,0,0,1-.327-.877l.547-.474-.8.463a.5.5,0,0,1-.571-.816l.676-.567-.951.549a.5.5,0,0,1-.576-.812l.978-.842-1.311.756a.5.5,0,0,1-.6-.784l3.638-3.685a.5.5,0,0,1,.228-.583l.868-.5a.5.5,0,0,1,.6.784l-2.025,2.052,2.709-1.564a.5.5,0,0,1,.576.812l-.975.839,1.308-.754a.5.5,0,0,1,.571.815l-.679.569.4-.228a.5.5,0,0,1,.577.81L47.7,49.3a.5.5,0,0,1-.217.611l-1.516.876A.489.489,0,0,1,45.713,50.855Z" fill="#bfdbf0"/><path d="M28.364,53.435a.5.5,0,0,1-.28-.914l10.825-7.345L24.857,53.288a.5.5,0,0,1-.518-.854l6.888-4.375-8.548,4.934a.5.5,0,0,1-.516-.856l6.946-4.365L20.77,52.587a.5.5,0,0,1-.522-.853l15.742-10.2L18.227,51.789a.5.5,0,0,1-.513-.857l6.611-4.088L16.78,51.2a.5.5,0,0,1-.518-.854L33.347,39.461,14.749,50.2a.5.5,0,0,1-.513-.858L23.4,43.688l-9.948,5.743a.5.5,0,0,1-.516-.856l18.072-11.4L11.766,48.281a.5.5,0,0,1-.511-.859l8.478-5.195L10.7,47.443a.5.5,0,0,1-.51-.86l2.688-1.63L9.843,46.7a.5.5,0,0,1-.515-.856L27.437,34.528,8.544,45.437a.5.5,0,0,1-.512-.859l12.53-7.706-12.989,7.5a.5.5,0,0,1-.511-.859l9.2-5.616-9.5,5.483a.5.5,0,0,1-.511-.859l9.238-5.64L6,42.355a.5.5,0,0,1-.517-.855l21.57-13.568L4.929,40.706a.5.5,0,0,1-.511-.859l11.4-6.983L4.271,39.531a.5.5,0,0,1-.515-.857l18.47-11.5L3.518,37.976a.5.5,0,0,1-.51-.86l6.416-3.9L3.062,36.887a.5.5,0,0,1-.511-.859l11.4-6.99L2.6,35.593a.5.5,0,0,1-.509-.861l1.257-.759-1.059.61a.5.5,0,0,1-.515-.856L20.089,22.27,1.84,32.805a.5.5,0,0,1-.518-.856L21.676,19.068,1.494,30.72a.5.5,0,0,1-.516-.856l18.3-11.551L1.312,28.688A.5.5,0,0,1,.8,27.831L12.84,20.354,1.29,27.022a.5.5,0,0,1-.519-.853l18.19-11.652L1.432,24.637a.5.5,0,0,1-.514-.858l8.357-5.191L1.668,22.98a.5.5,0,0,1-.52-.853L14.7,13.468,2.165,20.705a.5.5,0,0,1-.514-.857L4.617,18.01,2.636,19.153a.5.5,0,0,1-.525-.85l12.258-8.051L3.745,16.386a.5.5,0,0,1-.517-.855l3.415-2.168L4.764,14.447a.5.5,0,0,1-.527-.848L10.23,9.615,6.569,11.729a.5.5,0,0,1-.553-.831L11.1,7.008a.5.5,0,0,1-.3-.93l6.217-3.589a.5.5,0,0,1,.553.83L12.758,7,23.484.809a.5.5,0,0,1,.527.848L18.019,5.641,26.753.6a.5.5,0,0,1,.518.854L23.86,3.617,28.924.694a.5.5,0,0,1,.524.851L17.187,9.6l14.7-8.49a.5.5,0,0,1,.513.858L29.429,3.811l4.038-2.332a.5.5,0,0,1,.519.854L20.443,10.985,35.7,2.18a.5.5,0,0,1,.514.857L27.846,8.232,37.238,2.81a.5.5,0,0,1,.52.853l-18.2,11.655L39.381,3.877a.5.5,0,0,1,.514.857L27.86,12.206,40.8,4.733a.5.5,0,0,1,.516.856L23.016,17.14,42.477,5.9a.5.5,0,0,1,.517.856L22.637,19.644,44.1,7.25a.5.5,0,0,1,.514.856L26.3,19.563,45.42,8.525a.5.5,0,0,1,.509.861l-1.273.769L46.141,9.3a.5.5,0,0,1,.511.858l-11.4,6.993,11.779-6.8a.5.5,0,0,1,.51.859l-6.382,3.881,6.589-3.8a.5.5,0,0,1,.515.858l-18.48,11.5L48.715,12.718a.5.5,0,0,1,.511.859l-11.4,6.984,11.582-6.687a.5.5,0,0,1,.517.855L28.352,28.3,50.3,15.625a.5.5,0,0,1,.51.859l-9.219,5.629,9.217-5.321a.5.5,0,0,1,.51.859l-9.194,5.616,9.137-5.275a.5.5,0,0,1,.511.859L39.241,26.559,51.7,19.366a.5.5,0,0,1,.515.857L34.107,31.539,52.145,21.126a.5.5,0,0,1,.509.86l-2.717,1.648,2.417-1.395a.5.5,0,0,1,.512.86L44.4,28.286l8.145-4.7a.5.5,0,0,1,.517.855L34.984,35.846,52.7,25.62a.5.5,0,0,1,.513.859l-9.158,5.647,8.655-5a.5.5,0,0,1,.519.854L36.14,38.868l16.425-9.483a.5.5,0,0,1,.513.857l-6.6,4.084,5.873-3.39a.5.5,0,0,1,.521.852L37.114,42l14.653-8.459a.5.5,0,0,1,.515.857L45.364,38.74l5.819-3.358a.5.5,0,0,1,.518.854L44.8,40.623l5.547-3.2a.5.5,0,0,1,.53.847L40.055,45.607l8.466-4.887a.5.5,0,0,1,.528.847l-4.48,3,1.875-1.082a.5.5,0,0,1,.542.839l-3.8,2.728a.49.49,0,0,1,.191.187.5.5,0,0,1-.183.683l-6.217,3.589a.5.5,0,0,1-.542-.839l1.81-1.3-6.205,3.583a.5.5,0,0,1-.528-.848L36,49.1l-7.383,4.263A.5.5,0,0,1,28.364,53.435Z" fill="#e1efff"/><path d="M27.384,49.459a.5.5,0,0,1-.274-.919l4.118-2.685-5.98,3.453a.5.5,0,0,1-.519-.855l3.806-2.43-5.23,3.02a.5.5,0,0,1-.515-.856l.255-.16-1.214.7a.5.5,0,0,1-.518-.856l6.076-3.843-7.255,4.189a.5.5,0,0,1-.522-.853l12.075-7.8L18.11,47.408a.5.5,0,0,1-.515-.856l8.266-5.191-9.209,5.317a.5.5,0,0,1-.514-.857l8.422-5.265-9.232,5.329a.5.5,0,0,1-.515-.857l9.008-5.621L14.1,45.021a.5.5,0,0,1-.511-.859l.769-.47-1.123.648a.5.5,0,0,1-.519-.854L29.4,32.817,11.752,43a.5.5,0,0,1-.52-.854L29,30.771,10.4,41.515a.5.5,0,0,1-.518-.856l16.14-10.22L9.3,40.093a.5.5,0,0,1-.511-.86l2.93-1.79L8.688,39.191a.5.5,0,0,1-.515-.856L21.6,29.93,7.9,37.839a.5.5,0,0,1-.515-.857l13.869-8.695L7.2,36.4a.5.5,0,0,1-.511-.858l4.838-2.967L6.753,35.334a.5.5,0,0,1-.52-.854L24.114,23.033l-18,10.393a.5.5,0,0,1-.513-.858l9.905-6.159L5.77,32.029a.5.5,0,0,1-.517-.855L17.87,23.236,5.484,30.387a.5.5,0,0,1-.52-.853L21.105,19.139,5.3,28.262a.5.5,0,0,1-.518-.856L15.871,20.4,5.3,26.5a.5.5,0,0,1-.515-.856l5.724-3.569-5.1,2.943A.5.5,0,0,1,4.9,24.16l5.179-3.239L5.641,23.483a.5.5,0,0,1-.515-.856l3.256-2.035-2.421,1.4a.5.5,0,0,1-.523-.851l8.915-5.787L6.644,19.8a.5.5,0,0,1-.528-.849l8.451-5.626-6.773,3.91a.5.5,0,0,1-.525-.85l3.6-2.373-1.739,1a.5.5,0,0,1-.562-.825l4.885-3.887a.5.5,0,0,1-.415-.9l5.684-3.281a.5.5,0,0,1,.561.824l-4.838,3.85L25.054,4.67a.5.5,0,0,1,.525.851L21.973,7.9,27.647,4.62a.5.5,0,0,1,.528.849l-8.45,5.625,10.71-6.183a.5.5,0,0,1,.522.852l-8.909,5.784L32.674,5.412a.5.5,0,0,1,.514.857L29.922,8.311l4.219-2.436a.5.5,0,0,1,.514.856l-5.179,3.24,6.1-3.522a.5.5,0,0,1,.515.857L30.36,10.878,36.915,7.1a.5.5,0,0,1,.518.855l-11.08,7.005,12.1-6.984a.5.5,0,0,1,.521.852l-16.142,10.4L40.19,9.2a.5.5,0,0,1,.517.856L28.085,17.992l13.388-7.729a.5.5,0,0,1,.513.857L32.1,17.268l10.4-6.006a.5.5,0,0,1,.519.853L25.146,23.56l18.7-10.794a.5.5,0,0,1,.512.858l-4.839,2.967,5.031-2.9a.5.5,0,0,1,.516.856L31.174,23.25l14.262-8.233a.5.5,0,0,1,.515.856l-13.419,8.4,13.676-7.9a.5.5,0,0,1,.511.859L43.764,19.04l2.925-1.689a.5.5,0,0,1,.518.855L31.064,28.428l16.317-9.42a.5.5,0,0,1,.519.853L30.127,31.24,47.981,20.933a.5.5,0,0,1,.52.853L31.821,32.453l16.587-9.576a.5.5,0,0,1,.511.859l-.758.463.405-.233a.5.5,0,0,1,.515.856l-9.017,5.627,8.624-4.978a.5.5,0,0,1,.515.856l-8.41,5.259,7.916-4.57a.5.5,0,0,1,.516.856l-8.259,5.186,7.654-4.419a.5.5,0,0,1,.522.852l-12.084,7.8L48.31,30.8a.5.5,0,0,1,.517.855l-6.072,3.841L47.9,32.525a.5.5,0,0,1,.514.857l-.824.514a.509.509,0,0,1,.536.229.5.5,0,0,1-.158.682l-3.8,2.427L46.7,35.771a.5.5,0,0,1,.524.851L43.1,39.311l2.484-1.434a.5.5,0,0,1,.535.843l-5.046,3.511,2.338-1.349a.5.5,0,1,1,.5.865L31.3,49.023a.5.5,0,0,1-.535-.842l5.046-3.512-8.181,4.723A.494.494,0,0,1,27.384,49.459Z" fill="#5e71d3"/><path d="M26.542,36.355a.5.5,0,0,1-.322-.882l1.891-1.592-2.737,1.58a.5.5,0,0,1-.546-.836l1-.737-1.438.83a.5.5,0,0,1-.564-.822l4.747-3.82-5.595,3.23a.5.5,0,0,1-.544-.837L25.977,29.9,22.1,32.135a.5.5,0,0,1-.554-.829l6.024-4.617-6.4,3.7a.5.5,0,0,1-.535-.844l3.147-2.184L20.713,29.13a.5.5,0,0,1-.529-.847l1.47-.993-1.209.7a.5.5,0,0,1-.541-.839l3.436-2.464-3.052,1.761a.5.5,0,0,1-.545-.836l2.378-1.738-1.844,1.065a.5.5,0,0,1-.578-.81l3.435-2.985L20.277,22.79a.5.5,0,0,1-.706-.638l.731-1.625a.5.5,0,0,1-.474-.88l1.315-.758a.5.5,0,0,1,.585.061.5.5,0,0,1,.121.576l-.731,1.624,6.018-3.474a.5.5,0,0,1,.578.809l-3.437,2.987,5.4-3.116a.5.5,0,0,1,.545.836l-2.38,1.74,3.771-2.177a.5.5,0,0,1,.541.839l-3.428,2.46,4.757-2.747a.5.5,0,0,1,.53.846l-1.475,1,1.182-.681a.5.5,0,0,1,.535.844L31.1,23.5l2.615-1.51a.5.5,0,0,1,.553.829l-6.022,4.615,5.469-3.158a.5.5,0,0,1,.544.837l-3.539,2.574,2.968-1.714a.5.5,0,0,1,.564.822l-4.747,3.819,3.716-2.144a.5.5,0,0,1,.546.836l-1.131.83a.494.494,0,0,1,.536.2.5.5,0,0,1-.087.67l-2.266,1.906a.5.5,0,0,1,.216.932l-4.246,2.451A.491.491,0,0,1,26.542,36.355Z" fill="#e8bc5b"/><path d="M48.187,42.659c19.413-28-19.029-58.374-41.6-32.513-19.393,23.349,12,56.812,36.173,38.136L52.908,58.434a3.912,3.912,0,0,0,5.568-5.488Zm-21.172,9.75c-33.666-1.3-33.756-49.549-.03-50.818C60.513,2.824,60.642,51.227,27.015,52.409ZM47.473,43.64l2.43,2.429L46.07,49.9l-2.388-2.388A26.494,26.494,0,0,0,47.473,43.64Zm10.4,13.872c-3.308,3.7-8.337-5-11.058-6.861l3.833-3.833C52.507,49.479,60.536,54.191,57.877,57.512Z" fill="#262626"/><path d="M22.034,18.685c-3.272.056-2.721,2.825-2.585,5.169a14.915,14.915,0,0,0,1.156,6.913c3.016,5.6,6.939,8.154,11.376,1.992,2.928-3.773,2.63-8.212,2.528-12.691-.436-1.152-.988-1.086-2.276-1.387a28.056,28.056,0,0,0-4.8-1.144C25.714,17.469,23.718,18.286,22.034,18.685ZM33.45,20.6c1.89,17.573-13.456,19.747-12.9,1.335,0-2.281,1.011-2.126,3.3-2.639C25.238,18.986,32.545,18.317,33.45,20.6Z" fill="#262626"/><path d="M32.189,5c-.581-.154-.954.986-.378,1.14C42.316,8.94,49.762,18.69,48.366,29.771c-4.029,26.208-42.3,23.6-42.859-2.862,0-11.957,9.77-20.958,21.425-21.322.573-.018.776-1.194.136-1.174C15.3,4.781,5.356,13.677,4.581,25.626a22.674,22.674,0,0,0,19.535,23.78C52.139,52.067,59.357,12.5,32.189,5Z" fill="#262626"/><path d="M25.526,29.368c1.086.689,2.96-3.36,3.866-4.123.469-.625-.37-1.042-.784-.49L26.032,28.19l-.558-.558c-.425-.425-1.364.32-.948.736Z" fill="#262626"/><path d="M26.523,9.125v1.307A16.6,16.6,0,0,0,10.561,26.539H9.03c-.689,0-.841.922-.06.922h1.6A16.758,16.758,0,0,0,26.5,43.563v1.623c0,.74.992.2.992-.373V43.567c8.907-.234,15.345-7.448,15.923-16.053h1.45c.581,0,1.01-1.028.262-1.028H43.409c-.628-8.56-7.066-15.766-15.932-16.05V8.875C27.477,8.091,26.523,8.506,26.523,9.125ZM42.5,26.486h-2.37c-.581,0-1.01,1.028-.262,1.028h2.622A15.749,15.749,0,0,1,27.5,42.382V39.813c0-.739-.992-.2-.992.373v2.2A15.559,15.559,0,0,1,11.48,27.461h2.49c.689,0,.841-.922.06-.922H11.487A15.707,15.707,0,0,1,26.523,11.617v2.508c0,.784.954.369.954-.25V11.613C35.739,11.83,41.939,18.391,42.5,26.486Z" fill="#262626"/></svg>
