<?xml version="1.0" encoding="UTF-8"?>
<svg xmlns="http://www.w3.org/2000/svg" id="icons" viewBox="0 0 60 60" width="512" height="512"><path d="M6.819,41.405a.5.5,0,0,1-.313-.889l1.178-.949-1.4.81a.5.5,0,0,1-.59-.8L8.749,36.74,6.28,38.165a.5.5,0,0,1-.562-.822l.792-.636-.23.132a.5.5,0,0,1-.585-.8l1.829-1.648L6.28,35.1a.5.5,0,0,1-.6-.786l2.048-2.046-1.445.834a.5.5,0,0,1-.6-.79l1.382-1.352-.783.452a.5.5,0,0,1-.609-.781l1.111-1.147-.5.29a.5.5,0,0,1-.692-.665l.478-.912a.5.5,0,0,1-.233-.933L7,26.6a.5.5,0,0,1,.692.665l-.413.788,2.108-1.217a.5.5,0,0,1,.609.781L8.881,28.761,10,28.116a.5.5,0,0,1,.6.79L9.216,30.258l1.306-.755a.5.5,0,0,1,.6.788L9.078,32.335l2.065-1.191a.5.5,0,0,1,.585.8L9.9,33.6l1.784-1.03a.5.5,0,0,1,.562.823l-.795.638.645-.372a.5.5,0,0,1,.59.8L9.625,37.291l3.153-1.82a.5.5,0,0,1,.564.822l-1.181.951,1.058-.61a.5.5,0,0,1,.618.771l-.927,1.006.8-.464a.5.5,0,0,1,.75.442l-.016.845a.512.512,0,0,1,.46.249.5.5,0,0,1-.182.683l-.542.313a.5.5,0,0,1-.75-.441l.014-.783-2.874,1.659a.5.5,0,0,1-.618-.771l.927-1.007-3.815,2.2A.491.491,0,0,1,6.819,41.405Z" fill="#b0ccdd"/><path d="M18.647,26.385a.5.5,0,0,1-.273-.919l14.844-9.715-16.2,9.355a.5.5,0,0,1-.524-.852l14.8-9.689L14.724,24.133a.5.5,0,0,1-.513-.859l1.124-.692-2.022,1.167a.5.5,0,0,1-.514-.857l6.524-4.075L11.3,23.448a.5.5,0,0,1-.516-.857L18.91,17.5,8.465,23.53a.5.5,0,0,1-.513-.859L13.1,19.485l-10.917,6.3a.5.5,0,0,1-.514-.857L13.14,17.792,1.286,24.636a.5.5,0,0,1-.515-.858L11.59,17.037,1.383,22.931a.5.5,0,0,1-.513-.859l6.358-3.935L1.593,21.39a.5.5,0,0,1-.52-.854l12.49-7.989L2.146,19.139a.5.5,0,0,1-.518-.855l7.722-4.9L2.9,17.105a.5.5,0,0,1-.531-.847L13.583,8.646,4.726,13.76a.5.5,0,0,1-.523-.852l2.179-1.419a.5.5,0,0,1-.414-.893L9.74,7.928a.476.476,0,0,1-.178-.181.5.5,0,0,1,.182-.683l6.645-3.836a.5.5,0,0,1,.539.841L15.406,5.145l6.28-3.625a.5.5,0,0,1,.522.852L20.319,3.6,24.967.919a.5.5,0,0,1,.531.847L14.286,9.377,29.485.6A.5.5,0,0,1,30,1.458l-7.726,4.9L32.116.681a.5.5,0,0,1,.52.854L20.142,9.526,34.947.979a.5.5,0,0,1,.513.858L29.129,5.756,36.841,1.3a.5.5,0,0,1,.514.858L26.517,8.914,38.869,1.783a.5.5,0,0,1,.514.857L27.908,9.78,40.777,2.351a.5.5,0,0,1,.514.858L36.162,6.383l6.081-3.51a.5.5,0,0,1,.516.856l-8.131,5.1,9.179-5.3a.5.5,0,0,1,.514.857l-6.53,4.078,7.4-4.272a.5.5,0,0,1,.513.859l-1.117.688,1.683-.971a.5.5,0,0,1,.523.851l-14.8,9.689L48.205,5.944a.5.5,0,0,1,.524.851L33.886,16.51l16.08-9.284a.5.5,0,0,1,.525.85l-9.62,6.345L51.339,8.377a.5.5,0,0,1,.516.857l-.28.176.538-.311a.5.5,0,0,1,.533.845L43.268,16.4l10.181-5.879a.5.5,0,0,1,.529.849L47.74,15.542l6.671-3.851a.5.5,0,0,1,.526.851l-4.108,2.711,4.345-2.509a.5.5,0,0,1,.527.85l-4.107,2.732,4.286-2.475a.5.5,0,0,1,.531.847l-5.089,3.457,5.252-3.032a.5.5,0,0,1,.552.831L53.1,19.012l4.157-2.4a.5.5,0,0,1,.579.809l-2.958,2.59,2.984-1.723a.5.5,0,0,1,.56.826l-.26.205a.5.5,0,0,1,.569.816l-.446.385.115-.066a.5.5,0,0,1,.667.707l-1.242,1.9.844-.487a.5.5,0,0,1,.7.642l-.456.988a.492.492,0,0,1,.471.249.5.5,0,0,1-.183.683l-1.116.644a.5.5,0,0,1-.7-.642l.42-.911-1.3.75a.5.5,0,0,1-.668-.707l1.242-1.9-2.864,1.654a.5.5,0,0,1-.577-.812l.447-.386-1.4.809a.5.5,0,0,1-.56-.826l.257-.2-1.421.821a.5.5,0,0,1-.579-.809l2.958-2.591-6.647,3.838a.5.5,0,0,1-.551-.832l4.033-3.059L39.989,25.852a.5.5,0,0,1-.531-.847l5.084-3.453-6.1,3.519a.5.5,0,0,1-.527-.849l4.1-2.73-5.161,2.98a.5.5,0,0,1-.525-.85l4.111-2.714-5.326,3.075a.5.5,0,0,1-.528-.849l6.234-4.17-7.982,4.609a.5.5,0,0,1-.533-.845l9.381-6.458-12.4,7.16a.5.5,0,0,1-.517-.857l.273-.171-2.236,1.291a.5.5,0,0,1-.525-.851L35.909,16.5,18.9,26.318A.5.5,0,0,1,18.647,26.385Z" fill="#818cff"/><path d="M40.582,26.413a.5.5,0,0,1-.491-.6l.173-.891-.955.552a.5.5,0,0,1-.656-.726l.505-.7-1.325.765a.5.5,0,0,1-.615-.775L38.191,23l-2.128,1.229a.5.5,0,0,1-.6-.79l2.045-2-3.892,2.246a.5.5,0,0,1-.556-.828l1.371-1.064-2.878,1.661a.5.5,0,0,1-.545-.837l1.508-1.1-3.331,1.924a.5.5,0,0,1-.534-.846l.747-.513-2.9,1.676a.5.5,0,0,1-.53-.847l1.9-1.281L19.687,26.34a.5.5,0,0,1-.529-.847l8.177-5.52-8.052,4.649a.5.5,0,0,1-.531-.847l8.756-5.966-8.169,4.716a.5.5,0,0,1-.52-.854l.947-.606-.356.206a.5.5,0,0,1-.536-.843l9.1-6.362-8.335,4.812a.5.5,0,0,1-.527-.85L23.379,15.2l-3.505,2.023a.5.5,0,0,1-.535-.844l6.91-4.808L20.3,15.01a.5.5,0,0,1-.537-.843l5.953-4.178L20.846,12.8a.5.5,0,0,1-.548-.834l6.273-4.654L21.739,10.1a.5.5,0,0,1-.553-.83L25.78,5.749,22.953,7.381a.5.5,0,0,1-.595-.795l3.2-3.045a.6.6,0,0,1-.445-.25.5.5,0,0,1,.183-.684L28.525.745a.5.5,0,0,1,.6.8L26.1,4.409l5.811-3.356a.5.5,0,0,1,.554.83L27.872,5.406l5.74-3.315a.5.5,0,0,1,.548.835L27.888,7.58l7.127-4.115a.5.5,0,0,1,.537.842L29.6,8.485l6.413-3.7a.5.5,0,0,1,.535.844l-6.914,4.811L36.9,6.244a.5.5,0,0,1,.527.85L33.16,9.919l4.336-2.5a.5.5,0,0,1,.536.842l-9.1,6.362,9.331-5.387a.5.5,0,0,1,.519.854l-.944.6.787-.454a.5.5,0,0,1,.531.846L30.4,17.05l8.773-5.065a.5.5,0,0,1,.529.848l-8.176,5.519L39.6,13.687a.5.5,0,0,1,.53.847l-1.9,1.28,1.621-.936a.5.5,0,0,1,.534.846l-.751.516.42-.243a.5.5,0,0,1,.545.837l-1.507,1.1,1.158-.669a.5.5,0,0,1,.556.828l-1.369,1.063.978-.564a.5.5,0,0,1,.6.79L38.979,21.39l1.615-.932a.5.5,0,0,1,.615.774l-.975,1.044.445-.256a.5.5,0,0,1,.655.725l-.522.723a.5.5,0,0,1,.642.572l-.23,1.189a.511.511,0,0,1,.205.2.5.5,0,0,1-.184.683l-.413.239A.5.5,0,0,1,40.582,26.413Z" fill="#5e71d3"/><path d="M33.175,55.47a.5.5,0,0,1-.276-.918l5.607-3.695L30.634,55.4a.5.5,0,0,1-.523-.852L35.424,51.1l-7.446,4.3a.5.5,0,0,1-.523-.852l6.366-4.127L25.2,55.4a.5.5,0,0,1-.531-.846L35.32,47.32,21.41,55.352a.5.5,0,0,1-.521-.853l6.35-4.105L19,55.147a.5.5,0,0,1-.526-.849l8.552-5.661-10.571,6.1a.5.5,0,0,1-.521-.853L20.427,51l-5.759,3.324a.5.5,0,0,1-.525-.849l7.029-4.639-8.484,4.9a.5.5,0,0,1-.523-.851l4.9-3.2-5.983,3.455a.5.5,0,0,1-.527-.849l6.171-4.117L9.4,52.409a.5.5,0,0,1-.539-.841l8.08-5.724L7.4,51.353a.5.5,0,0,1-.536-.843l5.86-4.072L5.86,50.4a.5.5,0,0,1-.548-.834l6.437-4.786L4.157,49.16a.5.5,0,0,1-.531-.846L5.2,47.242,3.226,48.383a.5.5,0,0,1-.539-.841l2.279-1.609-2.7,1.556a.5.5,0,0,1-.54-.841l1.113-.788-1.313.757a.5.5,0,0,1-.561-.824l2.153-1.714L1.28,45.142a.5.5,0,0,1-.672-.7l1.1-1.722-.146.084a.5.5,0,1,1-.5-.865l1.919-1.109a.5.5,0,0,1,.672.7l-1.1,1.723,5.88-3.4a.5.5,0,0,1,.561.825L6.841,42.4l4.776-2.757a.5.5,0,0,1,.539.84l-1.117.792,2.9-1.673a.5.5,0,0,1,.539.84L12.2,42.048l4.245-2.45a.5.5,0,0,1,.532.845L15.4,41.513,18.722,39.6a.5.5,0,0,1,.548.834l-6.437,4.786,9.735-5.62a.5.5,0,0,1,.536.842l-5.862,4.074L25.758,39.6a.5.5,0,0,1,.539.84L18.222,46.16,29.588,39.6a.5.5,0,0,1,.527.848l-6.173,4.118,8.6-4.966a.5.5,0,0,1,.523.851l-4.9,3.2L35.18,39.6a.5.5,0,0,1,.525.849l-7.029,4.639L38.183,39.6a.5.5,0,0,1,.52.853l-4.5,2.888,6.48-3.741a.5.5,0,0,1,.527.849L32.669,46.1,43.938,39.6a.5.5,0,0,1,.522.852l-6.345,4.1L46.7,39.6a.5.5,0,0,1,.532.846l-10.66,7.238,13.512-7.8a.5.5,0,0,1,.523.852l-6.37,4.129,7.358-4.247a.5.5,0,0,1,.522.853L46.8,44.915l5.864-3.386a.5.5,0,0,1,.525.851l-5.6,3.689,5.9-3.4a.5.5,0,0,1,.53.848l-5.538,3.723,5.693-3.286a.5.5,0,0,1,.532.846l-4.624,3.16,4.762-2.749a.5.5,0,0,1,.525.85l-.163.108.113-.065a.5.5,0,0,1,.549.834L51.4,50.264l4.7-2.71a.5.5,0,0,1,.548.834l-2.458,1.827,3.231-1.865a.5.5,0,0,1,.56.825l-2.4,1.892,2.746-1.585a.5.5,0,0,1,.6.788l-2.359,2.344L58.7,51.382a.5.5,0,0,1,.611.778l-.954,1a.5.5,0,0,1,.1.91l-2.246,1.3a.5.5,0,0,1-.61-.778l.554-.579L53.73,55.4a.5.5,0,0,1-.6-.787l2.359-2.344L50.062,55.4a.5.5,0,0,1-.559-.825l2.4-1.892L47.2,55.4a.5.5,0,0,1-.548-.834l2.459-1.828L44.5,55.4a.5.5,0,0,1-.549-.834l4.469-3.33L41.2,55.4a.5.5,0,0,1-.525-.849l.163-.108-1.659.957a.5.5,0,0,1-.533-.845L43.275,51.4,36.334,55.4a.5.5,0,0,1-.529-.847l5.531-3.72L33.425,55.4A.5.5,0,0,1,33.175,55.47Z" fill="#e1efff"/><path d="M27.7,51.47a.5.5,0,0,1-.344-.864l1.08-1.022L25.286,51.4a.5.5,0,0,1-.625-.763l1.453-1.646L21.94,51.4a.5.5,0,0,1-.643-.74l1.494-1.913-3.8,2.192a.5.5,0,0,1-.579-.808l.129-.113L18.4,50.1a.5.5,0,0,1-.661-.717l.62-.9a.526.526,0,0,1-.475-.248.5.5,0,0,1,.182-.682l1.657-.956a.5.5,0,0,1,.661.716l-.559.808L22.47,46.6a.5.5,0,0,1,.579.808l-.131.115,1.6-.923a.5.5,0,0,1,.643.74l-1.494,1.913,4.6-2.653a.5.5,0,0,1,.625.763l-1.453,1.646L31.611,46.6a.5.5,0,0,1,.594.8l-1.08,1.022L34.276,46.6a.5.5,0,0,1,.65.733l-1.49,1.977,4.7-2.71a.5.5,0,0,1,.614.775l-1.379,1.466,2.812-1.623a.5.5,0,0,1,.649.733L39.8,49.309l.9-.518a.5.5,0,1,1,.5.865L38.178,51.4a.5.5,0,0,1-.65-.733l1.025-1.36L34.926,51.4a.5.5,0,0,1-.614-.775l1.379-1.467L31.807,51.4a.5.5,0,0,1-.65-.733l1.49-1.977-4.7,2.71A.49.49,0,0,1,27.7,51.47Z" fill="#b0ccdd"/><path d="M31.315,59.47a.5.5,0,0,1-.328-.878l2.719-2.36-4.5,2.6a.5.5,0,0,1-.574-.813l4.041-3.445L27.8,57.387a.5.5,0,0,1-.549-.833l1.116-.833-.983.567a.5.5,0,0,1-.556-.828l.407-.315a.5.5,0,0,1-.552-.8l1.257-1.377a.5.5,0,0,1-.239-.933l2.376-1.372a.5.5,0,0,1,.619.77l-1.1,1.2L33.12,50.6a.5.5,0,0,1,.556.828l-.377.292,1.94-1.12a.5.5,0,0,1,.549.833l-1.116.833,2.235-1.29a.5.5,0,0,1,.574.813L33.442,55.23l4.278-2.469a.5.5,0,0,1,.578.81l-2.719,2.36L37.72,54.7a.5.5,0,0,1,.659.72l-1.4,1.992.681-.392a.5.5,0,1,1,.5.865L35.526,59.4a.5.5,0,0,1-.659-.719l1.4-1.993-4.7,2.712A.49.49,0,0,1,31.315,59.47Z" fill="#e8bc5b"/><path d="M51.166,48.47a.5.5,0,0,1-.4-.8l1.5-1.956-4.529,2.615a.5.5,0,0,1-.587-.8l.827-.751-1.338.771a.5.5,0,0,1-.7-.661l.8-1.567-.19.109a.5.5,0,0,1-.5-.865l1.659-.957a.5.5,0,0,1,.594.07.5.5,0,0,1,.1.591l-.8,1.566L51.5,43.588a.5.5,0,0,1,.587.8l-.828.753,2.708-1.563a.5.5,0,0,1,.646.737L53.1,46.274l1.769-1.02a.5.5,0,0,1,.738.54l-.257,1.177.337-.195a.5.5,0,0,1,.5.866l-1.318.76a.5.5,0,0,1-.738-.54l.258-1.176L51.416,48.4A.49.49,0,0,1,51.166,48.47Z" fill="#818cff"/><path d="M1.108,46.913c6.068,7.213,16.6,8.657,25.464,8.534.39,4.651,5.978,4.416,9.474,4.142,2.3-.16,2.458-2.279,2.469-4.14,5.684-.006,11.379.012,17.058-.006a3.978,3.978,0,0,0,1.308-7.725.277.277,0,0,0-.063-.083c-1.646-3.149-2.991-7.038-6.849-7.924-6.393-.643-12.946.089-19.38-.17V23.509a19.489,19.489,0,0,1,6.536,1.32c1.1.437,2.318,1.651,3.533,1.635,2.562-.061,4.774-2.516,7.5-2.857a13.216,13.216,0,0,1,8.823,2.025,1.764,1.764,0,0,0,2.582-1.324c.917-2.289-1.008-6.626-2-8.69C46.63-6.521,5.574-3.881.665,21.531c-1.521,10.05,7.08-3.28,17.267,4.63a3.636,3.636,0,0,1,.6.2c.1.106.284.087.431.123,3.348-1.373,6.636-3.062,10.445-2.987V39.54Q22.2,39.531,15,39.55q-1.553-4.143-3.106-8.287c-.9-2.386-1.038-4.721-3.964-4.72-3.019,0-2.52,2.009-2.52,4.419v9.245C1.432,41.024-1.519,42.847,1.108,46.913ZM56.54,16.248a19.5,19.5,0,0,1,1.679,5.407c.323,2.076.93,2.773-1.325,2.622-2.234-.15-4.211-1.749-6.7-1.771-2.916-.252-6.018,1.52-8.628,2.062-.131-6.218-1.256-18.652-7.1-22.708C43.418,2.962,52.489,7.853,56.54,16.248ZM17.9,24.711c-4.451-1.241-7.574-3.1-12.406-1.4-2.712.954-4.351,2.16-3.712-1.941C3.63,9.911,15.078,2.83,25.932,1.772c-6.3,3.946-7.387,16.451-7.5,23.048A4.344,4.344,0,0,1,17.9,24.711Zm7.22-1.609c-1.847.438-3.661,1.565-5.534,1.742C19.25-5.843,40.516-6.622,40.4,24.574,35.453,23.406,30.3,21.545,25.124,23.1Zm10.748,35.31c-1.571,0-3.181.113-4.746,0-4.941-.359-4.481-6.581.191-6.822,2.62-.123,6.538-.984,6.412,3.029a.414.414,0,0,0-.027.776C37.566,56.869,36.924,58.238,35.872,58.412Zm-4.873-8c-3.61.273-7.257.034-10.882.11-1.764-.095-2.161-2.939-.234-3.042h19c1.764.095,2.161,2.939.234,3.042C36.572,50.593,33.344,50.012,31,50.411Zm24.5-2.88a44.517,44.517,0,0,1-7.185-.015c-1.628-.23-2.8-2.443-.268-3.032,1.9-.108,3.859.065,5.778,0C54.42,45.425,54.94,46.461,55.5,47.531ZM19.75,40.449H41.934c3.8-.381,8.968-.441,11.171,3.02-3.063-.144-9.175-.364-7.466,3.577,1.019,2.628,8.028,1.031,10.642,1.438,2.955,1.4,2.6,5.834-.927,6.067h-16.8a4.728,4.728,0,0,0-.638-3.072c1.661.2,3.585-.6,3.654-2.5a2.434,2.434,0,0,0-2.454-2.459h-19a2.709,2.709,0,0,0-2.688,2.5c.1,4.2,7.964,1.9,10.818,2.459a4.652,4.652,0,0,0-1.667,3.069c-7.894-.023-18.653-.715-23.942-7.566C-2.906,38.952,16.017,40.7,19.75,40.449ZM8.553,27.457c1.707.421,2.39,4.462,2.962,5.989l2.288,6.1a50.193,50.193,0,0,0-7.212.447V33.5C6.591,31.787,5.532,26.711,8.553,27.457Z" fill="#262626"/><path d="M11.064,44.4h-5c-.6,0-.719,1.194-.128,1.194h5C11.538,45.6,11.655,44.4,11.064,44.4Z" fill="#262626"/></svg>
