<svg id="Layer_1" enable-background="new 0 0 100 100" height="512" viewBox="0 0 100 100" width="512" xmlns="http://www.w3.org/2000/svg"><g><g><path d="m7.895 18.313v21.125l42.105 3 42.105-3v-21.125z" fill="#00966e"/><path d="m7.895 60.562v21.125h84.21v-21.125l-42.105-3z" fill="#ee1c25"/><path d="m7.895 39.438h84.209v21.124h-84.209z" fill="#f1f1f1"/></g><g fill="#ee1c25"><path d="m48.282 44.391.043-.183.321.299c.394.358.679.394 1.088.117l.263-.175.263.175c.431.292.934.197 1.241-.248.138-.19.248-.139.248.124-.014.665-.891 1.051-1.518.672l-.241-.146-.19.146c-.562.438-1.686-.131-1.518-.781z"/><path d="m53.903 48.165c.533 1.621.416 3.015-.365 4.27-.38.613-1.285 1.511-1.935 1.92l-.467.297.212.08c.204.081.795.168 1.679.263.401.044.416.059.219.11-.504.146-1.519.212-2.102.139l-.591-.073-.277.314-.27.307-.257-.292-.248-.292-.861.022c-.511.015-1.08-.014-1.38-.065l-.511-.095.475-.066c.686-.088 1.526-.27 1.57-.336.015-.036-.168-.19-.423-.343-.599-.365-1.628-1.409-1.971-2-.453-.774-.599-1.358-.591-2.3.022-1.452.518-2.781 1.387-3.664.263-.263.489-.467.504-.445.022.015-.08.248-.226.518-.599 1.124-.84 2.322-.693 3.387.183 1.299.738 2.3 1.891 3.387.591.562.716.642.73.518.014-.088-.029-1.154-.088-2.38-.066-1.226-.117-2.927-.117-3.781v-1.555l.255-.138c.139-.073.306-.197.372-.27.073-.08.146-.138.168-.138s.19.117.365.255c.175.139.35.255.379.255.102 0 .073 3.489-.044 5.76-.058 1.146-.095 2.088-.088 2.102.015.007.248-.168.518-.402 1.03-.862 1.818-2.095 2.059-3.227.248-1.168-.014-2.672-.679-3.854-.314-.569-.168-.533.409.102.474.521.758 1.01.992 1.71z"/><path d="m45.143 53.772c.234.416.241.453.095.372-.095-.051-.402-.321-.679-.606-.584-.591-.993-1.299-1.168-2.022-.139-.599-.139-1.65.007-2.256.365-1.555 1.577-2.84 3.066-3.249.409-.11.752-.138.65-.051-.044.029-.336.255-.65.489-2.299 1.731-2.818 4.593-1.321 7.323z"/><path d="m56.713 50.369c0 .84-.102 1.285-.453 2.029-.234.474-.416.737-.818 1.139-.81.81-.883.803-.482-.007.891-1.766.971-3.635.219-5.132-.38-.752-.942-1.416-1.65-1.949-.314-.234-.606-.46-.642-.489-.139-.117.248-.059.818.124 1.819.577 3.001 2.263 3.008 4.285z"/></g></g></svg>