<svg id="Layer_1" enable-background="new 0 0 100 100" height="512" viewBox="0 0 100 100" width="512" xmlns="http://www.w3.org/2000/svg"><g><path d="m50 20.044c-12.801 0-23.747 8.073-28.028 19.393l28.045 3 28.009-3c-4.28-11.319-15.225-19.393-28.026-19.393z" fill="#00966e"/><path d="m50 79.956c12.801 0 23.746-8.073 28.027-19.393l-28.027-2-28.027 2c4.28 11.319 15.226 19.393 28.027 19.393z" fill="#ee1c25"/><g><path d="m78.373 40.416c-.111-.328-.225-.655-.347-.978h-56.054c-2.553 6.575-2.553 14.549 0 21.124h56.054c2.421-6.232 2.561-13.833.347-20.146z" fill="#f1f1f1"/><g fill="#ee1c25"><path d="m49.733 44.624c-.409.277-.694.241-1.088-.117l-.321-.299-.043.183c-.168.65.956 1.219 1.518.781l.19-.146.241.146c.628.379 1.504-.007 1.518-.672 0-.263-.11-.314-.248-.124-.307.445-.811.54-1.241.248l-.263-.175z"/><path d="m51.121 53.436c-.27.234-.504.409-.519.402-.007-.014.029-.956.088-2.102.117-2.27.146-5.76.044-5.76-.029 0-.204-.117-.379-.255s-.343-.255-.365-.255-.095.058-.168.138c-.066.073-.234.197-.372.27l-.255.138v1.555c0 .854.051 2.555.117 3.781.058 1.226.102 2.292.087 2.38-.014.124-.138.044-.73-.518-1.153-1.088-1.708-2.088-1.891-3.387-.146-1.066.095-2.263.693-3.387.146-.27.248-.504.226-.518-.014-.022-.241.182-.503.445-.869.883-1.365 2.212-1.387 3.664-.007.942.139 1.526.592 2.3.343.591 1.373 1.635 1.971 2 .255.153.438.307.423.343-.044.065-.883.248-1.57.336l-.475.066.511.095c.3.051.869.08 1.38.065l.861-.022.248.292.255.292.27-.307.277-.314.592.073c.584.073 1.599.007 2.103-.139.197-.051.182-.066-.219-.11-.883-.095-1.474-.182-1.679-.263l-.212-.08.467-.297c.65-.409 1.555-1.307 1.935-1.92.781-1.256.898-2.65.365-4.27-.234-.701-.518-1.19-.993-1.708-.577-.635-.723-.672-.409-.102.665 1.183.927 2.686.679 3.854-.24 1.13-1.028 2.363-2.058 3.225z"/><path d="m46.464 46.45c.314-.234.606-.46.65-.489.102-.088-.241-.059-.65.051-1.489.409-2.701 1.694-3.066 3.249-.146.606-.146 1.657-.007 2.256.175.723.584 1.431 1.168 2.022.277.285.584.555.679.606.146.08.139.044-.095-.372-1.497-2.731-.979-5.593 1.321-7.323z"/><path d="m53.53 46.45c.708.533 1.27 1.197 1.65 1.949.752 1.497.672 3.365-.219 5.132-.402.81-.329.818.482.007.402-.402.584-.665.818-1.139.351-.744.453-1.19.453-2.029-.007-2.022-1.19-3.709-3.008-4.285-.57-.182-.956-.241-.818-.124.036.029.328.255.642.489z"/></g></g></g></svg>