<svg id="Flat" height="512" viewBox="0 0 512 512" width="512" xmlns="http://www.w3.org/2000/svg"><path d="m256 24-144 80s-.333 199.667 144 232c0 0 143.667-32.333 144-232z" fill="#6ed2f0"/><path d="m254.906 294.343c-20.1-6.27-37.039-17.4-51.548-33.837-14.376-16.283-26.13-37.65-34.937-63.5-9.062-26.6-13.124-52.574-14.944-70.286l102.523-56.961 103.222 57.341c-3.915 58.212-22.578 103.787-55.621 135.69a149 149 0 0 1 -48.695 31.553z" fill="#e9eef2"/><path d="m232 168 16 16 48-48 24 24-72 72-40-40z" fill="#eb423f"/><path d="m445.414 342.145-61.64 32.055-.746-2.362a32.032 32.032 0 0 0 -45.339-20.681l-81.689 40.843-112-32h-72v80h16l184 48 216-120a29.142 29.142 0 0 0 -42.586-25.855z" fill="#f0c6a4"/><path d="m24 344h64v112h-64z" fill="#3397e8"/><path d="m288.007 432a8 8 0 0 1 -3.7-15.1l95.773-49.8a8 8 0 0 1 7.381 14.195l-95.771 49.805a7.961 7.961 0 0 1 -3.683.9z" fill="#e0b999"/></svg>