<svg id="Flat" height="512" viewBox="0 0 512 512" width="512" xmlns="http://www.w3.org/2000/svg"><path d="m192 288-32 48-16-56c-55.91-16.88-96-66.58-96-128a136 136 0 0 1 272 0c0 72.78-56.12 132.39-128 136z" fill="#e9eef2"/><path d="m472 128-28.686-28.686a16 16 0 0 0 -22.628 0l-41.372 41.372a16 16 0 0 0 0 22.628l12.686 12.686a45.255 45.255 0 0 1 0 64l-152 152a45.255 45.255 0 0 1 -64 0l-12.686-12.686a16 16 0 0 0 -22.628 0l-41.372 41.372a16 16 0 0 0 0 22.628l27.716 27.716a57.939 57.939 0 0 0 40.97 16.97 251.079 251.079 0 0 0 177.539-73.539l68.846-68.846a251.336 251.336 0 0 0 73.615-177.722c0-15.299-5.183-29.076-16-39.893z" fill="#9aa3a8"/><path d="m392 176-12.686-12.686a16 16 0 0 1 0-22.628l41.372-41.372a16 16 0 0 1 22.628 0l12.686 12.686z" fill="#7e8589"/><path d="m112 456-12.686-12.686a16 16 0 0 1 0-22.628l41.372-41.372a16 16 0 0 1 22.628 0l12.686 12.686z" fill="#7e8589"/><path d="m184.125 80-64 40s-8.5 80.5 64 104c0 0 72.5-23.5 64-104z" fill="#6ed2f0"/><g fill="#7e8589"><circle cx="184" cy="128" r="8"/><path d="m184 184a8 8 0 0 1 -8-8v-24a8 8 0 0 1 16 0v24a8 8 0 0 1 -8 8z"/></g></svg>