<svg id="icons" height="512" viewBox="0 0 60 60" width="512" xmlns="http://www.w3.org/2000/svg"><path d="m33.3 45h-27.3a2.006 2.006 0 0 1 -2-2v-22h38v6.14z" fill="#bfdbf0"/><path d="m11 29h6a2 2 0 0 1 2 2v14a0 0 0 0 1 0 0h-10a0 0 0 0 1 0 0v-14a2 2 0 0 1 2-2z" fill="#7a93a0"/><path d="m33 37h-7a2.006 2.006 0 0 1 -2-2v-4a2.006 2.006 0 0 1 2-2h7.59z" fill="#818cff"/><path d="m12 1h4a1 1 0 0 1 1 1v5a0 0 0 0 1 0 0h-6a0 0 0 0 1 0 0v-5a1 1 0 0 1 1-1z" fill="#5e71d3"/><path d="m9.752 6h26.5a2 2 0 0 1 1.743 1.019l6.749 12a2 2 0 0 1 -1.744 2.981h-40a2 2 0 0 1 -1.74-2.981l6.749-12a2 2 0 0 1 1.743-1.019z" fill="#818cff"/><path d="m46.8 58.834 1.38-.6a18 18 0 0 0 10.82-16.507v-11.31a1.992 1.992 0 0 0 -1.735-1.982c-2.623-.341-7.6-1.1-10.528-2.29a1.949 1.949 0 0 0 -1.474 0c-2.926 1.187-7.905 1.949-10.528 2.29a1.992 1.992 0 0 0 -1.735 1.982v11.31a18 18 0 0 0 10.823 16.507l1.38.6a2 2 0 0 0 1.597 0z" fill="#e1efff"/><path d="m45.416 54.566a14.015 14.015 0 0 1 -8.416-12.848v-8.328a1.433 1.433 0 0 1 1.2-1.417 49.918 49.918 0 0 0 7.354-1.673 1.407 1.407 0 0 1 .893 0 49.973 49.973 0 0 0 7.353 1.673 1.432 1.432 0 0 1 1.2 1.417v8.337a14 14 0 0 1 -8.427 12.844 1.443 1.443 0 0 1 -1.147 0z" fill="#e8bc5b"/><path d="m34 12h-22a1 1 0 0 1 0-2h22a1 1 0 0 1 0 2z" fill="#5e71d3"/><path d="m36 18h-26a1 1 0 0 1 0-2h26a1 1 0 0 1 0 2z" fill="#5e71d3"/><path d="m44 46a.993.993 0 0 1 -.707-.293l-1-1a1 1 0 0 1 1.414-1.414l.225.225 4.3-5.159a1 1 0 1 1 1.538 1.282l-5 6a1.007 1.007 0 0 1 -.724.358z" fill="#fff"/></svg>