<svg id="icons" height="512" viewBox="0 0 60 60" width="512" xmlns="http://www.w3.org/2000/svg"><path d="m31.8 58.834 10.174-4.424a20 20 0 0 0 12.026-18.341v-28.481a1.994 1.994 0 0 0 -1.753-1.988c-4.196-.5-14.882-1.984-20.482-4.44a1.912 1.912 0 0 0 -1.53 0c-5.6 2.456-16.286 3.94-20.482 4.44a1.994 1.994 0 0 0 -1.753 1.988v28.481a20 20 0 0 0 12.026 18.341l10.174 4.424a2 2 0 0 0 1.6 0z" fill="#e1efff"/><path d="m21.622 51.015a16 16 0 0 1 -9.622-14.674v-25.841a1 1 0 0 1 .862-.99c5.314-.728 12.747-2 17.8-3.931a.928.928 0 0 1 .676 0c5.058 1.928 12.487 3.2 17.8 3.931a1 1 0 0 1 .862.99v25.841a16 16 0 0 1 -9.622 14.674l-8.979 3.9a1 1 0 0 1 -.8 0z" fill="#e8bc5b"/><g fill="#223666"><path d="m30 24h2v7h-2z"/><path d="m20 25h2v6h-2z"/><path d="m40 25h2v6h-2z"/></g><rect fill="#4357aa" height="10" rx="2" width="6" x="28" y="15"/><path d="m19 18v-3a2 2 0 0 1 2-2 2 2 0 0 1 2 2v3z" fill="#4357aa"/><path d="m39 18v-3a2 2 0 0 1 2-2 2 2 0 0 1 2 2v3z" fill="#4357aa"/><path d="m19 21h4a0 0 0 0 1 0 0v4a1 1 0 0 1 -1 1h-2a1 1 0 0 1 -1-1v-4a0 0 0 0 1 0 0z" fill="#e1efff"/><path d="m39 21h4a0 0 0 0 1 0 0v4a1 1 0 0 1 -1 1h-2a1 1 0 0 1 -1-1v-4a0 0 0 0 1 0 0z" fill="#e1efff"/><rect fill="#fff" height="5" rx="1" width="6" x="18" y="17"/><rect fill="#fff" height="5" rx="1" width="6" x="38" y="17"/><path d="m44 35v13.829a15.3 15.3 0 0 1 -3.62 2.2l-8.98 3.91a1.011 1.011 0 0 1 -.8 0l-8.98-3.91a15.3 15.3 0 0 1 -3.62-2.2v-13.829z" fill="#916243"/><rect fill="#a87552" height="6" rx="2" width="30" x="16" y="30"/><path d="m29 48a.993.993 0 0 1 -.707-.293l-1-1a1 1 0 0 1 1.414-1.414l.226.226 4.3-5.16a1 1 0 1 1 1.538 1.282l-5 6a1.007 1.007 0 0 1 -.724.358z" fill="#fff"/></svg>