<svg id="icons" height="512" viewBox="0 0 60 60" width="512" xmlns="http://www.w3.org/2000/svg"><path d="m10 1v48h-7a2.006 2.006 0 0 1 -2-2v-42a4.005 4.005 0 0 1 4-4z" fill="#9ebbce"/><path d="m15 59h-2a4.005 4.005 0 0 1 -4-4v-49.83a4.116 4.116 0 0 0 -3.61-4.15c-.13-.01-.26-.02-.39-.02h42a4 4 0 0 1 4 4v45z" fill="#bfdbf0"/><path d="m59 51v4a4 4 0 0 1 -4 4h-42c.13 0 .26-.01.39-.02a4.116 4.116 0 0 0 3.61-4.15v-3.83a1 1 0 0 1 1-1h40a1 1 0 0 1 1 1z" fill="#9ebbce"/><path d="m37 8.373v5.359a11.558 11.558 0 0 1 -6.567 10.168 1 1 0 0 1 -.866 0 11.558 11.558 0 0 1 -6.567-10.168v-5.359a.994.994 0 0 1 .831-.984 42.444 42.444 0 0 0 5.874-1.341.931.931 0 0 1 .59 0 42.444 42.444 0 0 0 5.874 1.341.994.994 0 0 1 .831.984z" fill="#e8bc5b"/><g fill="#fff"><path d="m29 18a1 1 0 0 1 -.707-.293l-1-1a1 1 0 1 1 1.414-1.414l.185.185 2.308-3.078a1 1 0 1 1 1.6 1.2l-3 4a1 1 0 0 1 -.729.4z"/><path d="m46 30h-32a1 1 0 0 1 0-2h32a1 1 0 0 1 0 2z"/><path d="m46 34h-21a1 1 0 0 1 0-2h21a1 1 0 0 1 0 2z"/><path d="m21 34h-7a1 1 0 0 1 0-2h7a1 1 0 0 1 0 2z"/><path d="m46 38h-32a1 1 0 0 1 0-2h32a1 1 0 0 1 0 2z"/></g><path d="m46 46a1.017 1.017 0 0 1 -.243-.03l-3.642-.91-1.669.835a1.01 1.01 0 0 1 -.83.029 1 1 0 0 1 -.565-.608l-.49-1.464-1.855 1.855a1 1 0 0 1 -1.414-1.414l3-3a1 1 0 0 1 1.655.391l.636 1.906.969-.485a1 1 0 0 1 .689-.075l4 1a1 1 0 0 1 -.241 1.97z" fill="#7a93a0"/><path d="m30 25a1.981 1.981 0 0 1 -.87-.2 12.474 12.474 0 0 1 -7.13-11.068v-5.36a1.99 1.99 0 0 1 1.666-1.972 40.482 40.482 0 0 0 5.734-1.3 1.945 1.945 0 0 1 1.207 0 40.533 40.533 0 0 0 5.731 1.3 1.99 1.99 0 0 1 1.662 1.972v5.36a12.474 12.474 0 0 1 -7.13 11.068 1.981 1.981 0 0 1 -.87.2zm-.016-18a41.151 41.151 0 0 1 -5.984 1.375v5.357a10.6 10.6 0 0 0 6 9.268 10.607 10.607 0 0 0 6-9.269v-5.36a42.335 42.335 0 0 1 -6.016-1.371z" fill="#e1efff"/></svg>