<svg id="Flat" height="512" viewBox="0 0 512 512" width="512" xmlns="http://www.w3.org/2000/svg"><circle cx="232" cy="176" fill="#3397e8" r="152"/><path d="m232 24-32 72 40 8v40l48 16-8 72 40-32 8-16h56s4-151-152-160z" fill="#88c791"/><path d="m224 328-8-72-40-24-8-32-16-24-8 56 16 32-32 24s39 37 96 40z" fill="#88c791"/><path d="m351.958 80-103.958 64c0 128 103.833 160 103.833 160s104.167-32 104.167-160c0-.167-104.042-64-104.042-64z" fill="#6ed2f0"/><path d="m351.856 269.338a130.055 130.055 0 0 1 -32.067-22.58c-22.723-21.868-35.806-50.528-39.011-85.36l71.207-43.836c25.254 15.5 54.008 33.162 71.239 43.775-3.206 34.848-16.334 63.517-39.146 85.4a130.588 130.588 0 0 1 -32.222 22.601z" fill="#e9eef2"/><path d="m344 224a7.974 7.974 0 0 1 -5.657-2.343l-16-16a8 8 0 0 1 11.314-11.314l10.343 10.344 34.343-34.344a8 8 0 0 1 11.314 11.314l-40 40a7.974 7.974 0 0 1 -5.657 2.343z" fill="#eb423f"/><path d="m445.414 342.145-61.64 32.055-.746-2.362a32.032 32.032 0 0 0 -45.339-20.681l-81.689 40.843-112-32h-72v80h16l184 48 216-120a29.142 29.142 0 0 0 -42.586-25.855z" fill="#f0c6a4"/><path d="m24 344h64v112h-64z" fill="#3397e8"/><path d="m288.007 432a8 8 0 0 1 -3.7-15.1l95.773-49.8a8 8 0 0 1 7.381 14.195l-95.771 49.805a7.961 7.961 0 0 1 -3.683.9z" fill="#e0b999"/></svg>