<svg id="icons" height="512" viewBox="0 0 60 60" width="512" xmlns="http://www.w3.org/2000/svg"><path d="m50 33v-29a3 3 0 0 0 -3-3h-34l3 32z" fill="#bfdbf0"/><path d="m10 33v-29a3 3 0 0 1 6 0v29z" fill="#9ebbce"/><path d="m24.06 28a15.175 15.175 0 0 1 -2.06-7.66v-9.59a1.694 1.694 0 0 1 1.47-1.68 42.883 42.883 0 0 0 8.91-1.95 1.662 1.662 0 0 1 1.24 0 42.883 42.883 0 0 0 8.91 1.95 1.694 1.694 0 0 1 1.47 1.68v9.59a15.3 15.3 0 0 1 -3.92 10.22z" fill="#e1efff"/><path d="m29.04 28.05a11.232 11.232 0 0 1 -3.04-7.71v-6.74a1 1 0 0 1 .84-.99 42.59 42.59 0 0 0 5.86-1.35.883.883 0 0 1 .6 0 42.59 42.59 0 0 0 5.86 1.35 1.008 1.008 0 0 1 .84.99v6.74a11.19 11.19 0 0 1 -3.68 8.33z" fill="#e8bc5b"/><path d="m46.98 43.43a2.545 2.545 0 0 1 -.1 4.11 2.579 2.579 0 0 1 -2.94-.14l.89.65a2.557 2.557 0 0 1 .54 3.5 2.5 2.5 0 0 1 -3.49.54l-.81-.59a2.486 2.486 0 0 1 .54 3.49 2.536 2.536 0 0 1 -3.49.54l-.39-.28a2 2 0 0 1 -2.37 3.22l-3.81-2.79-16.77-9c-2.53-2.39-8.78-1.68-8.78-1.68l-1-13h8.52a4.033 4.033 0 0 0 2.49-.87 13.569 13.569 0 0 1 7.99-3.13 26.683 26.683 0 0 1 4.7.37z" fill="#916243"/><path d="m55 31-1 13a34.5 34.5 0 0 0 -6.22.43 2.489 2.489 0 0 0 -.8-1l-14.32-9.97a1 1 0 0 0 -1.25.09l-5.06 4.7a2.544 2.544 0 0 1 -3.33.24 2.622 2.622 0 0 1 -.37-3.75l6.02-6.34.03-.03a4.6 4.6 0 0 1 5.25-.89l6.58 3.31a1.944 1.944 0 0 0 .89.21z" fill="#daab94"/><rect fill="#818cff" height="17" rx="1" width="5" x="1" y="30"/><path d="m32.271 53.891a1.943 1.943 0 0 1 -.271 1.039l-1.88 3.11a2 2 0 1 1 -3.42-2.08l.26-.43a2.508 2.508 0 0 1 -3.44.85 2.6 2.6 0 0 1 -.84-3.44 2.493 2.493 0 0 1 -3.43.84 2.558 2.558 0 0 1 -.86-3.39 2.57 2.57 0 0 1 -3.41.81 2.516 2.516 0 0 1 -.85-3.44l1.88-3.11a2.541 2.541 0 0 1 3.44-.84 2.491 2.491 0 0 1 .84 3.43l.52-.86a2.5 2.5 0 0 1 3.43-.84 2.57 2.57 0 0 1 .84 3.44l-.49.8a2.509 2.509 0 0 1 3.41-.79 2.557 2.557 0 0 1 .84 3.43l-.26.43a2.007 2.007 0 0 1 2.75-.67 2.038 2.038 0 0 1 .941 1.711z" fill="#daab94"/><rect fill="#818cff" height="17" rx="1" width="5" x="54" y="29"/><path d="m32 23a1 1 0 0 1 -.707-.293l-1-1a1 1 0 0 1 1.414-1.414l.185.185 2.308-3.078a1 1 0 0 1 1.6 1.2l-3 4a1 1 0 0 1 -.729.4z" fill="#fff"/><g fill="#704d36"><path d="m38.16 58.02-3.92-2.8a1 1 0 1 1 1.17-1.63l2.32 1.66a1.991 1.991 0 0 1 .43 2.77z"/><path d="m41.87 54.55-5.95-4.29a1 1 0 0 1 -.22-1.4.992.992 0 0 1 1.39-.22l4.04 2.91a2.486 2.486 0 0 1 .74 3z"/><path d="m45.62 51.08-6.38-4.59a1.006 1.006 0 0 1 -.23-1.4 1.016 1.016 0 0 1 1.4-.23l3.56 2.56.86.63a2.539 2.539 0 0 1 .79 3.03z"/></g></svg>