<svg id="Flat" height="512" viewBox="0 0 512 512" width="512" xmlns="http://www.w3.org/2000/svg"><path d="m24 24h312v464h-312z" fill="#e9eef2"/><path d="m376 272h48a64 64 0 0 1 64 64v120a0 0 0 0 1 0 0h-176a0 0 0 0 1 0 0v-120a64 64 0 0 1 64-64z" fill="#c48669"/><path d="m400 432a56 56 0 1 1 56-56 56.063 56.063 0 0 1 -56 56zm0-96a40 40 0 1 0 40 40 40.045 40.045 0 0 0 -40-40z" fill="#ffd33a"/><path d="m400 400h-8a8 8 0 0 1 0-16h8a16 16 0 0 1 0-32h8a8 8 0 0 1 0 16h-8a16 16 0 0 1 0 32z" fill="#ffd33a"/><path d="m104 72-40 24s-.26 48 40 72c0 0 40-24.5 40-72z" fill="#6ed2f0"/><g fill="#dadcde"><path d="m296 120h-112a8 8 0 0 1 0-16h112a8 8 0 0 1 0 16z"/><path d="m296 152h-112a8 8 0 0 1 0-16h112a8 8 0 0 1 0 16z"/><path d="m280 216h-224a8 8 0 0 1 0-16h224a8 8 0 0 1 0 16z"/><path d="m304 248h-248a8 8 0 0 1 0-16h248a8 8 0 0 1 0 16z"/><path d="m304 280h-248a8 8 0 0 1 0-16h248a8 8 0 0 1 0 16z"/><path d="m280 312h-224a8 8 0 0 1 0-16h224a8 8 0 0 1 0 16z"/><path d="m280 344h-224a8 8 0 0 1 0-16h224a8 8 0 0 1 0 16z"/><path d="m112 400a7.914 7.914 0 0 1 -1.281-.1 8 8 0 0 1 -5.874-4.318l-3.948-7.895-16.459 10.969a8 8 0 0 1 -4.438 1.344h-24a8 8 0 0 1 0-16h21.578l21.984-14.656a8 8 0 0 1 11.593 3.078l3.036 6.073 16.152-16.152a8 8 0 0 1 13.247 3.127l6.176 18.53h66.234a8 8 0 0 1 0 16h-72a8 8 0 0 1 -7.59-5.47l-3.91-11.72-14.847 14.847a8 8 0 0 1 -5.653 2.343z"/></g><path d="m264 456h224v32h-224z" fill="#75ab7d"/><path d="m264 424h224v32h-224z" fill="#88c791"/><path d="m264 392h224v32h-224z" fill="#75ab7d"/><path d="m360 392h32v96h-32z" fill="#e9eef2"/><path d="m376 272-32-64h112l-32 64z" fill="#d49073"/><circle cx="336" cy="104" fill="#88c791" r="80"/><path d="m320 136a7.974 7.974 0 0 1 -5.657-2.343l-16-16a8 8 0 0 1 11.314-11.314l10.343 10.343 42.343-42.343a8 8 0 0 1 11.314 11.314l-48 48a7.974 7.974 0 0 1 -5.657 2.343z" fill="#e9eef2"/></svg>