<?xml version="1.0" encoding="UTF-8"?>
<svg xmlns="http://www.w3.org/2000/svg" id="icons" viewBox="0 0 60 60" width="512" height="512"><path d="M6,41V28a1,1,0,0,1,1-1H9a1.007,1.007,0,0,1,.94.65L14.57,40Z" fill="#b5cedd"/><path d="M30,1A32.728,32.728,0,0,1,50.51,7.847C55.76,12.081,59,17.927,59,24.387v.191c0,.663-.938,1.05-1.593.649a13.763,13.763,0,0,0-15.768.528,1.148,1.148,0,0,1-1.341.055A19.378,19.378,0,0,0,30,23a19.378,19.378,0,0,0-10.3,2.81,1.148,1.148,0,0,1-1.341-.055A13.912,13.912,0,0,0,10,23a13.966,13.966,0,0,0-7.407,2.227c-.655.4-1.593.014-1.593-.649v-.191c0-6.46,3.24-12.306,8.49-16.54A32.728,32.728,0,0,1,30,1Z" fill="#8e98ff"/><path d="M41,24.39v1.6a1.016,1.016,0,0,1-.7-.18A19.362,19.362,0,0,0,30,23a19.362,19.362,0,0,0-10.3,2.81,1.016,1.016,0,0,1-.7.18v-1.6C19,11.47,23.92,1,30,1c3.04,0,5.79,2.62,7.78,6.85A39.971,39.971,0,0,1,41,24.39Z" fill="#6a7bd3"/><path d="M23,55C10.41,55,3.46,48.66,1.55,46.62A2,2,0,0,1,1,45.25V43.38a1.978,1.978,0,0,1,1.38-1.9A38.754,38.754,0,0,1,14,40H48.52a6,6,0,0,1,5.21,3.02L56.375,48a3.98,3.98,0,0,1,1.855,1.33A3.472,3.472,0,0,1,59,51.439,3.558,3.558,0,0,1,55.439,55Z" fill="#e4f1ff"/><rect x="18" y="47" width="23" height="4" rx="2" fill="#b5cedd"/><path d="M31,51h5a2,2,0,0,1,2,2v4a2,2,0,0,1-2,2H31a4,4,0,0,1-4-4v0A4,4,0,0,1,31,51Z" fill="#e8c069"/><path d="M56.38,48H48a2.056,2.056,0,0,1-2-2,2.006,2.006,0,0,1,2-2h6.25Z" fill="#8e98ff"/><path d="M51.138,7.068A33.652,33.652,0,0,0,30,0,34.178,34.178,0,0,0,10.009,6.19a1,1,0,1,0,1.176,1.619A31.045,31.045,0,0,1,24.72,2.4c-4,3.889-6.7,12.121-6.719,21.874A15.546,15.546,0,0,0,10,22a14.86,14.86,0,0,0-7.93,2.374A.136.136,0,0,1,2,24.39v0A19.952,19.952,0,0,1,8.684,9.872,1,1,0,0,0,7.316,8.413,21.931,21.931,0,0,0,0,24.387v.192a1.763,1.763,0,0,0,.941,1.537,2.182,2.182,0,0,0,2.175-.037A13.088,13.088,0,0,1,10,24a12.853,12.853,0,0,1,7.722,2.524,2.138,2.138,0,0,0,2.554.105A18.2,18.2,0,0,1,29,24.04V39H15.263l-4.39-11.71A2,2,0,0,0,9,26H7a2,2,0,0,0-2,2V39.793a26.614,26.614,0,0,0-2.919.733A2.97,2.97,0,0,0,0,43.38v1.87A2.983,2.983,0,0,0,.82,47.3C2.73,49.344,9.975,56,23,56h3.1A5.009,5.009,0,0,0,31,60h5a3,3,0,0,0,3-3V56H55.438A4.567,4.567,0,0,0,60,51.438a4.467,4.467,0,0,0-.978-2.719A5.028,5.028,0,0,0,57.084,47.2L54.6,42.522A7.024,7.024,0,0,0,48.52,39H31V24.04a18.2,18.2,0,0,1,8.724,2.589,2.138,2.138,0,0,0,2.554-.105A12.853,12.853,0,0,1,50,24a13.1,13.1,0,0,1,6.885,2.079,2.185,2.185,0,0,0,2.174.037A1.763,1.763,0,0,0,60,24.579v-.192C60,17.828,56.853,11.677,51.138,7.068ZM7,28H9l4.13,11.015A49.557,49.557,0,0,0,7,39.465ZM36,50H20a1,1,0,0,1,0-2H39a1,1,0,0,1,0,2Zm1,7a1,1,0,0,1-1,1H31a3,3,0,0,1,0-6h5a1,1,0,0,1,1,1ZM54.712,47H48a1,1,0,0,1,0-2h5.65Zm-2.19-4H48a3,3,0,0,0,0,6h8.179a2.98,2.98,0,0,1,1.263.946A2.466,2.466,0,0,1,58,51.438,2.565,2.565,0,0,1,55.438,54H39V53a2.966,2.966,0,0,0-.184-1H39a3,3,0,0,0,0-6H20a3,3,0,0,0,0,6h7.026a4.954,4.954,0,0,0-.925,2H23C10.779,54,4.051,47.828,2.276,45.934A1,1,0,0,1,2,45.25V43.38a.979.979,0,0,1,.684-.947A37.817,37.817,0,0,1,14,41H48.52A5.019,5.019,0,0,1,52.522,43ZM30,22a21.366,21.366,0,0,0-10,2.446v-.059C20,12.252,24.579,2,30,2S40,12.252,40,24.387v.059A21.376,21.376,0,0,0,30,22Zm28,2.39a.138.138,0,0,1-.069-.016A14.866,14.866,0,0,0,50,22a15.541,15.541,0,0,0-8,2.278C41.979,14.525,39.277,6.294,35.28,2.4a30.493,30.493,0,0,1,14.6,6.221C55.117,12.847,58,18.445,58,24.387Z" fill="#373737"/><path d="M11,44H6a1,1,0,0,0,0,2h5a1,1,0,0,0,0-2Z" fill="#373737"/></svg>
