<?xml version="1.0" encoding="UTF-8"?>
<svg xmlns="http://www.w3.org/2000/svg" id="icons" viewBox="0 0 60 60" width="512" height="512"><path d="M30.8,58.834,40.974,54.41A20,20,0,0,0,53,36.069V7.588A1.994,1.994,0,0,0,51.247,5.6C47.051,5.1,36.365,3.616,30.765,1.16a1.912,1.912,0,0,0-1.53,0C23.635,3.616,12.949,5.1,8.753,5.6A1.994,1.994,0,0,0,7,7.588V36.069A20,20,0,0,0,19.026,54.41L29.2,58.834A2,2,0,0,0,30.8,58.834Z" fill="#e4f1ff"/><path d="M20.622,50.743A16,16,0,0,1,11,36.069V10.226a1,1,0,0,1,.862-.99c5.314-.728,12.747-2,17.8-3.931a.928.928,0,0,1,.676,0c5.058,1.928,12.487,3.2,17.8,3.931a1,1,0,0,1,.862.99V36.069a16,16,0,0,1-9.622,14.674l-8.979,3.9a1,1,0,0,1-.8,0Z" fill="#e8c069"/><path d="M44.992,33.56A14.845,14.845,0,0,1,30,48c-8.284,0-15-5-15-13,0-5.292,3.111-8.611,3.846-12.163a.628.628,0,0,1,1.125-.229A8.927,8.927,0,0,1,22,28a29.14,29.14,0,0,0,4.976-15.378A.635.635,0,0,1,28,12.135,27.679,27.679,0,0,1,38,27a11.279,11.279,0,0,0,1.269-5.707.633.633,0,0,1,1.113-.453A18.133,18.133,0,0,1,44.992,33.56Z" fill="#cd596b"/><path d="M29.879,48C34.954,48,38,44.689,38,38.067c0-4.659-3.518-8.772-5.6-10.8a.938.938,0,0,0-1.582.677C29.98,36.716,23,35.265,23,42.482,23,45.463,25.48,48,29.879,48Z" fill="#ffda8f"/><path d="M20.224,51.66l8.979,3.9a2.007,2.007,0,0,0,1.594,0l8.979-3.9A17,17,0,0,0,50,36.068V10.226a2.008,2.008,0,0,0-1.727-1.982c-5.279-.723-12.615-1.981-17.581-3.875a1.921,1.921,0,0,0-1.386,0c-4.959,1.892-12.3,3.15-17.58,3.874A2.006,2.006,0,0,0,10,10.226V36.068A17,17,0,0,0,20.224,51.66ZM12,10.227C17.384,9.489,24.882,8.2,29.981,6.239,35.123,8.2,42.619,9.489,48,10.226V36.068a15,15,0,0,1-9.021,13.758L30,53.729l-8.979-3.9A15,15,0,0,1,12,36.068Z" fill="#373737"/><path d="M28.836,48.954c.335.029.681.046,1.043.046l.057,0L30,49A15.844,15.844,0,0,0,45.992,33.587a19.1,19.1,0,0,0-4.848-13.4,1.607,1.607,0,0,0-1.836-.463,1.624,1.624,0,0,0-1.038,1.61,10.187,10.187,0,0,1-.222,2.586,28.714,28.714,0,0,0-9.437-12.58,1.633,1.633,0,0,0-2.634,1.236,29.522,29.522,0,0,1-3.44,12.64,12.173,12.173,0,0,0-1.751-3.191,1.628,1.628,0,0,0-2.92.605,18.01,18.01,0,0,1-1.494,3.852A19.027,19.027,0,0,0,14,35C14,42.767,20.175,48.48,28.836,48.954ZM24,42.481c0-3.059,1.371-4.27,3.107-5.8,1.971-1.741,4.2-3.712,4.707-8.583C33.8,30.056,37,33.86,37,38.067c0,4.063-1.23,8.9-7.071,8.93-.071,0-.139-.007-.21-.008C26.294,46.933,24,45.142,24,42.481ZM18.18,27.344a24.5,24.5,0,0,0,1.44-3.488A7.26,7.26,0,0,1,21,28a1,1,0,0,0,1.8.607,29.8,29.8,0,0,0,5.143-15.243,26.633,26.633,0,0,1,9.1,13.9,1,1,0,0,0,.833.728.984.984,0,0,0,.994-.485,12.14,12.14,0,0,0,1.408-5.233,17.056,17.056,0,0,1,3.722,11.259,13.734,13.734,0,0,1-6.528,11.353A13.732,13.732,0,0,0,39,38.067C39,33.045,35.3,28.7,33.1,26.55a1.884,1.884,0,0,0-1.978-.434,2.019,2.019,0,0,0-1.3,1.733c-.391,4.111-2.161,5.674-4.036,7.33C23.924,36.821,22,38.52,22,42.481a6.116,6.116,0,0,0,.8,3.011A11.3,11.3,0,0,1,16,35,17.139,17.139,0,0,1,18.18,27.344Z" fill="#373737"/><path d="M7,14a1,1,0,0,0-1,1V36.068A20.993,20.993,0,0,0,18.628,55.327L28.8,59.75a2.991,2.991,0,0,0,2.392,0l10.177-4.424A20.993,20.993,0,0,0,54,36.068V7.588A3,3,0,0,0,51.367,4.61C47.112,4.1,36.628,2.64,31.168.245a2.9,2.9,0,0,0-2.334,0C23.372,2.64,12.888,4.1,8.632,4.61A3,3,0,0,0,6,7.588V11a1,1,0,0,0,2,0V7.588A1,1,0,0,1,8.873,6.6c4.343-.527,15.059-2.019,20.766-4.522a.9.9,0,0,1,.724,0c5.7,2.5,16.421,3.994,20.763,4.52A1,1,0,0,1,52,7.588v28.48A18.993,18.993,0,0,1,40.575,53.493L30.4,57.918a1,1,0,0,1-.794,0L19.425,53.493A18.993,18.993,0,0,1,8,36.068V15A1,1,0,0,0,7,14Z" fill="#373737"/></svg>
