<?xml version="1.0" encoding="UTF-8"?>
<svg xmlns="http://www.w3.org/2000/svg" id="icons" viewBox="0 0 60 60" width="512" height="512"><path d="M18.932,33.495a.5.5,0,0,1-.269-.922l11.184-7.106L16.269,33.306a.5.5,0,0,1-.513-.859L20.4,29.583l-4.251,2.454a.5.5,0,0,1-.512-.858l5.682-3.512-5.293,3.056a.5.5,0,0,1-.519-.854L31.424,19.675l-15.59,9a.5.5,0,0,1-.516-.857l10.4-6.5L15.687,27.105a.5.5,0,0,1-.514-.857l8.678-5.4-8.3,4.792a.5.5,0,0,1-.515-.857L24.6,18.825l-9.19,5.305a.5.5,0,0,1-.517-.855l13.72-8.7L15.236,22.3a.5.5,0,0,1-.52-.853l15.048-9.694-14.72,8.5a.5.5,0,0,1-.523-.853L27.28,11.123l-12.42,7.17a.5.5,0,0,1-.521-.853l9.3-6.01L14.7,16.59a.5.5,0,0,1-.52-.853l6.308-4.066-5.928,3.422a.5.5,0,0,1-.527-.85l7.195-4.776L14.4,13.408a.5.5,0,0,1-.539-.841l8.116-5.756L14.205,11.3a.5.5,0,0,1-.535-.844l4.292-2.978-3.9,2.253a.5.5,0,0,1-.542-.838L16.89,6.465,13.913,8.183a.5.5,0,0,1-.578-.811l3.808-3.306-3.43,1.98a.5.5,0,0,1-.559-.826l.358-.281a.493.493,0,0,1-.545-.158.5.5,0,0,1,.013-.647l1-1.135-.529.3a.494.494,0,0,1-.537-.024.5.5,0,0,1-.205-.5l.18-1.008a.5.5,0,0,1-.268-.221A.5.5,0,0,1,12.809.87L13.283.6a.5.5,0,0,1,.742.521l-.139.782L16.144.6a.5.5,0,0,1,.624.763l-1,1.136L19.054.6a.5.5,0,0,1,.558.826l-.3.235L21.151.6a.5.5,0,0,1,.578.81L17.922,4.714,25.053.6a.5.5,0,0,1,.542.839L22.22,3.863,27.877.6a.5.5,0,0,1,.535.843L24.119,4.42,30.741.6a.5.5,0,0,1,.539.84L23.167,7.194,34.593.6a.5.5,0,0,1,.526.849l-7.2,4.78L37.67.6a.5.5,0,0,1,.52.852L31.9,5.508,40.4.6a.5.5,0,0,1,.522.852L31.611,7.468,43.513.6a.5.5,0,0,1,.522.852L31.284,9.719,47.049.617a.5.5,0,0,1,.52.853l-15.05,9.7,16.489-9.52a.5.5,0,0,1,.517.855L35.812,11.194,49.694,3.181a.5.5,0,0,1,.515.856L40.64,10,49.722,4.76a.5.5,0,0,1,.513.857l-8.673,5.4L49.723,6.3a.5.5,0,0,1,.515.856l-10.41,6.511,9.9-5.713a.5.5,0,0,1,.519.854L34.332,19l15.395-8.888a.5.5,0,0,1,.512.859l-5.671,3.5L49.729,11.5a.5.5,0,0,1,.512.858l-4.647,2.867,4.135-2.388a.5.5,0,0,1,.519.855l-11.183,7.1,10.666-6.157a.5.5,0,0,1,.522.852L38.971,22.8l10.762-6.213a.5.5,0,0,1,.521.854l-7.226,4.644,6.707-3.872a.5.5,0,0,1,.528.849l-8.64,5.762,8.114-4.684a.5.5,0,0,1,.534.844L42.73,26.158l7.009-4.046a.5.5,0,0,1,.54.84l-6.154,4.39L49.741,24.1a.5.5,0,0,1,.548.834L45.9,28.193l3.847-2.22a.5.5,0,0,1,.547.835l-1.728,1.274,1.183-.683a.5.5,0,0,1,.551.832l-.413.311a.5.5,0,0,1,.443.863l-.684.6.1-.061a.5.5,0,0,1,.689.673l-.577,1.054a.5.5,0,0,1,.39.914L48.83,33.4a.5.5,0,0,1-.688-.674L48.7,31.7l-2.951,1.7a.5.5,0,0,1-.58-.808l.686-.6-2.447,1.412a.5.5,0,0,1-.551-.832l.271-.2-1.8,1.038a.5.5,0,0,1-.547-.835L42.511,31.3l-3.654,2.109a.5.5,0,0,1-.547-.834L42.7,29.317l-7.1,4.1a.5.5,0,0,1-.54-.84l6.157-4.391-9.067,5.234a.5.5,0,0,1-.533-.845l7.54-5.177L28.727,33.42a.5.5,0,0,1-.528-.849l8.638-5.76L25.383,33.423a.5.5,0,0,1-.521-.854l7.224-4.642-9.524,5.5a.5.5,0,0,1-.522-.853l11.282-7.308-14.14,8.164A.494.494,0,0,1,18.932,33.495Z" fill="#bfdbf0"/><path d="M11.469,33.493a.5.5,0,0,1-.362-.846l2.1-2.193L10.28,32.145a.5.5,0,0,1-.582-.807l2.281-2.025-1.7.981a.5.5,0,0,1-.593-.8l2.832-2.665L10.28,28.124a.5.5,0,0,1-.57-.816L11.2,26.063l-.923.532a.5.5,0,0,1-.586-.8l2.483-2.249-1.9,1.1a.5.5,0,0,1-.568-.819l1.309-1.078-.741.427a.5.5,0,0,1-.593-.8l2.862-2.707-2.269,1.31a.5.5,0,0,1-.567-.82l1.254-1.03-.687.4a.5.5,0,0,1-.592-.8l2.778-2.6L10.28,17.384a.5.5,0,0,1-.573-.815l1.687-1.426-1.114.642a.5.5,0,0,1-.565-.82l1.1-.891-.53.3a.5.5,0,0,1-.566-.819l1.168-.956-.6.347a.5.5,0,0,1-.592-.8l2.779-2.606L10.28,10.811a.5.5,0,0,1-.59-.8l2.692-2.5-2.1,1.213a.5.5,0,0,1-.575-.813l1.732-1.48L10.28,7.1a.5.5,0,0,1-.593-.8l1.957-1.849-1.364.787a.5.5,0,0,1-.659-.72l1.336-1.908-.094.054a.5.5,0,0,1-.5-.865L12.411.62a.5.5,0,0,1,.659.72L11.733,3.249,14.84,1.456a.5.5,0,0,1,.594.8L13.477,4.1l2.154-1.244a.5.5,0,0,1,.575.813l-1.731,1.48,1.246-.718a.5.5,0,0,1,.59.8l-2.691,2.5,2.1-1.214a.5.5,0,0,1,.591.8l-2.78,2.607,2.192-1.265a.5.5,0,0,1,.566.82l-1.167.954.6-.347a.5.5,0,0,1,.565.82l-1.1.892.532-.307a.5.5,0,0,1,.573.815l-1.688,1.428,1.115-.644a.5.5,0,0,1,.592.8l-2.777,2.6,2.188-1.262a.5.5,0,0,1,.568.819l-1.253,1.028.686-.395a.5.5,0,0,1,.594.8l-2.861,2.706,2.27-1.311a.5.5,0,0,1,.569.819l-1.311,1.08.743-.429a.5.5,0,0,1,.586.8l-2.482,2.249,1.9-1.1a.5.5,0,0,1,.571.816l-1.491,1.244.922-.533a.5.5,0,0,1,.593.8L13.5,27.278l2.24-1.293a.5.5,0,0,1,.582.807l-2.28,2.024,1.7-.981a.5.5,0,0,1,.611.778l-2.1,2.193,1.491-.861a.5.5,0,0,1,.679.69l-.578.966a.5.5,0,0,1,.4.909l-1.56.9a.5.5,0,0,1-.678-.689l.566-.946-2.858,1.651A.489.489,0,0,1,11.469,33.493Z" fill="#9ebbce"/><path d="M39.692,30.968a.5.5,0,0,1-.385-.819l.773-.934-2.32,1.339a.5.5,0,0,1-.6-.794l2.9-2.778-5.346,3.087a.5.5,0,0,1-.547-.835l2.2-1.628-3.7,2.137a.5.5,0,0,1-.541-.84l3.1-2.211-4.7,2.711a.5.5,0,0,1-.53-.846L32.005,27.2l-3.313,1.912a.5.5,0,0,1-.544-.837l7.736-5.608L25.577,28.615a.5.5,0,0,1-.52-.852l1.351-.871L24.2,28.166a.5.5,0,0,1-.523-.851l5.111-3.347-5.189,3a.5.5,0,0,1-.52-.854l2.078-1.33-1.978,1.143a.5.5,0,0,1-.521-.853l3.681-2.37L22.8,24.741a.5.5,0,0,1-.526-.849l7.477-4.94-7.281,4.2a.5.5,0,0,1-.531-.846l8.494-5.743-8.14,4.7a.5.5,0,0,1-.529-.848l5.839-3.926L22.28,19.567a.5.5,0,0,1-.528-.847l3.69-2.476L22.28,18.069a.5.5,0,0,1-.537-.841l4.631-3.25L22.28,16.341a.5.5,0,0,1-.55-.833l4.937-3.695L22.28,14.346a.5.5,0,0,1-.569-.818l2.4-2L22.28,12.592a.5.5,0,0,1-.684-.68l.856-1.5a.5.5,0,0,1-.467-.883l1.563-.9a.5.5,0,0,1,.684.68l-.854,1.5L28.719,7.72a.5.5,0,0,1,.569.817l-2.405,2,6.559-3.787a.5.5,0,0,1,.55.833l-4.937,3.7,6.621-3.822a.5.5,0,0,1,.537.842l-4.628,3.248,6.236-3.6a.5.5,0,0,1,.529.848l-3.694,2.478L39.8,8.3a.5.5,0,0,1,.529.847l-5.838,3.924,7.661-4.423a.5.5,0,0,1,.531.847l-8.5,5.745,9.448-5.454a.5.5,0,0,1,.525.85l-7.473,4.937,7.039-4.063a.5.5,0,0,1,.52.852l-3.677,2.368,3.157-1.822a.5.5,0,0,1,.519.854L42.15,15.1l1.57-.906a.5.5,0,0,1,.523.851l-5.105,3.344,4.582-2.646a.5.5,0,0,1,.52.853l-1.364.879.844-.487a.5.5,0,0,1,.544.838l-7.733,5.607,7.189-4.151a.5.5,0,0,1,.53.847l-2.007,1.356,1.454-.838a.5.5,0,0,1,.541.839l-3.1,2.213,2.383-1.375a.5.5,0,0,1,.546.835l-2.2,1.625,1.27-.732a.5.5,0,0,1,.595.794l-2.9,2.777,1.147-.662a.5.5,0,0,1,.636.751l-1.663,2.011.008.011a.5.5,0,0,1-.184.684l-.84.484A.5.5,0,0,1,39.692,30.968Z" fill="#e1efff"/><path d="M34.5,28.987a.5.5,0,0,1-.341-.866l1.656-1.542L32.139,28.7a.5.5,0,0,1-.555-.829l1.947-1.5-3.7,2.135a.5.5,0,0,1-.557-.828l4.595-3.565L28.361,27.3a.5.5,0,0,1-.55-.832l5.307-4-5.684,3.281a.5.5,0,0,1-.541-.839l4.456-3.189-4.5,2.595a.5.5,0,0,1-.538-.841l4.159-2.921-3.994,2.3a.5.5,0,0,1-.541-.839l4.99-3.565L26.294,21.13a.5.5,0,0,1-.537-.842l2.551-1.79-2.028,1.17a.5.5,0,0,1-.568-.818l4.4-3.634L26.28,17.428a.5.5,0,0,1-.557-.826l1.671-1.308-1.114.643a.5.5,0,0,1-.7-.643l.709-1.534a.5.5,0,0,1-.453-.89l1.316-.76a.5.5,0,0,1,.705.643l-.707,1.529,5.92-3.418a.5.5,0,0,1,.558.826L31.951,13,34.8,11.357a.5.5,0,0,1,.568.819l-4.4,3.635,6.644-3.836a.5.5,0,0,1,.538.841l-2.553,1.792,3.777-2.18a.5.5,0,0,1,.541.84l-4.989,3.563,4.8-2.769a.5.5,0,0,1,.537.841L36.1,17.82l3.616-2.087a.5.5,0,0,1,.541.839L35.8,19.763,39.72,17.5a.5.5,0,0,1,.551.832l-5.306,4,4.755-2.745a.5.5,0,0,1,.556.828l-4.593,3.564,3.883-2.243a.5.5,0,0,1,.555.83l-1.949,1.5.953-.55a.5.5,0,0,1,.591.8L38.052,25.86a.5.5,0,0,1,.456.889l-3.76,2.171A.489.489,0,0,1,34.5,28.987Z" fill="#e8bc5b"/><path d="M39.782,56.452a.5.5,0,0,1-.4-.8l.7-.9-1.86,1.074a.5.5,0,1,1-.5-.865l4.047-2.337a.5.5,0,0,1,.646.738l-.788,1.023a.57.57,0,0,1,.452.25.5.5,0,0,1-.182.683l-1.864,1.075A.489.489,0,0,1,39.782,56.452Z" fill="#916243"/><path d="M42.6,52.923a.5.5,0,0,1-.368-.839l.8-.862-1.469.847a.5.5,0,1,1-.5-.865l4.312-2.489a.5.5,0,0,1,.617.771l-.794.862.3-.173a.5.5,0,1,1,.5.865l-3.143,1.815A.493.493,0,0,1,42.6,52.923Z" fill="#916243"/><path d="M45.7,48.4a.5.5,0,0,1-.375-.831l.21-.237-1.094.631a.5.5,0,0,1-.5-.865l3.741-2.159a.5.5,0,0,1,.625.763l-.595.674a.5.5,0,0,1,.07.9l-1.832,1.058A.489.489,0,0,1,45.7,48.4Z" fill="#916243"/><path d="M36.562,59.316a.5.5,0,0,1-.424-.765l.688-1.1-1.76,1.016a.5.5,0,0,1-.588-.8l3.346-3.092-4.513,2.606a.5.5,0,0,1-.548-.834l4.719-3.5L31.84,56.1a.5.5,0,0,1-.53-.846l4.473-3.022-5.368,3.1a.5.5,0,0,1-.538-.842l7.4-5.206-8.736,5.044a.5.5,0,0,1-.535-.844l7.168-4.977-8.421,4.861a.5.5,0,0,1-.524-.85l2.83-1.853-3.539,2.043a.5.5,0,0,1-.539-.841l8.665-6.143L23.466,51.605a.5.5,0,0,1-.534-.843L30.8,45.321l-9.177,5.3a.5.5,0,0,1-.534-.844l8.278-5.727-9.63,5.559a.5.5,0,0,1-.519-.853l.61-.39-1.16.669a.5.5,0,0,1-.532-.845l8.248-5.646-9.545,5.51a.5.5,0,0,1-.524-.852l4.3-2.8L15.52,47.342a.5.5,0,0,1-.531-.847l7.969-5.383-9.033,5.215a.5.5,0,0,1-.523-.851l4.582-2.983-5.639,3.255a.5.5,0,0,1-.532-.846l9.221-6.281L9.409,45.332a.5.5,0,0,1-.528-.849l9.27-6.2L6.258,45.146a.5.5,0,0,1-.516-.856l.566-.353-.137.078a.5.5,0,0,1-.52-.854l5.186-3.326L6.062,42.591a.5.5,0,0,1-.524-.851l6.448-4.223L5.939,41.008a.5.5,0,0,1-.523-.852l3.715-2.42-3.3,1.9a.5.5,0,0,1-.524-.851l2.206-1.447-1.78,1.026a.5.5,0,0,1-.552-.83l1.537-1.173-1.09.629A.5.5,0,0,1,5,36.231l1.977-2.265-1.515.875a.5.5,0,0,1-.746-.5l.207-1.552a.5.5,0,0,1-.123-.916l.478-.276a.5.5,0,0,1,.746.5l-.182,1.371L9.085,31.6a.5.5,0,0,1,.627.761L7.734,34.624,12.978,31.6a.5.5,0,0,1,.553.83L11.994,33.6l10.163-5.868a.5.5,0,0,1,.525.851l-2.214,1.453,4.2-2.426a.5.5,0,0,1,.523.852l-3.707,2.415L26.9,27.752a.5.5,0,0,1,.524.851L20.969,32.83l7.863-4.539a.5.5,0,0,1,.52.854l-5.177,3.321,5.718-3.3a.5.5,0,0,1,.515.856l-.574.36.9-.521a.5.5,0,0,1,.529.849L22,36.911l10.171-5.872a.5.5,0,0,1,.531.846l-9.222,6.282,10.2-5.887a.5.5,0,0,1,.522.852l-4.573,2.977,5.115-2.953a.5.5,0,0,1,.531.847L27.3,39.389,36.119,34.3a.5.5,0,0,1,.524.851l-4.3,2.8,4.825-2.785a.5.5,0,0,1,.532.845l-8.246,5.645,9.167-5.292a.5.5,0,0,1,.52.854l-.605.387.936-.54a.5.5,0,0,1,.534.843l-8.281,5.729L40.975,38.3a.5.5,0,0,1,.534.844l-7.872,5.44,8.8-5.08a.5.5,0,0,1,.539.841l-8.665,6.143,9.762-5.635a.5.5,0,0,1,.524.85l-2.835,1.856,3.291-1.9a.5.5,0,0,1,.535.844l-7.163,4.974,8.049-4.647a.5.5,0,0,1,.538.842l-7.4,5.2,7.957-4.594a.5.5,0,0,1,.531.847l-4.478,3.024.916-.528a.5.5,0,0,1,.548.834l-4.722,3.5.845-.487a.5.5,0,0,1,.589.8l-3.513,3.245a.508.508,0,0,1,.4.152.5.5,0,0,1,.063.612l-.7,1.112a.5.5,0,0,1,.426.9l-1.659.958A.494.494,0,0,1,36.562,59.316Z" fill="#916243"/><path d="M47.784,44.875A.5.5,0,0,1,47.449,44l3.123-2.82-3.9,2.253a.5.5,0,0,1-.558-.827L48.6,40.666,45.37,42.531a.5.5,0,0,1-.542-.838l1.486-1.071L44.3,41.785a.5.5,0,0,1-.559-.826l5.229-4.1-6.422,3.707a.5.5,0,0,1-.531-.845l1.521-1.037-2.019,1.166a.5.5,0,0,1-.535-.844l2.088-1.444-2.646,1.527a.5.5,0,0,1-.537-.842l1.668-1.172-2.2,1.27a.5.5,0,0,1-.543-.838l1.676-1.213-2.23,1.287a.5.5,0,0,1-.544-.837l.785-.572-1.238.715a.5.5,0,0,1-.6-.794l2.676-2.566-3.776,2.179a.5.5,0,0,1-.607-.782l2.091-2.139-3.106,1.792a.5.5,0,0,1-.591-.8l1.525-1.428L32.53,33.7a.5.5,0,0,1-.5-.865l6.108-3.526a.5.5,0,0,1,.591.8L37.2,31.54l2.5-1.44a.5.5,0,0,1,.608.782l-2.091,2.139,4.2-2.426a.5.5,0,0,1,.6.794L40.34,33.955l5.836-3.369a.5.5,0,0,1,.544.837l-.78.567,2.444-1.41a.5.5,0,0,1,.543.838l-1.676,1.214,3.563-2.058a.5.5,0,0,1,.538.842l-1.668,1.172,3.5-2.02a.5.5,0,0,1,.534.844l-2.1,1.45L54.681,31.1a.5.5,0,0,1,.531.845l-1.521,1.037.887-.512a.5.5,0,0,1,.559.826l-5.229,4.1L54.4,34.8a.5.5,0,0,1,.542.838l-1.485,1.07.837-.482a.5.5,0,0,1,.557.826l-2.485,1.942,1.8-1.038a.5.5,0,0,1,.585.8L51.626,41.58,54,40.211a.5.5,0,0,1,.6.794l-.608.581a.5.5,0,0,1,.473.089.5.5,0,0,1,.156.548l-.344,1.011a.5.5,0,0,1,0,.867l-.529.3a.5.5,0,0,1-.723-.593l.222-.654L50.924,44.5a.5.5,0,0,1-.6-.794l.577-.553-2.871,1.658A.489.489,0,0,1,47.784,44.875Z" fill="#daab94"/><path d="M24.734,39.462a.5.5,0,0,1-.31-.892l.126-.1-1.015.586A.5.5,0,0,1,23,38.213l3.992-2.777-4.429,2.556a.5.5,0,0,1-.543-.837l5.219-3.793-4.834,2.79a.5.5,0,0,1-.551-.832l4.707-3.55-.856.493a.5.5,0,0,1-.57-.817l2.976-2.483a.517.517,0,0,1-.054-.078.5.5,0,0,1,.182-.683l2.583-1.491a.5.5,0,0,1,.571.816l-1.156.965L33.1,26.837a.5.5,0,0,1,.55.832l-4.708,3.553,6.046-3.491a.5.5,0,0,1,.544.837L30.318,32.36l6.462-3.73a.5.5,0,0,1,.535.843l-6.821,4.745a.491.491,0,0,1,.125.128.5.5,0,0,1-.1.673l-3.193,2.529a.5.5,0,0,1-.214.62L24.984,39.4A.5.5,0,0,1,24.734,39.462Z" fill="#daab94"/><path d="M4.755,47.47a.5.5,0,0,1-.444-.729l.438-.855-2.606,1.5a.5.5,0,0,1-.622-.769l1.94-2.142L1.28,45.739a.5.5,0,0,1-.575-.812l.806-.689-.231.133a.5.5,0,0,1-.6-.79l2.1-2.058-1.5.869a.5.5,0,0,1-.589-.8l1.631-1.5-1.042.6a.5.5,0,0,1-.6-.792l1.988-1.915-1.392.8a.5.5,0,0,1-.567-.819l.385-.316a.489.489,0,0,1-.468-.2.5.5,0,0,1,.056-.661L2.568,35l-1.288.743a.5.5,0,0,1-.586-.8l1.437-1.3-.851.491A.5.5,0,0,1,.7,33.329l.5-.445a.5.5,0,0,1-.51-.11.5.5,0,0,1-.1-.589l.5-.984h0a.5.5,0,0,1-.25-.933L2,29.6a.5.5,0,0,1,.695.661l-.447.876L4.88,29.612a.5.5,0,0,1,.583.806L5,30.835l.708-.408a.5.5,0,0,1,.586.8l-1.436,1.3.867-.5a.5.5,0,0,1,.594.795L4.43,34.614l1.29-.744a.5.5,0,0,1,.567.819l-.385.316a.486.486,0,0,1,.467.194.5.5,0,0,1-.053.661L4.33,37.772l1.39-.8a.5.5,0,0,1,.589.8l-1.631,1.5,1.042-.6a.5.5,0,0,1,.6.79l-2.1,2.057,1.5-.868a.5.5,0,0,1,.575.813l-.806.688.231-.133a.5.5,0,0,1,.621.769L4.4,44.932l1.319-.761a.5.5,0,0,1,.694.661l-.5.968a.5.5,0,0,1,.248.932l-1.161.67A.49.49,0,0,1,4.755,47.47Z" fill="#818cff"/><path d="M20.913,46.787a.5.5,0,0,1-.25-.933l1.852-1.068a.5.5,0,0,1,.5.865L21.163,46.72A.494.494,0,0,1,20.913,46.787Z" fill="#daab94"/><path d="M28.445,59.463a.5.5,0,0,1-.372-.834l1.241-1.386-2.269,1.31a.5.5,0,0,1-.585-.8l1.822-1.643L26.739,57a.5.5,0,0,1-.578-.81l1-.873L24.249,57a.5.5,0,0,1-.589-.8l1.693-1.556-2.345,1.353a.5.5,0,0,1-.576-.811l2.172-1.87-1.97,1.137a.5.5,0,0,1-.6-.786l2.511-2.509-5.125,2.958a.5.5,0,0,1-.564-.821l1.017-.824-1.245.718a.5.5,0,0,1-.55-.833l.335-.251-.055.031a.5.5,0,0,1-.558-.826l1.365-1.074-2.924,1.688a.5.5,0,0,1-.543-.838l.339-.245L15,51.432a.5.5,0,0,1-.587-.8l2.451-2.239-2.759,1.592a.5.5,0,0,1-.578-.809l2.179-1.9-1.14.658a.5.5,0,0,1-.619-.77l1.943-2.131a.493.493,0,0,1-.228-.206.5.5,0,0,1,.183-.683l1.872-1.081a.5.5,0,0,1,.619.77L16.859,45.46,19.7,43.822a.5.5,0,0,1,.578.81l-2.178,1.9,2.258-1.3a.5.5,0,0,1,.586.8l-2.452,2.24,5.455-3.149a.5.5,0,0,1,.543.838l-.338.244.572-.329a.5.5,0,0,1,.558.825L23.913,47.77l1.219-.7a.5.5,0,0,1,.55.833l-.63.472a.516.516,0,0,1,.462.215.5.5,0,0,1-.1.672l-1.018.825,2.936-1.694a.5.5,0,0,1,.6.786l-2.509,2.509,3.293-1.9a.5.5,0,0,1,.576.812l-2.175,1.871,1.649-.951a.5.5,0,0,1,.589.8l-1.69,1.555,3.5-2.019a.5.5,0,0,1,.578.81l-1,.872,1.152-.664a.5.5,0,0,1,.585.8l-1.822,1.641.868-.5a.5.5,0,0,1,.622.766l-1.785,1.993a.486.486,0,0,1,.179.181.5.5,0,0,1-.183.683L28.7,59.4A.5.5,0,0,1,28.445,59.463Z" fill="#daab94"/><path d="M57.755,46.47a.5.5,0,0,1-.455-.706l.572-1.266-3.085,1.781a.5.5,0,0,1-.615-.774l2.136-2.284L54.28,44.392a.5.5,0,0,1-.6-.789l2.129-2.09L54.28,42.4a.5.5,0,0,1-.583-.806l1.312-1.17-.729.42a.5.5,0,0,1-.59-.8l1.7-1.575L54.28,39.1a.5.5,0,0,1-.589-.8l1.627-1.5-1.038.6a.5.5,0,0,1-.587-.8l1.528-1.394-.941.543a.5.5,0,0,1-.583-.806l1.316-1.174-.733.422a.5.5,0,0,1-.622-.766l2.117-2.361-1.495.863a.5.5,0,0,1-.7-.655l.529-1.072a.5.5,0,0,1-.462-.249.5.5,0,0,1,.184-.683L55,28.6a.5.5,0,0,1,.7.655l-.486.984,2.783-1.606a.5.5,0,0,1,.622.766L56.5,31.757l2.223-1.283a.5.5,0,0,1,.583.8l-1.319,1.177.736-.424a.5.5,0,0,1,.587.8l-1.526,1.392.939-.542a.5.5,0,0,1,.589.8l-1.627,1.5,1.038-.6a.5.5,0,0,1,.59.8l-1.7,1.577,1.108-.639a.5.5,0,0,1,.583.806L57.991,39.1l.729-.42a.5.5,0,0,1,.6.789l-2.128,2.089,1.528-.882a.5.5,0,0,1,.615.774L57.2,43.732l1.521-.878a.5.5,0,0,1,.7.639l-.595,1.314a.506.506,0,0,1,.519.243.5.5,0,0,1-.183.682l-1.161.67A.5.5,0,0,1,57.755,46.47Z" fill="#818cff"/><path d="M.545,43.979c-.017,1.458-.321,3.143,1.4,3.594,1.939.136,4.388.461,4.612-2.033,2.465-.214,5.413-.094,7.471,1.321-2,2.837.365,6.357,3.479,4.8a3.07,3.07,0,0,0,4.418,2.609c0,2.015,1.9,3.835,4.079,2.728,0,1.861,1.894,3.449,3.768,2.082a11.508,11.508,0,0,0,1.893-2.707c1.122.818,2.244,1.653,3.367,2.459,1.742,1.275,4.585-.259,4.021-2.459,2,.473,4.13-1.459,3.533-3.478,2.59.858,5.018-2.364,3.261-4.544A2.9,2.9,0,0,0,48.483,44.8a33.415,33.415,0,0,1,4.989-.338,2.032,2.032,0,0,0,1.124,2c5.393,1.025,5.3-1.38,4.89-5.825V32.022c0-1.495.358-2.914-1.255-3.567-1.568-.506-4.931-.264-4.815,2.1H50.6C49.27-.385,58.041-.826,30.5.55H13.882A3.456,3.456,0,0,0,9.549,3.9V31.606c-1.009-.006-2.037-.04-3.087-.05A1.968,1.968,0,0,0,5.107,29.41C.135,28.174.125,31.642.545,35.366ZM14.431,49.7c-.52-1.78,1.183-3.358,1.962-4.816,1.2-1.683,4.073-.645,3.7,1.444a34.688,34.688,0,0,0-2.332,4.064A2.077,2.077,0,0,1,14.431,49.7Zm4.545.787c.793-1.287,1.552-2.6,2.35-3.88,1.583-2.17,4.2-.165,3.3,2-.682,1.425-1.675,2.732-2.463,4.1C20.441,55.075,17.941,52.65,18.976,50.489Zm6.117,5.639A2.013,2.013,0,0,1,23,53.4c1.168-1.244,1.494-3.425,3.111-4.138a2.065,2.065,0,0,1,2.311,3C27.147,53.413,27.047,55.858,25.093,56.128Zm4.416,1.853A1.531,1.531,0,0,1,27.1,56.172,17.473,17.473,0,0,0,29,53.077c1.656-1.525,3.779.41,2.292,2.258-.273.092-.456.291-.309.505A23.29,23.29,0,0,1,29.509,57.981Zm25.7-28.416a4.433,4.433,0,0,1,2.88.276c.8.65.427,2.342.427,3.367v6.335c.019,2.975,1.418,6.8-3.283,5.894a1.427,1.427,0,0,1-.781-1.107.415.415,0,0,0-.057-.6c.254-4.2-.012-8.209-.017-12.41a.413.413,0,0,0,.095-.587C54.686,29.965,54.21,29.994,55.207,29.565Zm-1.693,4.5c-.02,3.16.04,6.32-.026,9.479a36.087,36.087,0,0,0-5.388.361A128,128,0,0,0,34.045,33.826c-3.494-2.109-5.6,1.755-8.2,4.161a1.855,1.855,0,0,1-2.883-.324A2.286,2.286,0,0,1,23.151,35c1.823-1.92,3.575-4.4,5.684-5.986,2.743-2.068,4.948-1.22,7.161,0a.405.405,0,0,0,.44.246c4.833,3.489,11.238,2.386,16.936,2.193C53.381,32.426,53.514,33.424,53.514,34.069ZM24.576,27.693c-2.3-4.548-1.992-9.089-1.992-14,0-2.863-.09-3.49,3.191-4.5C28.6,8.326,32.3,7.644,35.143,8.16c1.744.318,7.35.756,8.273,2.787.147,6.462.674,13.381-3.418,18.907a28.03,28.03,0,0,1-2.816-1.3c3.067-3.429,3.271-7.33,3.271-11.826,0-1.11.364-2.964-.287-4-1.348-1.443-4.994-1.84-6.893-2.062-1.5-.066-3.243.72-4.715,1.015-.8.162-2.076.136-2.661.842-.7.844-.35,2.741-.35,3.684,0,4.341.061,8.133,2.722,11.659A20.371,20.371,0,0,0,24.576,27.693Zm10.731-.062A6.494,6.494,0,0,0,29.3,27.6c-3.4-4.013-2.93-9.032-2.847-13.816.928-1.544,6.429-1.934,7.91-1.6,1.683.377,4.623.5,5.185,2.03.213,4.844.313,10.1-3.386,13.835C35.882,27.9,35.6,27.766,35.307,27.631ZM27.506,1.45C57.391-.123,48.054.7,49.4,30.551c-2.752-.118-5.745.325-8.406-.372,3.8-5.012,3.59-10.424,3.59-16.484.335-3.853-.015-5.313-4.2-5.441-2.176-.36-4.408-1.343-6.549-1.592a6.654,6.654,0,0,0-2.773.447c-2.213.5-5.474.69-7.6,1.5-4.456,1.048-1.936,16.226-.162,19.2a19.392,19.392,0,0,0-6.855,2.385V4.1A3.926,3.926,0,0,0,15.384,1.45ZM15.549,4.028V30.613a13.05,13.05,0,0,1-5.1.985V4.1C10.621.921,15.346.818,15.549,4.028ZM9.984,32.54a.363.363,0,0,0,.228,0c1.876,0,4.264.124,5.772-.871a.321.321,0,0,0,.439-.259c3.727-2.3,6.953-3.242,11.208-2.72-1.944,1.56-3.645,3.852-5.482,5.786-2.5,3.117,1.959,6.709,4.7,4.036,1.245-1.156,3.168-3.875,4.738-4.4,1.353-.453,2.717,1.092,3.947,1.948l11,7.658c1.991,1.611.049,4.806-2.229,3.335-.927-.867-2.077-1.528-3.08-2.322-.559-.409-.91.7-.452,1.038,1.056.719,2.045,1.6,3.14,2.236,2.2,1.191,1.429,4.75-1.27,3.973-1.607-.99-3.076-2.24-4.636-3.326-.506-.371-1.327.234-.7.7,1.1.817,2.225,1.612,3.313,2.44,2.122,1.719-.275,5.052-2.429,3.189-.392-.658-1.275-.943-1.842-1.461-.486-.351-1.2.617-.708.968.634.441,1.273.942,1.914,1.343.938,1.227-.3,3.265-1.838,2.294l-3.55-2.6c1.391-1.924-.222-4.969-2.6-4.066.2-2-1.4-3.977-3.629-3.263a3.052,3.052,0,0,0-4.836-2.863c-.9-3.884-5.244-2.429-6.475.534-2.168-1.574-5.357-1.733-8-1.506-.271-4.05-.154-7.878-.173-11.9C7.62,32.471,8.8,32.516,9.984,32.54Zm-8.529-.894c.22-.834-.3-.636.94-1.055.989-.209,3.142-.32,3.189,1.109a.4.4,0,0,0,.054.651c-.247,4.223-.028,7.981.083,12.241a.816.816,0,0,0-.131.738c-.344,1.461-2.019,1.126-3.426,1.085-1.193-.57-.709-2.517-.709-3.624C1.642,39.123,1.119,35.275,1.455,31.646Z" fill="#262626"/><path d="M34.717,17.6l-2.708,3.61-.725-.725c-.439-.439-.972.632-.568,1.036l1,1c.157.157.455.034.567-.115l3-4C35.649,17.915,35.187,16.97,34.717,17.6Z" fill="#262626"/></svg>
