<?xml version="1.0" encoding="UTF-8"?>
<svg xmlns="http://www.w3.org/2000/svg" id="icons" viewBox="0 0 60 60" width="512" height="512"><polygon points="11.02 23.88 5.32 41.97 9 43.93 14.98 27.75 11.02 23.88" fill="#e8c069"/><path d="M25.53,34.33,11.98,25.88a2.1,2.1,0,0,1-.71-2.8,2.158,2.158,0,0,1,2.78-.86L34,32Z" fill="#cea75a"/><path d="M38,37H53a2,2,0,0,1,2,2v8a2,2,0,0,1-2,2H45v1H38Z" fill="#cea75a"/><path d="M25,50a37.839,37.839,0,0,1-1-8,16.456,16.456,0,0,1,2.3-9.083A2.008,2.008,0,0,1,27.982,32H37a2,2,0,0,1,2,2V50Z" fill="#e8c069"/><path d="M30,1A26.7,26.7,0,0,1,46.267,6.2C50.43,9.421,53,13.865,53,18.774v.146c0,.5-.744.8-1.263.492A11.729,11.729,0,0,0,45.862,18a11.475,11.475,0,0,0-6.631,1.814.944.944,0,0,1-1.064.042C36.733,18.892,33.614,18,30,18s-6.733.892-8.167,1.856a.944.944,0,0,1-1.064-.042A11.475,11.475,0,0,0,14.138,18a11.729,11.729,0,0,0-5.875,1.412c-.519.3-1.263.011-1.263-.492v-.146C7,13.865,9.57,9.421,13.733,6.2A26.7,26.7,0,0,1,30,1Z" fill="#8e98ff"/><path d="M39,18.77v1.16a.933.933,0,0,1-.83-.07C36.73,18.89,33.61,18,30,18s-6.73.89-8.17,1.86a.933.933,0,0,1-.83.07V18.77C21,8.96,25.03,1,30,1c2.48,0,4.74,1.99,6.36,5.21A28.432,28.432,0,0,1,39,18.77Z" fill="#6a7bd3"/><rect x="18" y="49" width="32" height="10" rx="5" fill="#666e8e"/><path d="M15,46.44v1.319A5.182,5.182,0,0,1,9.818,53,4.984,4.984,0,0,1,5,48V43.143a2.142,2.142,0,0,1,1.082-1.908A2,2,0,0,1,9,43v.932A3.035,3.035,0,0,0,11.94,47H12a3.109,3.109,0,0,0,2.248-.875A.441.441,0,0,1,15,46.44Z" fill="#666e8e"/><path d="M32,32V43a2.006,2.006,0,0,1-2,2H24.17A29.167,29.167,0,0,1,24,42a16.424,16.424,0,0,1,2.3-9.08A2.006,2.006,0,0,1,27.98,32Z" fill="#f2e8d9"/><circle cx="23" cy="54" r="5" fill="#4a526d"/><circle cx="45" cy="54" r="5" fill="#4a526d"/><path d="M14.5,21.325a3.148,3.148,0,0,0-4.1,1.266,3.042,3.042,0,0,0-.36,1.08L4.4,41.568A3.293,3.293,0,0,0,4,43.143V48a6.054,6.054,0,0,0,5.783,6,5.856,5.856,0,0,0,4.269-1.673A6.378,6.378,0,0,0,16,47.759V46.44a1.441,1.441,0,0,0-2.45-1.031,2.179,2.179,0,0,1-1.6.591,2.015,2.015,0,0,1-1.937-1.929l5.479-14.822,8.777,5.473A19.745,19.745,0,0,0,23,42a26.661,26.661,0,0,0,.693,6H23a6,6,0,0,0,0,12H45a5.99,5.99,0,0,0,4.46-10H53a3,3,0,0,0,3-3V39a3,3,0,0,0-3-3H40V34a3,3,0,0,0-3-3H34.231L31,29.416V19.03a14.47,14.47,0,0,1,6.61,1.656,1.948,1.948,0,0,0,2.244-.089A10.594,10.594,0,0,1,45.862,19a10.7,10.7,0,0,1,5.368,1.274,1.971,1.971,0,0,0,1.947.007A1.57,1.57,0,0,0,54,18.92v-.146c0-5.068-2.529-9.813-7.122-13.362A27.635,27.635,0,0,0,30,0,27.635,27.635,0,0,0,13.122,5.412a1,1,0,1,0,1.223,1.582A24.3,24.3,0,0,1,25,2.449c-2.928,3.113-4.885,8.917-4.989,15.753A14.309,14.309,0,0,0,14.138,17a12.7,12.7,0,0,0-6.133,1.415,14.117,14.117,0,0,1,3.744-9,1,1,0,0,0-1.5-1.326A16.024,16.024,0,0,0,6,18.774v.146a1.57,1.57,0,0,0,.823,1.361,1.973,1.973,0,0,0,1.947-.007A10.7,10.7,0,0,1,14.138,19a10.594,10.594,0,0,1,6.008,1.6,1.945,1.945,0,0,0,2.245.089A14.461,14.461,0,0,1,29,19.03v9.4ZM52,18.409A12.834,12.834,0,0,0,45.862,17a14.324,14.324,0,0,0-5.876,1.2,29.069,29.069,0,0,0-2.732-12.44A14.118,14.118,0,0,0,35,2.451,24.3,24.3,0,0,1,45.655,6.994C49.635,10.069,51.875,14.11,52,18.409ZM22,18.607C22.048,9.589,25.689,2,30,2c1.984,0,3.978,1.7,5.469,4.663A27.294,27.294,0,0,1,38,18.607,18.81,18.81,0,0,0,30,17,18.81,18.81,0,0,0,22,18.607ZM12,48a4.285,4.285,0,0,0,2-.472v.231A4.246,4.246,0,0,1,9.855,52,4.058,4.058,0,0,1,6,48V43.143A1.087,1.087,0,0,1,7,42a1.041,1.041,0,0,1,1,1v.932A4.046,4.046,0,0,0,12,48ZM9.068,40.863a3.1,3.1,0,0,0-.552-.437,2.918,2.918,0,0,0-1.53-.413l4.24-13.46c.076.058.143.123.225.176l2.309,1.439ZM25,42a15.5,15.5,0,0,1,2.136-8.536A1.013,1.013,0,0,1,27.982,33H31V43a1,1,0,0,1-1,1H25.085C25.032,43.373,25,42.7,25,42Zm14,8h1.54a5.965,5.965,0,0,0,0,8H27.46a5.965,5.965,0,0,0,0-8ZM19,54a4,4,0,1,1,4,4A4,4,0,0,1,19,54Zm30,0a4,4,0,1,1-4-4A4,4,0,0,1,49,54Zm4-16a1,1,0,0,1,1,1v8a1,1,0,0,1-1,1H40V38ZM38,34V48H25.754c-.12-.465-.278-1.15-.419-2H30a3,3,0,0,0,3-3V33h4A1,1,0,0,1,38,34ZM27.982,31a3,3,0,0,0-2.521,1.371c-.1.155-.211.339-.324.535L12.519,25.037a1.1,1.1,0,0,1-.377-1.467,1.17,1.17,0,0,1,1.467-.453L29.689,31Z" fill="#373737"/><path d="M32,55h4a1,1,0,0,0,0-2H32a1,1,0,0,0,0,2Z" fill="#373737"/><path d="M43,42h2a1,1,0,0,0,0-2H43a1,1,0,0,0,0,2Z" fill="#373737"/><path d="M43,46h2a1,1,0,0,0,0-2H43a1,1,0,0,0,0,2Z" fill="#373737"/><path d="M49,42h2a1,1,0,0,0,0-2H49a1,1,0,0,0,0,2Z" fill="#373737"/><path d="M49,46h2a1,1,0,0,0,0-2H49a1,1,0,0,0,0,2Z" fill="#373737"/><path d="M24,53H22a1,1,0,0,0,0,2h2a1,1,0,0,0,0-2Z" fill="#373737"/><path d="M44,55h2a1,1,0,0,0,0-2H44a1,1,0,0,0,0,2Z" fill="#373737"/></svg>
