<?xml version="1.0" encoding="UTF-8"?>
<svg xmlns="http://www.w3.org/2000/svg" id="icons" viewBox="0 0 60 60" width="512" height="512"><circle cx="28" cy="28" r="27" fill="#8e98ff"/><path d="M46.8,58.834l1.38-.6A18,18,0,0,0,59,41.727V30.417a1.992,1.992,0,0,0-1.735-1.982c-2.623-.341-7.6-1.1-10.528-2.29a1.949,1.949,0,0,0-1.474,0c-2.926,1.187-7.905,1.949-10.528,2.29A1.992,1.992,0,0,0,33,30.417v11.31A18,18,0,0,0,43.823,58.234l1.38.6A2,2,0,0,0,46.8,58.834Z" fill="#e4f1ff"/><path d="M45.416,54.566A14.015,14.015,0,0,1,37,41.718V33.39a1.433,1.433,0,0,1,1.2-1.417A49.918,49.918,0,0,0,45.554,30.3a1.407,1.407,0,0,1,.893,0A49.973,49.973,0,0,0,53.8,31.973,1.432,1.432,0,0,1,55,33.39v8.337a14,14,0,0,1-8.427,12.844h0a1.443,1.443,0,0,1-1.147,0Z" fill="#e8c069"/><path d="M57.394,27.442a49.672,49.672,0,0,1-10.283-2.224,2.939,2.939,0,0,0-2.223,0,19.3,19.3,0,0,1-1.9.63,64.552,64.552,0,0,0-1.257-11.864c2.43-.37,4.806-.849,7.129-1.419a25.649,25.649,0,0,1,4.86,11.581,1,1,0,1,0,1.978-.292A28,28,0,1,0,28,56a27.81,27.81,0,0,0,8.951-1.491,18.968,18.968,0,0,0,6.473,4.642A6.724,6.724,0,0,0,46,60a6.792,6.792,0,0,0,2.576-.849A18.991,18.991,0,0,0,60,41.728V30.417A3.006,3.006,0,0,0,57.394,27.442Zm-16.4-1.087c-1.135.253-2.295.465-3.385.645H29V14.985a91.394,91.394,0,0,0,10.746-.73A62.742,62.742,0,0,1,40.992,26.355ZM32,30.417V41.1q-1.521-.068-3-.084V29h3.369A2.971,2.971,0,0,0,32,30.417ZM29,2.046a25.643,25.643,0,0,1,6.837,1.206A36.131,36.131,0,0,1,39.3,12.3a89.619,89.619,0,0,1-10.3.688ZM27,12.985A89.825,89.825,0,0,1,16.7,12.3a36.077,36.077,0,0,1,3.494-9.1A25.86,25.86,0,0,1,27,2.025Zm0,2V27H15a63.086,63.086,0,0,1,1.255-12.745A91.59,91.59,0,0,0,27,14.985ZM13,27H2.025A25.853,25.853,0,0,1,7.1,12.555c2.337.575,4.727,1.057,7.172,1.429A65.186,65.186,0,0,0,13,27Zm.031,2a62.61,62.61,0,0,0,1.694,12.954q-3.9.573-7.625,1.491A25.853,25.853,0,0,1,2.025,29Zm2,0H27V41.015a91.928,91.928,0,0,0-10.293.668A60.551,60.551,0,0,1,15.03,29ZM27,43.015v10.96a25.953,25.953,0,0,1-5.175-.722,28.978,28.978,0,0,1-4.591-9.621A89.9,89.9,0,0,1,27,43.015ZM47.456,10.843c-2.016.468-4.071.867-6.168,1.183a41.634,41.634,0,0,0-2.64-7.693A26.36,26.36,0,0,1,47.456,10.843ZM17.376,4.279a41.572,41.572,0,0,0-2.664,7.747c-2.113-.318-4.183-.721-6.214-1.194A26.131,26.131,0,0,1,17.376,4.279ZM8.5,45.168q3.3-.768,6.745-1.267a35.553,35.553,0,0,0,3.5,8.39A26.088,26.088,0,0,1,8.5,45.168ZM29,53.957V43.014q1.5.018,3.052.087A18.974,18.974,0,0,0,35.6,52.842,25.85,25.85,0,0,1,29,53.957ZM58,41.728A16.994,16.994,0,0,1,47.779,57.317l-1.381.6h0a1,1,0,0,1-.794,0l-1.381-.6A16.994,16.994,0,0,1,34,41.728V30.417a1,1,0,0,1,.864-.99c2.728-.354,7.754-1.13,10.775-2.356a.951.951,0,0,1,.721,0c3.022,1.226,8.048,2,10.776,2.355a1,1,0,0,1,.864.991Z" fill="#373737"/><path d="M53.96,30.984a48.011,48.011,0,0,1-7.2-1.637,2.4,2.4,0,0,0-1.527,0,47.839,47.839,0,0,1-7.2,1.639A2.427,2.427,0,0,0,36,33.39v8.328a15.154,15.154,0,0,0,9.627,14.035,1,1,0,0,0,.75,0A15.155,15.155,0,0,0,56,41.729V33.39A2.426,2.426,0,0,0,53.96,30.984ZM54,41.718a13.147,13.147,0,0,1-8,12.023,13.146,13.146,0,0,1-8-12.023V33.39a.432.432,0,0,1,.361-.431,49.727,49.727,0,0,0,7.51-1.716.393.393,0,0,1,.262,0,50.048,50.048,0,0,0,7.509,1.715A.432.432,0,0,1,54,33.39Z" fill="#373737"/><path d="M48.231,38.359l-4.3,5.16-.226-.226a1,1,0,0,0-1.414,1.414l1,1A.993.993,0,0,0,44,46h.045a1.007,1.007,0,0,0,.724-.358l5-6a1,1,0,1,0-1.538-1.282Z" fill="#373737"/></svg>
