<?xml version="1.0" encoding="UTF-8"?>
<svg xmlns="http://www.w3.org/2000/svg" id="icons" viewBox="0 0 60 60" width="512" height="512"><path d="M58.03,58.03a3.307,3.307,0,0,1-4.68,0L46.02,50.7,47,47l3.7-.98,7.33,7.33A3.314,3.314,0,0,1,58.03,58.03Z" fill="#a87a5b"/><rect x="43.486" y="44.582" width="6.619" height="4.426" transform="translate(-19.383 46.795) rotate(-45)" fill="#c4ddf0"/><circle cx="27" cy="27" r="26" fill="#e4f1ff"/><circle cx="27" cy="27" r="22" fill="#6a7bd3"/><path d="M34,20.373v5.36A11.556,11.556,0,0,1,27.431,35.9a1,1,0,0,1-.867,0A11.557,11.557,0,0,1,20,25.733v-5.36a1,1,0,0,1,.832-.984A42.366,42.366,0,0,0,26.7,18.048a.941.941,0,0,1,.589,0,42.366,42.366,0,0,0,5.874,1.341A1,1,0,0,1,34,20.373Z" fill="#e8c069"/><path d="M48.883,42.788a27.041,27.041,0,1,0-6.1,6.1l9.852,9.849a4.307,4.307,0,0,0,6.1,0,4.322,4.322,0,0,0,0-6.091ZM2,27A25,25,0,1,1,27,52,25.028,25.028,0,0,1,2,27ZM47.643,44.376l1.644,1.644L46.02,49.286l-1.643-1.643A27.165,27.165,0,0,0,47.643,44.376Zm9.676,12.952a2.358,2.358,0,0,1-3.26-.005L47.434,50.7,50.7,47.434l6.624,6.623A2.319,2.319,0,0,1,57.319,57.328Z" fill="#373737"/><path d="M27,37a1.982,1.982,0,0,0,.87-.2A12.477,12.477,0,0,0,35,25.732V20.373A1.993,1.993,0,0,0,33.331,18.4a40.754,40.754,0,0,1-5.726-1.3,1.915,1.915,0,0,0-1.211,0,40.628,40.628,0,0,1-5.731,1.3A1.994,1.994,0,0,0,19,20.373v5.359A12.475,12.475,0,0,0,26.126,36.8,1.974,1.974,0,0,0,27,37ZM21,25.732l0-5.357A40.912,40.912,0,0,0,26.982,19,42.06,42.06,0,0,0,33,20.371v5.361A10.61,10.61,0,0,1,27,35,10.605,10.605,0,0,1,21,25.732Z" fill="#373737"/><path d="M32.228,4.6a1,1,0,1,0-.456,1.947A21.009,21.009,0,1,1,27,6a1,1,0,0,0,0-2,22.99,22.99,0,1,0,5.228.6Z" fill="#373737"/><path d="M29.6,24.2a1,1,0,0,0-1.4.2l-2.308,3.078-.185-.185a1,1,0,0,0-1.414,1.414l1,1A1,1,0,0,0,26,30l.071,0a1,1,0,0,0,.729-.4l3-4A1,1,0,0,0,29.6,24.2Z" fill="#373737"/><path d="M27,46a1,1,0,0,0,1-1V43.949A16.994,16.994,0,0,0,43.949,28H45a1,1,0,0,0,0-2H43.949A16.994,16.994,0,0,0,28,10.051V9a1,1,0,0,0-2,0v1.051A16.994,16.994,0,0,0,10.051,26H9a1,1,0,0,0,0,2h1.051A16.994,16.994,0,0,0,26,43.949V45A1,1,0,0,0,27,46ZM12.051,28H14a1,1,0,0,0,0-2H12.051A15,15,0,0,1,26,12.051V14a1,1,0,0,0,2,0V12.051A15,15,0,0,1,41.949,26H40a1,1,0,0,0,0,2h1.949A15,15,0,0,1,28,41.949V40a1,1,0,0,0-2,0v1.949A15,15,0,0,1,12.051,28Z" fill="#373737"/></svg>
