<?xml version="1.0" encoding="UTF-8" standalone="no"?>
<!-- Created with Inkscape (http://www.inkscape.org/) -->

<svg
   version="1.1"
   id="svg4353"
   width="682.66669"
   height="682.66669"
   viewBox="0 0 682.66669 682.66669"
   xmlns="http://www.w3.org/2000/svg"
   xmlns:svg="http://www.w3.org/2000/svg">
  <defs
     id="defs4357">
    <clipPath
       clipPathUnits="userSpaceOnUse"
       id="clipPath4367">
      <path
         d="M 0,512 H 512 V 0 H 0 Z"
         id="path4365" />
    </clipPath>
  </defs>
  <g
     id="g4359"
     transform="matrix(1.3333333,0,0,-1.3333333,0,682.66667)">
    <g
       id="g4361">
      <g
         id="g4363"
         clip-path="url(#clipPath4367)">
        <g
           id="g4369"
           transform="translate(322,442)">
          <path
             d="m 0,0 c 0,-13.234 -10.767,-24 -24,-24 -13.233,0 -24,10.766 -24,24 0,33.084 -26.916,60 -60,60 -33.084,0 -60,-26.916 -60,-60 h 36 c 0,13.234 10.767,24 24,24 13.233,0 24,-10.766 24,-24 0,-33.084 26.916,-60 60,-60 33.084,0 60,26.916 60,60 z"
             style="fill:#8db0ff;fill-opacity:1;fill-rule:nonzero;stroke:none"
             id="path4371" />
        </g>
        <g
           id="g4373"
           transform="translate(344,442)">
          <path
             d="m 0,0 c 0,-30.715 -23.204,-56.098 -53,-59.578 2.298,-0.269 4.631,-0.422 7,-0.422 33.084,0 60,26.916 60,60 z"
             style="fill:#669af7;fill-opacity:1;fill-rule:nonzero;stroke:none"
             id="path4375" />
        </g>
        <g
           id="g4377"
           transform="translate(288.7764,419.8459)">
          <path
             d="m 0,0 c -8.668,3.622 -14.776,12.187 -14.776,22.154 0,23.275 -13.331,43.483 -32.751,53.428 -8.258,-8.767 -14.511,-19.433 -18.026,-31.274 8.669,-3.622 14.777,-12.187 14.777,-22.154 0,-23.275 13.331,-43.483 32.75,-53.428 C -9.768,-22.507 -3.514,-11.841 0,0"
             style="fill:#669af7;fill-opacity:1;fill-rule:nonzero;stroke:none"
             id="path4379" />
        </g>
        <g
           id="g4381"
           transform="translate(196,157)">
          <path
             d="M 0,0 -85.411,-23.725 C -120.037,-33.344 -144,-64.87 -144,-100.807 V -147 H 60 264 v 46.193 c 0,35.937 -23.963,67.463 -58.589,77.082 L 120,0 Z"
             style="fill:#ff933b;fill-opacity:1;fill-rule:nonzero;stroke:none"
             id="path4383" />
        </g>
        <g
           id="g4385"
           transform="translate(401.4116,133.2746)">
          <path
             d="M 0,0 -25.564,7.101 C 3.344,-5.431 22.588,-34.076 22.588,-66.275 v -57 h 36 v 46.194 C 58.588,-41.145 34.625,-9.618 0,0"
             style="fill:#f27d27;fill-opacity:1;fill-rule:nonzero;stroke:none"
             id="path4387" />
        </g>
        <g
           id="g4389"
           transform="translate(256,89)">
          <path
             d="M 0,0 C 36.755,0 66.773,29.318 67.944,65.793 L 60,68 H -60 l -7.944,-2.207 C -66.773,29.318 -36.755,0 0,0"
             style="fill:#f27d27;fill-opacity:1;fill-rule:nonzero;stroke:none"
             id="path4391" />
        </g>
        <g
           id="g4393"
           transform="translate(292,191)">
          <path
             d="m 0,0 v -34 c 0,-19.882 -16.118,-36 -36,-36 -19.882,0 -36,16.118 -36,36 V 0 Z"
             style="fill:#f9b3a7;fill-opacity:1;fill-rule:nonzero;stroke:none"
             id="path4395" />
        </g>
        <g
           id="g4397"
           transform="translate(298,502)">
          <path
             d="m 0,0 c -33.084,0 -60,-26.916 -60,-60 0,-13.234 -10.767,-24 -24,-24 -13.233,0 -24,10.766 -24,24 h -36 c 0,-33.084 26.916,-60 60,-60 33.084,0 60,26.916 60,60 0,13.234 10.767,24 24,24 13.233,0 24,-10.766 24,-24 H 60 C 60,-26.916 33.084,0 0,0"
             style="fill:#8db0ff;fill-opacity:1;fill-rule:nonzero;stroke:none"
             id="path4399" />
        </g>
        <path
           d="m 350,351 h 26 v -33 h -26 z"
           style="fill:#ffd664;fill-opacity:1;fill-rule:nonzero;stroke:none"
           id="path4401" />
        <path
           d="m 162,351 h -26 v -33 h 26 z"
           style="fill:#ffd664;fill-opacity:1;fill-rule:nonzero;stroke:none"
           id="path4403" />
        <g
           id="g4405"
           transform="translate(147,264)">
          <path
             d="M 0,0 H 20 V 54 H 0 C -11.046,54 -20,45.046 -20,34 V 20 C -20,8.954 -11.046,0 0,0"
             style="fill:#feccc1;fill-opacity:1;fill-rule:nonzero;stroke:none"
             id="path4407" />
        </g>
        <g
           id="g4409"
           transform="translate(365,264)">
          <path
             d="M 0,0 H -20 V 54 H 0 C 11.046,54 20,45.046 20,34 V 20 C 20,8.954 11.046,0 0,0"
             style="fill:#f9b3a7;fill-opacity:1;fill-rule:nonzero;stroke:none"
             id="path4411" />
        </g>
        <g
           id="g4413"
           transform="translate(256,351)">
          <path
             d="m 0,0 h -94 v -72 c 0,-51.915 42.085,-94 94,-94 51.915,0 94,42.085 94,94 V 0 Z"
             style="fill:#feccc1;fill-opacity:1;fill-rule:nonzero;stroke:none"
             id="path4415" />
        </g>
        <g
           id="g4417"
           transform="translate(322,351)">
          <path
             d="m 0,0 v -72 c 0,-47.157 -34.726,-86.2 -80,-92.961 4.568,-0.682 9.242,-1.039 14,-1.039 51.915,0 94,42.085 94,94 V 0 Z"
             style="fill:#f9b3a7;fill-opacity:1;fill-rule:nonzero;stroke:none"
             id="path4419" />
        </g>
        <g
           id="g4421"
           transform="translate(298,502)">
          <path
             d="M 0,0 C -2.369,0 -4.702,-0.153 -7,-0.422 22.796,-3.902 46,-29.285 46,-60 H 60 C 60,-26.916 33.084,0 0,0"
             style="fill:#669af7;fill-opacity:1;fill-rule:nonzero;stroke:none"
             id="path4423" />
        </g>
        <g
           id="g4425"
           transform="translate(238,442)">
          <path
             d="M 0,0 C 0,13.234 -10.767,24 -24,24 -37.233,24 -48,13.234 -48,0"
             style="fill:none;stroke:#000000;stroke-width:15;stroke-linecap:round;stroke-linejoin:round;stroke-miterlimit:10;stroke-dasharray:none;stroke-opacity:1"
             id="path4427" />
        </g>
        <g
           id="g4429"
           transform="translate(358,442)">
          <path
             d="m 0,0 c 0,-33.084 -26.916,-60 -60,-60 -16.238,0 -30.99,6.484 -41.804,16.999"
             style="fill:none;stroke:#000000;stroke-width:15;stroke-linecap:round;stroke-linejoin:round;stroke-miterlimit:10;stroke-dasharray:none;stroke-opacity:1"
             id="path4431" />
        </g>
        <g
           id="g4433"
           transform="translate(274,442)">
          <path
             d="m 0,0 c 0,-13.234 10.767,-24 24,-24 13.233,0 24,10.766 24,24"
             style="fill:none;stroke:#000000;stroke-width:15;stroke-linecap:round;stroke-linejoin:round;stroke-miterlimit:10;stroke-dasharray:none;stroke-opacity:1"
             id="path4435" />
        </g>
        <g
           id="g4437"
           transform="translate(154,442)">
          <path
             d="m 0,0 c 0,33.084 26.916,60 60,60 16.336,0 31.168,-6.562 41.999,-17.19"
             style="fill:none;stroke:#000000;stroke-width:15;stroke-linecap:round;stroke-linejoin:round;stroke-miterlimit:10;stroke-dasharray:none;stroke-opacity:1"
             id="path4439" />
        </g>
        <g
           id="g4441"
           transform="translate(52,54.375)">
          <path
             d="m 0,0 v 1.815 c 0,35.94 23.96,67.47 58.59,77.08 l 77.47,21.52 7.94,2.21 h 24"
             style="fill:none;stroke:#000000;stroke-width:15;stroke-linecap:round;stroke-linejoin:round;stroke-miterlimit:10;stroke-dasharray:none;stroke-opacity:1"
             id="path4443" />
        </g>
        <g
           id="g4445"
           transform="translate(292,157)">
          <path
             d="m 0,0 h 24 l 7.94,-2.21 77.47,-21.52 C 144.04,-33.34 168,-64.87 168,-100.81 v -1.815"
             style="fill:none;stroke:#000000;stroke-width:15;stroke-linecap:round;stroke-linejoin:round;stroke-miterlimit:10;stroke-dasharray:none;stroke-opacity:1"
             id="path4447" />
        </g>
        <g
           id="g4449"
           transform="translate(460,19.25)">
          <path
             d="m 0,0 v -9.25 h -80 -124 -124 -80 V 0"
             style="fill:none;stroke:#000000;stroke-width:15;stroke-linecap:round;stroke-linejoin:round;stroke-miterlimit:10;stroke-dasharray:none;stroke-opacity:1"
             id="path4451" />
        </g>
        <g
           id="g4453"
           transform="translate(220,157)">
          <path
             d="m 0,0 h -24 l -7.94,-2.21 C -30.77,-38.68 -0.76,-68 36,-68 c 36.76,0 66.77,29.32 67.94,65.79 L 96,0 H 72"
             style="fill:none;stroke:#000000;stroke-width:15;stroke-linecap:round;stroke-linejoin:round;stroke-miterlimit:10;stroke-dasharray:none;stroke-opacity:1"
             id="path4455" />
        </g>
        <g
           id="g4457"
           transform="translate(162,351)">
          <path
             d="M 0,0 H -26 V -35"
             style="fill:none;stroke:#000000;stroke-width:15;stroke-linecap:round;stroke-linejoin:round;stroke-miterlimit:10;stroke-dasharray:none;stroke-opacity:1"
             id="path4459" />
        </g>
        <g
           id="g4461"
           transform="translate(184.5,351)">
          <path
             d="m 0,0 h -22.5 v -72 c 0,-51.915 42.085,-94 94,-94 51.915,0 94,42.085 94,94 V 0 h -94 -36.516"
             style="fill:none;stroke:#000000;stroke-width:15;stroke-linecap:round;stroke-linejoin:round;stroke-miterlimit:10;stroke-dasharray:none;stroke-opacity:1"
             id="path4463" />
        </g>
        <g
           id="g4465"
           transform="translate(162,318)">
          <path
             d="m 0,0 h -15 c -11.046,0 -20,-8.954 -20,-20 v -14 c 0,-11.046 8.954,-20 20,-20 H 0"
             style="fill:none;stroke:#000000;stroke-width:15;stroke-linecap:round;stroke-linejoin:round;stroke-miterlimit:10;stroke-dasharray:none;stroke-opacity:1"
             id="path4467" />
        </g>
        <g
           id="g4469"
           transform="translate(350,351)">
          <path
             d="M 0,0 H 26 V -35"
             style="fill:none;stroke:#000000;stroke-width:15;stroke-linecap:round;stroke-linejoin:round;stroke-miterlimit:10;stroke-dasharray:none;stroke-opacity:1"
             id="path4471" />
        </g>
        <g
           id="g4473"
           transform="translate(350,318)">
          <path
             d="M 0,0 H 15 C 26.046,0 35,-8.954 35,-20 V -34 C 35,-45.046 26.046,-54 15,-54 H 0"
             style="fill:none;stroke:#000000;stroke-width:15;stroke-linecap:round;stroke-linejoin:round;stroke-miterlimit:10;stroke-dasharray:none;stroke-opacity:1"
             id="path4475" />
        </g>
        <g
           id="g4477"
           transform="translate(292,191)">
          <path
             d="m 0,0 v -34 c 0,-19.882 -16.118,-36 -36,-36 -19.882,0 -36,16.118 -36,36 V 0"
             style="fill:none;stroke:#000000;stroke-width:15;stroke-linecap:round;stroke-linejoin:round;stroke-miterlimit:10;stroke-dasharray:none;stroke-opacity:1"
             id="path4479" />
        </g>
        <g
           id="g4481"
           transform="translate(380,47)">
          <path
             d="M 0,0 V -37"
             style="fill:none;stroke:#000000;stroke-width:15;stroke-linecap:round;stroke-linejoin:round;stroke-miterlimit:10;stroke-dasharray:none;stroke-opacity:1"
             id="path4483" />
        </g>
        <g
           id="g4485"
           transform="translate(132,47)">
          <path
             d="M 0,0 V -37"
             style="fill:none;stroke:#000000;stroke-width:15;stroke-linecap:round;stroke-linejoin:round;stroke-miterlimit:10;stroke-dasharray:none;stroke-opacity:1"
             id="path4487" />
        </g>
        <g
           id="g4489"
           transform="translate(322,442)">
          <path
             d="m 0,0 c 0,13.234 -10.767,24 -24,24 -13.233,0 -24,-10.766 -24,-24 0,-33.084 -26.916,-60 -60,-60 -33.084,0 -60,26.916 -60,60"
             style="fill:none;stroke:#000000;stroke-width:15;stroke-linecap:round;stroke-linejoin:round;stroke-miterlimit:10;stroke-dasharray:none;stroke-opacity:1"
             id="path4491" />
        </g>
        <g
           id="g4493"
           transform="translate(190,442)">
          <path
             d="m 0,0 c 0,-13.234 10.767,-24 24,-24 13.233,0 24,10.766 24,24 0,33.084 26.916,60 60,60 33.084,0 60,-26.916 60,-60"
             style="fill:none;stroke:#000000;stroke-width:15;stroke-linecap:round;stroke-linejoin:round;stroke-miterlimit:10;stroke-dasharray:none;stroke-opacity:1"
             id="path4495" />
        </g>
      </g>
    </g>
  </g>
</svg>
